<?xml version="1.0" standalone="no"?>
<!DOCTYPE svg PUBLIC "-//W3C//DTD SVG 1.1//EN" "http://www.w3.org/Graphics/SVG/1.1/DTD/svg11.dtd" >
<svg xmlns="http://www.w3.org/2000/svg" xmlns:xlink="http://www.w3.org/1999/xlink" version="1.1">
<metadata>
Created by FontForge 20170910 at Sat Oct 31 20:38:26 2009
 By Jimmy Wärting
Fedra Sans is a contemporary sans serif typeface developed for visual identities, designed to work equally well on paper and on the computer screen.
</metadata>
<defs>
<font id="FedraSansPro-BoldItalic" horiz-adv-x="676" >
  <font-face 
    font-family="Fedra Sans Pro Bold"
    font-weight="700"
    font-style="italic"
    font-stretch="normal"
    units-per-em="1000"
    panose-1="2 11 8 3 4 0 0 9 0 4"
    ascent="780"
    descent="-220"
    x-height="546"
    cap-height="707"
    bbox="-519 -338 1476 1150"
    underline-thickness="50"
    underline-position="-100"
    slope="-6"
    stemh="122"
    stemv="150"
    unicode-range="U+0020-FB04"
  />
<missing-glyph horiz-adv-x="712" 
d="M305 375v27h27v-27h-27zM380 525v27h27v-27h-27zM305 525v27h27v-27h-27zM230 525v27h27v-27h-27zM80 0v27h27v-27h-27zM155 0v27h27v-27h-27zM230 0v27h27v-27h-27zM305 0v27h27v-27h-27zM380 0v27h27v-27h-27zM80 75v27h27v-27h-27zM80 150v27h27v-27h-27zM80 225v27
h27v-27h-27zM80 300v27h27v-27h-27zM80 375v27h27v-27h-27zM80 450v27h27v-27h-27zM80 525v27h27v-27h-27zM80 600v27h27v-27h-27zM80 675v27h27v-27h-27zM155 675v27h27v-27h-27zM230 675v27h27v-27h-27zM305 675v27h27v-27h-27zM380 675v27h27v-27h-27zM455 675v27h27v-27
h-27zM530 675v27h27v-27h-27zM530 0v27h27v-27h-27zM455 0v27h27v-27h-27zM605 0v27h27v-27h-27zM605 675v27h27v-27h-27zM305 300v27h27v-27h-27zM305 150v27h27v-27h-27zM380 375v27h27v-27h-27zM455 375v27h27v-27h-27zM455 450v27h27v-27h-27zM455 525v27h27v-27h-27z
M605 600v27h27v-27h-27zM605 525v27h27v-27h-27zM605 375v27h27v-27h-27zM605 300v27h27v-27h-27zM605 150v27h27v-27h-27zM605 75v27h27v-27h-27zM605 225v27h27v-27h-27zM605 450v27h27v-27h-27z" />
    <glyph glyph-name="fi" unicode="fi" horiz-adv-x="658" 
d="M52 -151l62 585h-80l12 112h80l2 20c17 158 125 209 242 209c43 0 80 -6 124 -6c37 -1 99 3 138 7l12 -114c-57 -18 -125 -24 -164 -24c-41 0 -72 5 -126 5c-46 0 -68 -18 -75 -77l-2 -20h343l-57 -546h-152l46 434h-192l-62 -585h-151z" />
    <glyph glyph-name="fl" unicode="fl" horiz-adv-x="657" 
d="M52 -151l62 585h-80l12 112h80l2 20c17 158 125 209 242 209c44 0 80 -6 123 -6c50 -1 102 3 152 9l-83 -778h-151l67 638c-40 0 -70 5 -124 5c-46 0 -68 -18 -75 -77l-2 -20h116l-11 -112h-117l-62 -585h-151z" />
    <glyph glyph-name="f_idieresis" unicode="f&#xef;" horiz-adv-x="645" 
d="M53 -151l61 585h-80l14 112h78l3 23c17 173 94 206 179 206c31 0 67 -4 112 -22l-41 -117c-26 5 -40 7 -54 7c-22 0 -40 -20 -45 -73l-3 -24h121l-13 -112h-119l-63 -585h-150zM399 0l57 546h152l-58 -546h-151zM489 621l-72 89l88 88l72 -88zM655 621l-72 89l88 88
l73 -88z" />
    <glyph glyph-name="f_igrave" unicode="f&#xec;" horiz-adv-x="645" 
d="M53 -151l61 585h-80l14 112h78l3 23c17 173 94 206 179 206c31 0 67 -4 112 -22l-41 -117c-26 5 -40 7 -54 7c-22 0 -40 -20 -45 -73l-3 -24h121l-13 -112h-119l-63 -585h-150zM593 616l-169 119l82 98l145 -140zM399 0l57 546h152l-58 -546h-151z" />
    <glyph glyph-name="f_h" unicode="fh" horiz-adv-x="958" 
d="M52 -151l62 585h-80l12 112h80l2 20c17 158 125 209 242 209c44 0 80 -6 123 -6c50 -1 102 3 152 9l-29 -292c40 27 119 74 179 74c83 0 116 -25 116 -112c0 -16 -1 -34 -3 -54l-41 -394h-151l39 367c1 9 2 17 2 23c0 17 -5 24 -20 24c-34 0 -112 -36 -134 -46l-39 -368
h-155l71 643h-126c-46 0 -68 -18 -75 -77l-2 -20h116l-11 -112h-117l-62 -585h-151z" />
    <glyph glyph-name="f_b" unicode="fb" horiz-adv-x="930" 
d="M595 -11c-65 0 -136 15 -182 27l65 622c-40 0 -70 5 -124 5c-46 0 -68 -18 -75 -77l-2 -20h116l-11 -112h-117l-62 -585h-151l62 585h-80l12 112h80l2 20c17 158 125 209 242 209c44 0 80 -6 123 -6c50 -1 102 3 152 9l-29 -270c29 24 88 50 133 50
c101 0 150 -53 150 -176c0 -172 -78 -393 -304 -393zM601 107c110 0 148 178 148 272c0 39 -19 55 -40 55c-33 0 -71 -19 -105 -36l-30 -289c8 -1 15 -2 27 -2z" />
    <glyph glyph-name="f_j" unicode="fj" horiz-adv-x="659" 
d="M331 -228c-38 0 -76 7 -107 19l40 118c14 -4 35 -9 68 -9c50 0 75 21 82 90l44 444h-193l-62 -585h-150l61 585h-80l12 112h80l2 20c17 158 125 209 242 209c43 0 80 -6 124 -6c37 0 99 3 138 7l11 -114c-56 -19 -124 -24 -163 -24c-41 0 -72 5 -125 5
c-47 0 -69 -18 -75 -77l-3 -20h343l-56 -555c-19 -184 -113 -219 -233 -219z" />
    <glyph glyph-name="f_k" unicode="fk" horiz-adv-x="922" 
d="M726 -2l-138 248l-26 -246h-151l67 638c-40 0 -70 5 -124 5c-46 0 -69 -18 -75 -77l-2 -20h116l-12 -112h-116l-62 -585h-151l62 585h-80l12 112h80l2 20c17 158 125 209 242 209c43 0 79 -6 123 -6c50 -1 101 3 152 9l-50 -470l169 238h164l-194 -255l159 -289z" />
    <glyph glyph-name="f_f" unicode="ff" horiz-adv-x="726" 
d="M53 -151l61 585h-80l13 112h79l3 24c17 173 110 205 228 205c66 0 145 -18 193 -38c41 30 93 38 153 38c50 0 132 -17 176 -34l-42 -117c-30 7 -81 19 -132 19c-50 0 -74 -20 -80 -73l-3 -24h121l-14 -112h-119l-63 -585h-149l61 585h-194l-63 -585h-149zM277 546h194
l3 24c2 21 6 40 11 56c-35 8 -82 17 -125 17c-50 0 -74 -20 -80 -73z" />
    <glyph glyph-name="f_f_i" unicode="ffi" horiz-adv-x="1003" 
d="M53 -151l61 585h-80l14 112h78l3 24c17 173 111 205 229 205c49 0 154 -22 199 -40c35 30 106 40 159 40c43 0 80 -6 124 -6c37 0 99 3 138 7l11 -114c-57 -19 -124 -24 -163 -24c-41 0 -72 5 -126 5c-46 0 -68 -18 -75 -77l-2 -20h343l-58 -546h-151l46 434h-192
l-62 -585h-151l62 585h-195l-63 -585h-149zM277 546h195l2 20c2 24 6 40 12 58c-32 7 -89 19 -126 19c-50 0 -74 -20 -80 -73z" />
    <glyph glyph-name="f_f_l" unicode="ffl" horiz-adv-x="1001" 
d="M53 -151l61 585h-80l14 112h78l3 24c17 173 111 205 229 205c69 0 163 -18 203 -37c42 27 99 37 153 37c43 0 79 -6 123 -6c50 -1 101 3 152 9l-83 -778h-151l67 638c-40 0 -70 5 -124 5c-46 0 -69 -18 -75 -77l-2 -20h116l-12 -112h-116l-62 -585h-151l62 585h-193
l-63 -585h-149zM277 546h193l2 20c2 24 7 45 14 63c-33 7 -84 14 -126 14c-50 0 -74 -20 -80 -73z" />
    <glyph glyph-name="f_f_j" unicode="ffj" horiz-adv-x="1003" 
d="M53 -151l61 585h-80l14 112h78l3 24c17 173 111 205 229 205c49 0 154 -22 199 -40c35 30 106 40 159 40c43 0 80 -6 124 -6c37 0 99 3 138 7l11 -114c-57 -19 -124 -24 -163 -24c-41 0 -72 5 -126 5c-46 0 -68 -18 -75 -77l-2 -20h343l-58 -547
c-19 -184 -113 -219 -233 -219c-38 0 -89 10 -122 24l39 117c17 -4 54 -13 84 -13c50 0 74 21 81 92l45 434h-191l-62 -585h-151l62 585h-195l-63 -585h-149zM277 546h195l2 20c2 24 6 40 12 58c-32 7 -89 19 -126 19c-50 0 -74 -20 -80 -73z" />
    <glyph glyph-name="aogonek_j" unicode="&#x105;j" horiz-adv-x="844" 
d="M405 -269c-137 0 -178 61 -178 121c0 54 31 109 81 147l7 72c-52 -50 -101 -83 -154 -83c-107 0 -140 69 -140 179c0 220 146 386 360 386c35 0 92 -4 133 -11l-57 -542c-48 -29 -77 -60 -81 -101c-3 -30 26 -45 63 -45c63 0 151 41 159 112l60 580h151l-59 -570
c-20 -189 -199 -245 -345 -245zM204 121c34 0 91 41 123 66l24 240c-2 1 -4 1 -9 1c-92 0 -170 -104 -170 -246c0 -32 7 -61 32 -61zM739 614l-92 102l113 101l92 -101z" />
    <glyph glyph-name=".notdef" horiz-adv-x="712" 
d="M305 375v27h27v-27h-27zM380 525v27h27v-27h-27zM305 525v27h27v-27h-27zM230 525v27h27v-27h-27zM80 0v27h27v-27h-27zM155 0v27h27v-27h-27zM230 0v27h27v-27h-27zM305 0v27h27v-27h-27zM380 0v27h27v-27h-27zM80 75v27h27v-27h-27zM80 150v27h27v-27h-27zM80 225v27
h27v-27h-27zM80 300v27h27v-27h-27zM80 375v27h27v-27h-27zM80 450v27h27v-27h-27zM80 525v27h27v-27h-27zM80 600v27h27v-27h-27zM80 675v27h27v-27h-27zM155 675v27h27v-27h-27zM230 675v27h27v-27h-27zM305 675v27h27v-27h-27zM380 675v27h27v-27h-27zM455 675v27h27v-27
h-27zM530 675v27h27v-27h-27zM530 0v27h27v-27h-27zM455 0v27h27v-27h-27zM605 0v27h27v-27h-27zM605 675v27h27v-27h-27zM305 300v27h27v-27h-27zM305 150v27h27v-27h-27zM380 375v27h27v-27h-27zM455 375v27h27v-27h-27zM455 450v27h27v-27h-27zM455 525v27h27v-27h-27z
M605 600v27h27v-27h-27zM605 525v27h27v-27h-27zM605 375v27h27v-27h-27zM605 300v27h27v-27h-27zM605 150v27h27v-27h-27zM605 75v27h27v-27h-27zM605 225v27h27v-27h-27zM605 450v27h27v-27h-27z" />
    <glyph glyph-name="space" unicode=" " horiz-adv-x="225" 
 />
    <glyph glyph-name="A" unicode="A" horiz-adv-x="691" 
d="M-49 0l351 707h198l163 -707h-159l-46 217h-247l-103 -217h-157zM267 331h166l-29 161l-17 121l-49 -121z" />
    <glyph glyph-name="B" unicode="B" horiz-adv-x="654" 
d="M45 0l74 707h238c114 0 237 -28 237 -165c0 -68 -31 -126 -90 -157l-1 -3c65 -20 110 -77 110 -147c0 -175 -145 -235 -300 -235h-268zM213 122h92c79 0 150 11 150 105c0 80 -86 83 -146 83h-76zM244 417h67c78 0 124 25 124 103c0 55 -64 69 -114 69h-59z" />
    <glyph glyph-name="C" unicode="C" horiz-adv-x="650" 
d="M387 -10c-201 0 -350 93 -350 311c0 272 155 414 423 414c74 0 128 -11 189 -35l-47 -114c-58 17 -96 21 -157 21c-159 0 -249 -108 -249 -263c0 -139 93 -204 223 -204c57 0 106 3 161 18l25 -118c-73 -23 -139 -30 -218 -30z" />
    <glyph glyph-name="D" unicode="D" horiz-adv-x="760" 
d="M45 0l74 707h242c200 0 373 -81 373 -307c0 -277 -178 -400 -441 -400h-248zM211 122h105c176 0 263 89 263 266c0 149 -98 197 -234 197h-85z" />
    <glyph glyph-name="E" unicode="E" horiz-adv-x="588" 
d="M45 0l74 707h452l-13 -121h-297l-18 -174h275l-12 -114h-275l-19 -177h321l-13 -121h-475z" />
    <glyph glyph-name="F" unicode="F" horiz-adv-x="577" 
d="M45 0l74 707h470l-13 -121h-315l-20 -192h293l-12 -114h-293l-30 -280h-154z" />
    <glyph glyph-name="G" unicode="G" horiz-adv-x="687" 
d="M384 -10c-199 0 -347 91 -347 307c0 277 160 418 430 418c75 0 133 -10 200 -39l-53 -113c-55 16 -103 24 -163 24c-163 0 -254 -101 -254 -263c0 -136 90 -204 219 -204c19 0 37 2 54 3l22 227h155l-32 -320c-78 -29 -145 -40 -231 -40z" />
    <glyph glyph-name="H" unicode="H" horiz-adv-x="777" 
d="M45 0l74 707h154l-30 -293h313l31 293h155l-74 -707h-155l32 296h-314l-32 -296h-154z" />
    <glyph glyph-name="I" unicode="I" horiz-adv-x="308" 
d="M45 0l74 707h154l-74 -707h-154z" />
    <glyph glyph-name="J" unicode="J" horiz-adv-x="311" 
d="M-61 -196l-45 111c126 66 157 114 170 236l58 556h155l-58 -554c-15 -145 -52 -275 -280 -349z" />
    <glyph glyph-name="K" unicode="K" horiz-adv-x="680" 
d="M45 0l74 707h154l-32 -309l284 309h189l-312 -330l243 -349l-150 -68l-259 391l-37 -351h-154z" />
    <glyph glyph-name="L" unicode="L" horiz-adv-x="540" 
d="M45 0l74 707h154l-61 -584h307l-13 -123h-461z" />
    <glyph glyph-name="M" unicode="M" horiz-adv-x="972" 
d="M-18 0l252 707h177l39 -580l241 580h175l39 -707h-149l-21 486l-203 -486h-205l-32 490l-162 -490h-151z" />
    <glyph glyph-name="N" unicode="N" horiz-adv-x="774" 
d="M45 0l74 707h183l234 -513l49 513h154l-74 -707h-189l-227 500l-50 -500h-154z" />
    <glyph glyph-name="O" unicode="O" horiz-adv-x="813" 
d="M365 -12c-202 0 -329 110 -329 309c0 264 162 421 423 421c202 0 328 -104 328 -306c0 -266 -156 -424 -422 -424zM381 111c171 0 247 125 247 284c0 123 -62 200 -190 200c-167 0 -245 -124 -245 -281c0 -122 60 -203 188 -203z" />
    <glyph glyph-name="P" unicode="P" horiz-adv-x="625" 
d="M45 0l74 707h267c134 0 242 -70 242 -214c0 -211 -194 -284 -374 -284h-32l-22 -209h-155zM262 586l-27 -256c13 0 28 0 38 1c102 5 194 25 194 143c0 76 -45 112 -115 112h-90z" />
    <glyph glyph-name="Q" unicode="Q" horiz-adv-x="813" 
d="M752 -184l-380 44l12 107l380 -40zM365 -12c-202 0 -329 110 -329 309c0 264 162 421 423 421c202 0 328 -104 328 -306c0 -266 -156 -424 -422 -424zM381 111c171 0 247 125 247 284c0 123 -62 200 -190 200c-167 0 -245 -124 -245 -281c0 -122 60 -203 188 -203z" />
    <glyph glyph-name="Q.alt" horiz-adv-x="828" 
d="M365 -12c-202 0 -329 110 -329 309c0 264 162 421 423 421c202 0 328 -104 328 -306c0 -128 -36 -230 -102 -302l86 -97l-87 -68l-87 96c-63 -35 -141 -53 -232 -53zM381 111c50 0 93 11 127 30l-94 106l89 69l84 -96c28 48 41 109 41 175c0 123 -62 200 -190 200
c-167 0 -245 -124 -245 -281c0 -122 60 -203 188 -203z" />
    <glyph glyph-name="R" unicode="R" horiz-adv-x="688" 
d="M524 -39l-195 306c-17 -2 -33 -2 -50 -2h-51l-28 -265h-155l74 707h265c128 0 242 -54 242 -191c0 -99 -47 -170 -136 -213l177 -270zM240 375h64c94 0 162 27 162 130c0 70 -54 80 -116 80h-88z" />
    <glyph glyph-name="S" unicode="S" horiz-adv-x="566" 
d="M222 -13c-77 0 -160 18 -227 51l54 117c64 -23 116 -38 185 -38c56 0 139 14 139 85c0 110 -304 96 -304 305c0 148 130 211 262 211c84 0 147 -14 218 -47l-56 -110c-52 20 -106 30 -163 30c-45 0 -108 -10 -108 -66c0 -95 309 -105 309 -303
c0 -174 -163 -235 -309 -235z" />
    <glyph glyph-name="T" unicode="T" horiz-adv-x="611" 
d="M195 0l61 585h-225l13 122h605l-13 -122h-225l-61 -585h-155z" />
    <glyph glyph-name="U" unicode="U" horiz-adv-x="769" 
d="M355 -13c-148 0 -293 56 -293 244c0 14 0 29 2 44l46 432h156l-44 -426c-1 -11 -2 -22 -2 -32c0 -93 50 -132 147 -132c107 0 169 52 183 186l42 404h152l-43 -407c-25 -244 -194 -313 -346 -313z" />
    <glyph glyph-name="V" unicode="V" horiz-adv-x="698" 
d="M205 0l-168 707h163l122 -580l278 580h157l-351 -707h-201z" />
    <glyph glyph-name="W" unicode="W" horiz-adv-x="1047" 
d="M171 0l-119 707h163l82 -577l184 373l-50 204h162l117 -572l228 572h157l-301 -707h-196l-70 318l-157 -318h-200z" />
    <glyph glyph-name="X" unicode="X" horiz-adv-x="658" 
d="M-38 0l290 364l-183 343h176l109 -227l168 227h173l-271 -340l196 -367h-177l-122 250l-184 -250h-175z" />
    <glyph glyph-name="Y" unicode="Y" horiz-adv-x="662" 
d="M217 0l25 235l-206 472h177l125 -342l207 342h173l-322 -467l-24 -240h-155z" />
    <glyph glyph-name="Z" unicode="Z" horiz-adv-x="599" 
d="M-5 0l11 106l383 472h-307l13 129h496l-10 -100l-387 -478h357l-13 -129h-543z" />
    <glyph glyph-name="Aacute" unicode="&#xc1;" horiz-adv-x="691" 
d="M-49 0l351 707h198l163 -707h-159l-46 217h-247l-103 -217h-157zM267 331h166l-29 161l-17 121l-49 -121zM309 737l-26 96l261 89l34 -121z" />
    <glyph glyph-name="Acircumflex" unicode="&#xc2;" horiz-adv-x="691" 
d="M549 736l-140 55l-151 -51l-42 99l203 81l179 -81zM-49 0l351 707h198l163 -707h-159l-46 217h-247l-103 -217h-157zM267 331h166l-29 161l-17 121l-49 -121z" />
    <glyph glyph-name="Adieresis" unicode="&#xc4;" horiz-adv-x="691" 
d="M284 747l-78 89l97 88l78 -88zM522 747l-79 89l97 88l79 -88zM-49 0l351 707h198l163 -707h-159l-46 217h-247l-103 -217h-157zM267 331h166l-29 161l-17 121l-49 -121z" />
    <glyph glyph-name="Aring" unicode="&#xc5;" horiz-adv-x="691" 
d="M-49 0l351 707h198l163 -707h-159l-46 217h-247l-103 -217h-157zM267 331h166l-29 161l-17 121l-49 -121zM404 738c-61 0 -119 25 -119 94c0 81 63 132 142 132c61 0 117 -33 117 -100c0 -81 -62 -126 -140 -126zM411 800c29 0 54 19 54 51c0 28 -20 45 -47 45
c-33 0 -54 -19 -54 -50c0 -30 20 -46 47 -46z" />
    <glyph glyph-name="Agrave" unicode="&#xc0;" horiz-adv-x="691" 
d="M490 735l-266 64l35 121l258 -89zM-49 0l351 707h198l163 -707h-159l-46 217h-247l-103 -217h-157zM267 331h166l-29 161l-17 121l-49 -121z" />
    <glyph glyph-name="Atilde" unicode="&#xc3;" horiz-adv-x="691" 
d="M454 744c-47 0 -86 38 -119 38s-55 -10 -79 -28l-54 75c32 33 78 71 140 71c54 0 97 -38 126 -38c32 0 55 9 89 26l45 -78c-31 -31 -75 -66 -148 -66zM-49 0l351 707h198l163 -707h-159l-46 217h-247l-103 -217h-157zM267 331h166l-29 161l-17 121l-49 -121z" />
    <glyph glyph-name="Abreve" unicode="&#x102;" horiz-adv-x="691" 
d="M-49 0l351 707h198l163 -707h-159l-46 217h-247l-103 -217h-157zM267 331h166l-29 161l-17 121l-49 -121zM397 755c-70 0 -133 40 -165 93l80 73c27 -33 54 -52 94 -52c48 0 84 23 112 51l63 -76c-29 -36 -95 -89 -184 -89z" />
    <glyph glyph-name="Amacron" unicode="&#x100;" horiz-adv-x="691" 
d="M243 770l13 125h323l-14 -125h-322zM-49 0l351 707h198l163 -707h-159l-46 217h-247l-103 -217h-157zM267 331h166l-29 161l-17 121l-49 -121z" />
    <glyph glyph-name="Aogonek" unicode="&#x104;" horiz-adv-x="691" 
d="M554 -254c-95 0 -135 48 -135 105c0 52 33 111 84 150l-45 216h-247l-103 -217h-157l351 707h198l163 -707c-49 -29 -109 -74 -109 -114c0 -22 17 -26 35 -26c20 0 49 2 69 8l15 -98c-31 -14 -59 -24 -119 -24zM267 331h166l-46 282z" />
    <glyph glyph-name="uni01FA" unicode="&#x1fa;" horiz-adv-x="691" 
d="M-49 0l351 707h198l163 -707h-159l-46 217h-247l-103 -217h-157zM267 331h166l-29 161l-17 121l-49 -121zM398 726c-61 0 -119 25 -119 94c0 81 63 132 142 132c61 0 117 -33 117 -100c0 -81 -62 -126 -140 -126zM405 788c29 0 54 19 54 51c0 28 -20 45 -47 45
c-33 0 -54 -19 -54 -50c0 -30 20 -46 47 -46zM319 951l-26 96l261 89l34 -121z" />
    <glyph glyph-name="uni01CD" unicode="&#x1cd;" horiz-adv-x="691" 
d="M-49 0l351 707h198l163 -707h-159l-46 217h-247l-103 -217h-157zM267 331h166l-29 161l-17 121l-49 -121zM401 745l-178 81l49 103l139 -56l151 52l37 -100z" />
    <glyph glyph-name="uni0226" unicode="&#x226;" horiz-adv-x="691" 
d="M-49 0l351 707h198l163 -707h-159l-46 217h-247l-103 -217h-157zM267 331h166l-29 161l-17 121l-49 -121zM403 759l-96 107l118 106l96 -106z" />
    <glyph glyph-name="uni1EA6" unicode="&#x1ea6;" horiz-adv-x="691" 
d="M-49 0l351 707h198l163 -707h-159l-46 217h-247l-103 -217h-157zM267 331h166l-29 161l-17 121l-49 -121zM606 859l-175 121l79 98l164 -136zM534 741l-126 46l-140 -46l-44 98l191 79l175 -79z" />
    <glyph glyph-name="uni1EA4" unicode="&#x1ea4;" horiz-adv-x="691" 
d="M-49 0l351 707h198l163 -707h-159l-46 217h-247l-103 -217h-157zM267 331h166l-29 161l-17 121l-49 -121zM575 872l-71 71l148 140l83 -90zM544 741l-126 46l-140 -46l-44 98l191 79l175 -79z" />
    <glyph glyph-name="uni1EAA" unicode="&#x1eaa;" horiz-adv-x="691" 
d="M-49 0l351 707h198l163 -707h-159l-46 217h-247l-103 -217h-157zM267 331h166l-29 161l-17 121l-49 -121zM539 741l-126 46l-140 -46l-44 98l191 79l175 -79zM481 925c-48 0 -83 31 -119 31c-19 0 -43 -2 -69 -24l-50 69c26 27 76 73 141 73c60 0 84 -31 117 -31
c27 0 46 5 83 22l43 -71c-27 -22 -73 -69 -146 -69z" />
    <glyph glyph-name="uni1EA8" unicode="&#x1ea8;" horiz-adv-x="691" 
d="M-49 0l351 707h198l163 -707h-159l-46 217h-247l-103 -217h-157zM267 331h166l-29 161l-17 121l-49 -121zM619 1016c0 -80 -56 -118 -80 -130l-66 65c16 9 33 22 33 39c0 15 -11 31 -30 31c-12 0 -25 -4 -40 -10l-19 86c19 10 45 22 87 22c30 0 58 -9 79 -26
c22 -17 36 -43 36 -77zM539 741l-126 46l-140 -46l-44 98l191 79l175 -79z" />
    <glyph glyph-name="uni1EAC" unicode="&#x1eac;" horiz-adv-x="690" 
d="M-50 0l351 707h198l163 -707h-159l-46 217h-247l-103 -217h-157zM266 331h166l-29 161l-17 121l-49 -121zM286 -242l-92 102l113 101l92 -101zM547 736l-140 55l-151 -51l-42 99l203 81l179 -81z" />
    <glyph glyph-name="uni1EB0" unicode="&#x1eb0;" horiz-adv-x="691" 
d="M-49 0l351 707h198l163 -707h-159l-46 217h-247l-103 -217h-157zM267 331h166l-29 161l-17 121l-49 -121zM440 903l-180 108l66 91l172 -126zM411 753c-109 0 -146 56 -165 93l82 75c25 -27 49 -50 98 -50c48 0 75 22 103 50l66 -79c-29 -36 -75 -89 -184 -89z" />
    <glyph glyph-name="uni1EAE" unicode="&#x1eae;" horiz-adv-x="691" 
d="M-49 0l351 707h198l163 -707h-159l-46 217h-247l-103 -217h-157zM267 331h166l-29 161l-17 121l-49 -121zM597 1012l-193 -109l-57 82l185 124zM411 753c-109 0 -146 56 -165 93l82 75c25 -27 49 -50 98 -50c48 0 75 22 103 50l66 -79c-29 -36 -75 -89 -184 -89z" />
    <glyph glyph-name="uni1EB4" unicode="&#x1eb4;" horiz-adv-x="691" 
d="M-49 0l351 707h198l163 -707h-159l-46 217h-247l-103 -217h-157zM267 331h166l-29 161l-17 121l-49 -121zM411 753c-109 0 -146 56 -165 93l82 75c25 -27 49 -50 98 -50c48 0 75 22 103 50l66 -79c-29 -36 -75 -89 -184 -89zM476 925c-48 0 -83 31 -119 31
c-19 0 -43 -2 -69 -24l-50 69c26 27 76 73 141 73c60 0 84 -31 117 -31c27 0 46 5 83 22l43 -71c-27 -22 -73 -69 -146 -69z" />
    <glyph glyph-name="uni1EB2" unicode="&#x1eb2;" horiz-adv-x="691" 
d="M-49 0l351 707h198l163 -707h-159l-46 217h-247l-103 -217h-157zM267 331h166l-29 161l-17 121l-49 -121zM525 1043c0 -81 -57 -123 -99 -143l-59 73c19 13 39 25 39 48c0 16 -15 26 -34 26c-9 0 -20 0 -38 -5v94c14 6 45 14 76 14c35 0 65 -10 86 -30
c19 -18 29 -43 29 -77zM411 753c-109 0 -146 56 -165 93l82 75c25 -27 49 -50 98 -50c48 0 75 22 103 50l66 -79c-29 -36 -75 -89 -184 -89z" />
    <glyph glyph-name="uni1EB6" unicode="&#x1eb6;" horiz-adv-x="690" 
d="M-50 0l351 707h198l163 -707h-159l-46 217h-247l-103 -217h-157zM266 331h166l-29 161l-17 121l-49 -121zM283 -242l-92 102l113 101l92 -101zM413 755c-70 0 -133 40 -165 93l80 73c27 -33 54 -52 94 -52c48 0 84 23 112 51l63 -76c-29 -36 -95 -89 -184 -89z" />
    <glyph glyph-name="uni1EA2" unicode="&#x1ea2;" horiz-adv-x="691" 
d="M-49 0l351 707h198l163 -707h-159l-46 217h-247l-103 -217h-157zM267 331h166l-29 161l-17 121l-49 -121zM514 898c0 -92 -66 -137 -126 -160l-55 80c23 10 60 28 60 60c0 19 -15 28 -34 28c-9 0 -22 -1 -35 -5l-4 97c15 6 48 13 74 13c66 0 120 -39 120 -113z" />
    <glyph glyph-name="uni1EA0" unicode="&#x1ea0;" horiz-adv-x="690" 
d="M-50 0l351 707h198l163 -707h-159l-46 217h-247l-103 -217h-157zM266 331h166l-29 161l-17 121l-49 -121zM285 -242l-92 102l113 101l92 -101z" />
    <glyph glyph-name="uni1E02" unicode="&#x1e02;" horiz-adv-x="654" 
d="M45 0l74 707h238c114 0 237 -28 237 -165c0 -68 -31 -126 -90 -157l-1 -3c65 -20 110 -77 110 -147c0 -175 -145 -235 -300 -235h-268zM213 122h92c79 0 150 11 150 105c0 80 -86 83 -146 83h-76zM244 417h67c78 0 124 25 124 103c0 55 -64 69 -114 69h-59zM342 759
l-96 107l118 106l96 -106z" />
    <glyph glyph-name="uni1E04" unicode="&#x1e04;" horiz-adv-x="655" 
d="M46 0l74 707h238c114 0 237 -28 237 -165c0 -68 -31 -126 -90 -157l-1 -3c65 -20 110 -77 110 -147c0 -175 -145 -235 -300 -235h-268zM214 122h92c79 0 150 11 150 105c0 80 -86 83 -146 83h-76zM245 417h67c78 0 124 25 124 103c0 55 -64 69 -114 69h-59zM275 -253
l-92 102l113 101l92 -101z" />
    <glyph glyph-name="uni1E06" unicode="&#x1e06;" horiz-adv-x="655" 
d="M46 0l74 707h238c114 0 237 -28 237 -165c0 -68 -31 -126 -90 -157l-1 -3c65 -20 110 -77 110 -147c0 -175 -145 -235 -300 -235h-268zM214 122h92c79 0 150 11 150 105c0 80 -86 83 -146 83h-76zM245 417h67c78 0 124 25 124 103c0 55 -64 69 -114 69h-59zM114 -204
l13 122h299l-14 -122h-298z" />
    <glyph glyph-name="Ccedilla" unicode="&#xc7;" horiz-adv-x="650" 
d="M306 -275l-42 90c29 17 76 38 80 71c2 20 -3 42 -7 63h119c9 -24 17 -51 14 -78c-8 -75 -96 -119 -164 -146zM387 -10c-201 0 -350 93 -350 311c0 272 155 414 423 414c74 0 128 -11 189 -35l-47 -114c-58 17 -96 21 -157 21c-159 0 -249 -108 -249 -263
c0 -139 93 -204 223 -204c57 0 106 3 161 18l25 -118c-73 -23 -139 -30 -218 -30z" />
    <glyph glyph-name="Cacute" unicode="&#x106;" horiz-adv-x="650" 
d="M355 737l-26 96l261 89l34 -121zM387 -10c-201 0 -350 93 -350 311c0 272 155 414 423 414c74 0 128 -11 189 -35l-47 -114c-58 17 -96 21 -157 21c-159 0 -249 -108 -249 -263c0 -139 93 -204 223 -204c57 0 106 3 161 18l25 -118c-73 -23 -139 -30 -218 -30z" />
    <glyph glyph-name="Ccaron" unicode="&#x10c;" horiz-adv-x="650" 
d="M433 745l-178 81l49 103l139 -56l151 52l37 -100zM387 -10c-201 0 -350 93 -350 311c0 272 155 414 423 414c74 0 128 -11 189 -35l-47 -114c-58 17 -96 21 -157 21c-159 0 -249 -108 -249 -263c0 -139 93 -204 223 -204c57 0 106 3 161 18l25 -118
c-73 -23 -139 -30 -218 -30z" />
    <glyph glyph-name="Ccircumflex" unicode="&#x108;" horiz-adv-x="650" 
d="M599 736l-140 55l-151 -51l-42 99l203 81l179 -81zM387 -10c-201 0 -350 93 -350 311c0 272 155 414 423 414c74 0 128 -11 189 -35l-47 -114c-58 17 -96 21 -157 21c-159 0 -249 -108 -249 -263c0 -139 93 -204 223 -204c57 0 106 3 161 18l25 -118
c-73 -23 -139 -30 -218 -30z" />
    <glyph glyph-name="Cdotaccent" unicode="&#x10a;" horiz-adv-x="650" 
d="M429 759l-96 107l118 106l96 -106zM387 -10c-201 0 -350 93 -350 311c0 272 155 414 423 414c74 0 128 -11 189 -35l-47 -114c-58 17 -96 21 -157 21c-159 0 -249 -108 -249 -263c0 -139 93 -204 223 -204c57 0 106 3 161 18l25 -118c-73 -23 -139 -30 -218 -30z" />
    <glyph glyph-name="Dcaron" unicode="&#x10e;" horiz-adv-x="760" 
d="M360 745l-178 81l49 103l139 -56l151 52l37 -100zM45 0l74 707h242c200 0 373 -81 373 -307c0 -277 -178 -400 -441 -400h-248zM211 122h105c176 0 263 89 263 266c0 149 -98 197 -234 197h-85z" />
    <glyph glyph-name="Dcroat" unicode="&#x110;" horiz-adv-x="796" 
d="M32 292l13 122h79l31 293h242c200 0 373 -81 373 -307c0 -277 -178 -400 -441 -400h-248l30 292h-79zM247 122h105c176 0 263 89 263 266c0 149 -98 197 -234 197h-85l-18 -171h146l-13 -122h-146z" />
    <glyph glyph-name="uni1E0E" unicode="&#x1e0e;" horiz-adv-x="761" 
d="M46 0l74 707h242c200 0 373 -81 373 -307c0 -277 -178 -400 -441 -400h-248zM212 122h105c176 0 263 89 263 266c0 149 -98 197 -234 197h-85zM139 -204l13 122h299l-14 -122h-298z" />
    <glyph glyph-name="uni1E0C" unicode="&#x1e0c;" horiz-adv-x="761" 
d="M46 0l74 707h242c200 0 373 -81 373 -307c0 -277 -178 -400 -441 -400h-248zM212 122h105c176 0 263 89 263 266c0 149 -98 197 -234 197h-85zM303 -253l-92 102l113 101l92 -101z" />
    <glyph glyph-name="uni1E0A" unicode="&#x1e0a;" horiz-adv-x="760" 
d="M45 0l74 707h242c200 0 373 -81 373 -307c0 -277 -178 -400 -441 -400h-248zM211 122h105c176 0 263 89 263 266c0 149 -98 197 -234 197h-85zM392 759l-96 107l118 106l96 -106z" />
    <glyph glyph-name="Eacute" unicode="&#xc9;" horiz-adv-x="588" 
d="M269 737l-26 96l261 89l34 -121zM45 0l74 707h452l-13 -121h-297l-18 -174h275l-12 -114h-275l-19 -177h321l-13 -121h-475z" />
    <glyph glyph-name="Ecircumflex" unicode="&#xca;" horiz-adv-x="588" 
d="M501 736l-140 55l-151 -51l-42 99l203 81l179 -81zM45 0l74 707h452l-13 -121h-297l-18 -174h275l-12 -114h-275l-19 -177h321l-13 -121h-475z" />
    <glyph glyph-name="Edieresis" unicode="&#xcb;" horiz-adv-x="588" 
d="M233 747l-78 89l97 88l78 -88zM471 747l-79 89l97 88l79 -88zM45 0l74 707h452l-13 -121h-297l-18 -174h275l-12 -114h-275l-19 -177h321l-13 -121h-475z" />
    <glyph glyph-name="Egrave" unicode="&#xc8;" horiz-adv-x="588" 
d="M445 735l-266 64l35 121l258 -89zM45 0l74 707h452l-13 -121h-297l-18 -174h275l-12 -114h-275l-19 -177h321l-13 -121h-475z" />
    <glyph glyph-name="Ebreve" unicode="&#x114;" horiz-adv-x="588" 
d="M45 0l74 707h452l-13 -121h-297l-18 -174h275l-12 -114h-275l-19 -177h321l-13 -121h-475zM364 765c-70 0 -133 40 -165 93l80 73c27 -33 54 -52 94 -52c48 0 84 23 112 51l63 -76c-29 -36 -95 -89 -184 -89z" />
    <glyph glyph-name="Ecaron" unicode="&#x11a;" horiz-adv-x="588" 
d="M345 745l-178 81l49 103l139 -56l151 52l37 -100zM45 0l74 707h452l-13 -121h-297l-18 -174h275l-12 -114h-275l-19 -177h321l-13 -121h-475z" />
    <glyph glyph-name="Edotaccent" unicode="&#x116;" horiz-adv-x="588" 
d="M353 759l-96 107l118 106l96 -106zM45 0l74 707h452l-13 -121h-297l-18 -174h275l-12 -114h-275l-19 -177h321l-13 -121h-475z" />
    <glyph glyph-name="Emacron" unicode="&#x112;" horiz-adv-x="588" 
d="M194 770l13 125h323l-14 -125h-322zM45 0l74 707h452l-13 -121h-297l-18 -174h275l-12 -114h-275l-19 -177h321l-13 -121h-475z" />
    <glyph glyph-name="Eogonek" unicode="&#x118;" horiz-adv-x="588" 
d="M411 -254c-94 0 -132 47 -132 121c0 44 43 101 90 133h-324l74 707h452l-13 -121h-297l-18 -174h275l-12 -114h-275l-19 -177h321l-14 -121c-48 -29 -109 -69 -109 -111c0 -22 18 -29 36 -29c20 0 49 2 69 8l15 -98c-31 -14 -59 -24 -119 -24z" />
    <glyph glyph-name="uni0228" unicode="&#x228;" horiz-adv-x="588" 
d="M46 0l74 707h452l-13 -121h-297l-18 -174h275l-12 -114h-275l-19 -177h321l-13 -121h-475zM209 -275l-42 90c29 17 76 38 80 71c2 20 -3 42 -7 63h119c9 -24 17 -51 14 -78c-8 -75 -96 -119 -164 -146z" />
    <glyph glyph-name="uni1EC0" unicode="&#x1ec0;" horiz-adv-x="588" 
d="M45 0l74 707h452l-13 -121h-297l-18 -174h275l-12 -114h-275l-19 -177h321l-13 -121h-475zM556 859l-175 121l79 98l164 -136zM484 741l-126 46l-140 -46l-44 98l191 79l175 -79z" />
    <glyph glyph-name="uni1EBE" unicode="&#x1ebe;" horiz-adv-x="588" 
d="M45 0l74 707h452l-13 -121h-297l-18 -174h275l-12 -114h-275l-19 -177h321l-13 -121h-475zM522 872l-71 71l148 140l83 -90zM491 741l-126 46l-140 -46l-44 98l191 79l175 -79z" />
    <glyph glyph-name="uni1EC4" unicode="&#x1ec4;" horiz-adv-x="588" 
d="M45 0l74 707h452l-13 -121h-297l-18 -174h275l-12 -114h-275l-19 -177h321l-13 -121h-475zM487 741l-126 46l-140 -46l-44 98l191 79l175 -79zM429 925c-48 0 -83 31 -119 31c-19 0 -43 -2 -69 -24l-50 69c26 27 76 73 141 73c60 0 84 -31 117 -31c27 0 46 5 83 22
l43 -71c-27 -22 -73 -69 -146 -69z" />
    <glyph glyph-name="uni1EC2" unicode="&#x1ec2;" horiz-adv-x="588" 
d="M45 0l74 707h452l-13 -121h-297l-18 -174h275l-12 -114h-275l-19 -177h321l-13 -121h-475zM566 1016c0 -80 -56 -118 -80 -130l-66 65c16 9 33 22 33 39c0 15 -11 31 -30 31c-12 0 -25 -4 -40 -10l-19 86c19 10 45 22 87 22c30 0 58 -9 79 -26c22 -17 36 -43 36 -77z
M486 741l-126 46l-140 -46l-44 98l191 79l175 -79z" />
    <glyph glyph-name="uni1EC6" unicode="&#x1ec6;" horiz-adv-x="588" 
d="M46 0l74 707h452l-13 -121h-297l-18 -174h275l-12 -114h-275l-19 -177h321l-13 -121h-475zM255 -242l-92 102l113 101l92 -101zM496 736l-140 55l-151 -51l-42 99l203 81l179 -81z" />
    <glyph glyph-name="uni1EBA" unicode="&#x1eba;" horiz-adv-x="588" 
d="M45 0l74 707h452l-13 -121h-297l-18 -174h275l-12 -114h-275l-19 -177h321l-13 -121h-475zM461 898c0 -92 -66 -137 -126 -160l-55 80c23 10 60 28 60 60c0 19 -15 28 -34 28c-9 0 -22 -1 -35 -5l-4 97c15 6 48 13 74 13c66 0 120 -39 120 -113z" />
    <glyph glyph-name="uni1EB8" unicode="&#x1eb8;" horiz-adv-x="588" 
d="M46 0l74 707h452l-13 -121h-297l-18 -174h275l-12 -114h-275l-19 -177h321l-13 -121h-475zM262 -242l-92 102l113 101l92 -101z" />
    <glyph glyph-name="uni1EBC" unicode="&#x1ebc;" horiz-adv-x="588" 
d="M404 744c-47 0 -86 38 -119 38s-55 -10 -79 -28l-54 75c32 33 78 71 140 71c54 0 97 -38 126 -38c32 0 55 9 89 26l45 -78c-31 -31 -75 -66 -148 -66zM45 0l74 707h452l-13 -121h-297l-18 -174h275l-12 -114h-275l-19 -177h321l-13 -121h-475z" />
    <glyph glyph-name="uni0045030A" horiz-adv-x="588" 
d="M45 0l74 707h452l-13 -121h-297l-18 -174h275l-12 -114h-275l-19 -177h321l-13 -121h-475zM350 743c-61 0 -119 25 -119 94c0 81 63 132 142 132c61 0 117 -33 117 -100c0 -81 -62 -126 -140 -126zM357 805c29 0 54 19 54 51c0 28 -20 45 -47 45c-33 0 -54 -19 -54 -50
c0 -30 20 -46 47 -46z" />
    <glyph glyph-name="uni1E1E" unicode="&#x1e1e;" horiz-adv-x="577" 
d="M45 0l74 707h470l-13 -121h-315l-20 -192h293l-12 -114h-293l-30 -280h-154zM354 759l-96 107l118 106l96 -106z" />
    <glyph glyph-name="uni00460304" horiz-adv-x="577" 
d="M202 770l13 125h323l-14 -125h-322zM45 0l74 707h470l-13 -121h-315l-20 -192h293l-12 -114h-293l-30 -280h-154z" />
    <glyph glyph-name="Gbreve" unicode="&#x11e;" horiz-adv-x="687" 
d="M384 -10c-199 0 -347 91 -347 307c0 277 160 418 430 418c75 0 133 -10 200 -39l-53 -113c-55 16 -103 24 -163 24c-163 0 -254 -101 -254 -263c0 -136 90 -204 219 -204c19 0 37 2 54 3l22 227h155l-32 -320c-78 -29 -145 -40 -231 -40zM460 755c-70 0 -133 40 -165 93
l80 73c27 -33 54 -52 94 -52c48 0 84 23 112 51l63 -76c-29 -36 -95 -89 -184 -89z" />
    <glyph glyph-name="Gcommaaccent" unicode="&#x122;" horiz-adv-x="687" 
d="M260 -267l33 209h144l-63 -209h-114zM384 -10c-199 0 -347 91 -347 307c0 277 160 418 430 418c75 0 133 -10 200 -39l-53 -113c-55 16 -103 24 -163 24c-163 0 -254 -101 -254 -263c0 -136 90 -204 219 -204c19 0 37 2 54 3l22 227h155l-32 -320
c-78 -29 -145 -40 -231 -40z" />
    <glyph glyph-name="Gcircumflex" unicode="&#x11c;" horiz-adv-x="687" 
d="M614 736l-140 55l-151 -51l-42 99l203 81l179 -81zM384 -10c-199 0 -347 91 -347 307c0 277 160 418 430 418c75 0 133 -10 200 -39l-53 -113c-55 16 -103 24 -163 24c-163 0 -254 -101 -254 -263c0 -136 90 -204 219 -204c19 0 37 2 54 3l22 227h155l-32 -320
c-78 -29 -145 -40 -231 -40z" />
    <glyph glyph-name="Gdotaccent" unicode="&#x120;" horiz-adv-x="687" 
d="M458 759l-96 107l118 106l96 -106zM384 -10c-199 0 -347 91 -347 307c0 277 160 418 430 418c75 0 133 -10 200 -39l-53 -113c-55 16 -103 24 -163 24c-163 0 -254 -101 -254 -263c0 -136 90 -204 219 -204c19 0 37 2 54 3l22 227h155l-32 -320
c-78 -29 -145 -40 -231 -40z" />
    <glyph glyph-name="uni01E6" unicode="&#x1e6;" horiz-adv-x="687" 
d="M384 -10c-199 0 -347 91 -347 307c0 277 160 418 430 418c75 0 133 -10 200 -39l-53 -113c-55 16 -103 24 -163 24c-163 0 -254 -101 -254 -263c0 -136 90 -204 219 -204c19 0 37 2 54 3l22 227h155l-32 -320c-78 -29 -145 -40 -231 -40zM425 745l-178 81l49 103l139 -56
l151 52l37 -100z" />
    <glyph glyph-name="uni01F4" unicode="&#x1f4;" horiz-adv-x="687" 
d="M384 -10c-199 0 -347 91 -347 307c0 277 160 418 430 418c75 0 133 -10 200 -39l-53 -113c-55 16 -103 24 -163 24c-163 0 -254 -101 -254 -263c0 -136 90 -204 219 -204c19 0 37 2 54 3l22 227h155l-32 -320c-78 -29 -145 -40 -231 -40zM357 737l-26 96l261 89l34 -121z
" />
    <glyph glyph-name="uni1E20" unicode="&#x1e20;" horiz-adv-x="687" 
d="M384 -10c-199 0 -347 91 -347 307c0 277 160 418 430 418c75 0 133 -10 200 -39l-53 -113c-55 16 -103 24 -163 24c-163 0 -254 -101 -254 -263c0 -136 90 -204 219 -204c19 0 37 2 54 3l22 227h155l-32 -320c-78 -29 -145 -40 -231 -40zM280 770l13 125h323l-14 -125
h-322z" />
    <glyph glyph-name="Hbar" unicode="&#x126;" horiz-adv-x="814" 
d="M54 500l12 104h61l11 103h154l-11 -103h314l11 103h155l-11 -103h63l-13 -104h-61l-52 -500h-155l32 296h-314l-32 -296h-154l52 500h-62zM262 414h313l9 86h-313z" />
    <glyph glyph-name="Hcircumflex" unicode="&#x124;" horiz-adv-x="777" 
d="M582 736l-140 55l-151 -51l-42 99l203 81l179 -81zM45 0l74 707h154l-30 -293h313l31 293h155l-74 -707h-155l32 296h-314l-32 -296h-154z" />
    <glyph glyph-name="uni021E" unicode="&#x21e;" horiz-adv-x="777" 
d="M45 0l74 707h154l-30 -293h313l31 293h155l-74 -707h-155l32 296h-314l-32 -296h-154zM432 745l-178 81l49 103l139 -56l151 52l37 -100z" />
    <glyph glyph-name="uni1E24" unicode="&#x1e24;" horiz-adv-x="778" 
d="M46 0l74 707h154l-30 -293h313l31 293h155l-74 -707h-155l32 296h-314l-32 -296h-154zM334 -253l-92 102l113 101l92 -101z" />
    <glyph glyph-name="uni00480331" horiz-adv-x="778" 
d="M46 0l74 707h154l-30 -293h313l31 293h155l-74 -707h-155l32 296h-314l-32 -296h-154zM186 -204l13 122h299l-14 -122h-298z" />
    <glyph glyph-name="uni1E2A" unicode="&#x1e2a;" horiz-adv-x="778" 
d="M46 0l74 707h154l-30 -293h313l31 293h155l-74 -707h-155l32 296h-314l-32 -296h-154zM330 -219c-70 0 -133 40 -165 93l80 73c27 -33 54 -52 94 -52c48 0 84 23 112 51l63 -76c-29 -36 -95 -89 -184 -89z" />
    <glyph glyph-name="uni1E22" unicode="&#x1e22;" horiz-adv-x="777" 
d="M45 0l74 707h154l-30 -293h313l31 293h155l-74 -707h-155l32 296h-314l-32 -296h-154zM437 759l-96 107l118 106l96 -106z" />
    <glyph glyph-name="Iacute" unicode="&#xcd;" horiz-adv-x="308" 
d="M119 737l-26 96l261 89l34 -121zM45 0l74 707h154l-74 -707h-154z" />
    <glyph glyph-name="Icircumflex" unicode="&#xce;" horiz-adv-x="308" 
d="M351 736l-140 55l-151 -51l-42 99l203 81l179 -81zM45 0l74 707h154l-74 -707h-154z" />
    <glyph glyph-name="Idieresis" unicode="&#xcf;" horiz-adv-x="308" 
d="M84 747l-78 89l97 88l78 -88zM322 747l-79 89l97 88l79 -88zM45 0l74 707h154l-74 -707h-154z" />
    <glyph glyph-name="Igrave" unicode="&#xcc;" horiz-adv-x="308" 
d="M278 735l-266 64l35 121l258 -89zM45 0l74 707h154l-74 -707h-154z" />
    <glyph glyph-name="Ibreve" unicode="&#x12c;" horiz-adv-x="308" 
d="M45 0l74 707h154l-74 -707h-154zM208 755c-70 0 -133 40 -165 93l80 73c27 -33 54 -52 94 -52c48 0 84 23 112 51l63 -76c-29 -36 -95 -89 -184 -89z" />
    <glyph glyph-name="Idotaccent" unicode="&#x130;" horiz-adv-x="308" 
d="M203 759l-96 107l118 106l96 -106zM45 0l74 707h154l-74 -707h-154z" />
    <glyph glyph-name="Imacron" unicode="&#x12a;" horiz-adv-x="308" 
d="M46 770l13 125h323l-14 -125h-322zM45 0l74 707h154l-74 -707h-154z" />
    <glyph glyph-name="Iogonek" unicode="&#x12e;" horiz-adv-x="307" 
d="M88 -254c-94 0 -132 50 -132 109c0 55 36 111 90 145l72 707h154l-75 -707c-48 -29 -105 -73 -109 -114c-2 -22 17 -26 35 -26c20 0 49 2 69 8l15 -98c-31 -14 -59 -24 -119 -24z" />
    <glyph glyph-name="uni01CF" unicode="&#x1cf;" horiz-adv-x="308" 
d="M45 0l74 707h154l-74 -707h-154zM197 745l-178 81l49 103l139 -56l151 52l37 -100z" />
    <glyph glyph-name="uni1EC8" unicode="&#x1ec8;" horiz-adv-x="308" 
d="M45 0l74 707h154l-74 -707h-154zM311 898c0 -92 -66 -137 -126 -160l-55 80c23 10 60 28 60 60c0 19 -15 28 -34 28c-9 0 -22 -1 -35 -5l-4 97c15 6 48 13 74 13c66 0 120 -39 120 -113z" />
    <glyph glyph-name="uni1ECA" unicode="&#x1eca;" horiz-adv-x="309" 
d="M46 0l74 707h154l-74 -707h-154zM91 -242l-92 102l113 101l92 -101z" />
    <glyph glyph-name="Itilde" unicode="&#x128;" horiz-adv-x="308" 
d="M260 744c-47 0 -86 38 -119 38s-55 -10 -79 -28l-54 75c32 33 78 71 140 71c54 0 97 -38 126 -38c32 0 55 9 89 26l45 -78c-31 -31 -75 -66 -148 -66zM45 0l74 707h154l-74 -707h-154z" />
    <glyph glyph-name="uni004A0301" horiz-adv-x="311" 
d="M127 737l-26 96l261 89l34 -121zM-61 -196l-45 111c126 66 157 114 170 236l58 556h155l-58 -554c-15 -145 -52 -275 -280 -349z" />
    <glyph glyph-name="Jcircumflex" unicode="&#x134;" horiz-adv-x="311" 
d="M353 736l-140 55l-151 -51l-42 99l203 81l179 -81zM-61 -196l-45 111c126 66 157 114 170 236l58 556h155l-58 -554c-15 -145 -52 -275 -280 -349z" />
    <glyph glyph-name="Kcommaaccent" unicode="&#x136;" horiz-adv-x="680" 
d="M45 0l74 707h154l-32 -309l284 309h189l-312 -330l243 -349l-150 -68l-259 391l-37 -351h-154zM215 -267l33 209h144l-63 -209h-114z" />
    <glyph glyph-name="uni01E8" unicode="&#x1e8;" horiz-adv-x="680" 
d="M45 0l74 707h154l-32 -309l284 309h189l-312 -330l243 -349l-150 -68l-259 391l-37 -351h-154zM375 745l-178 81l49 103l139 -56l151 52l37 -100z" />
    <glyph glyph-name="uni1E34" unicode="&#x1e34;" horiz-adv-x="680" 
d="M45 0l74 707h154l-32 -309l284 309h189l-312 -330l243 -349l-150 -68l-259 391l-37 -351h-154zM135 -204l13 122h299l-14 -122h-298z" />
    <glyph glyph-name="uni1E32" unicode="&#x1e32;" horiz-adv-x="680" 
d="M45 0l74 707h154l-32 -309l284 309h189l-312 -330l243 -349l-150 -68l-259 391l-37 -351h-154zM283 -253l-92 102l113 101l92 -101z" />
    <glyph glyph-name="Lacute" unicode="&#x139;" horiz-adv-x="540" 
d="M124 737l-26 96l261 89l34 -121zM45 0l74 707h154l-61 -584h307l-13 -123h-461z" />
    <glyph glyph-name="Lcaron" unicode="&#x13d;" horiz-adv-x="540" 
d="M45 0l74 707h154l-61 -584h307l-13 -123h-461zM329 549l33 209h144l-63 -209h-114z" />
    <glyph glyph-name="Lcommaaccent" unicode="&#x13b;" horiz-adv-x="540" 
d="M179 -267l33 209h144l-63 -209h-114zM46 0l74 707h154l-61 -584h307l-13 -123h-461z" />
    <glyph glyph-name="Ldot" unicode="&#x13f;" horiz-adv-x="570" 
d="M45 0l74 707h154l-61 -584h307l-13 -123h-461zM436 281l-95 107l117 106l97 -106z" />
    <glyph glyph-name="Lslash" unicode="&#x141;" horiz-adv-x="565" 
d="M24 225l11 105l74 40l35 337h154l-26 -249l121 66l-11 -104l-121 -66l-24 -231h307l-13 -123h-461l28 265z" />
    <glyph glyph-name="uni1E3A" unicode="&#x1e3a;" horiz-adv-x="540" 
d="M46 0l74 707h154l-61 -584h307l-13 -123h-461zM102 -204l13 122h299l-14 -122h-298z" />
    <glyph glyph-name="uni1E36" unicode="&#x1e36;" horiz-adv-x="540" 
d="M46 0l74 707h154l-61 -584h307l-13 -123h-461zM247 -253l-92 102l113 101l92 -101z" />
    <glyph glyph-name="uni1E38" unicode="&#x1e38;" horiz-adv-x="540" 
d="M46 0l74 707h154l-61 -584h307l-13 -123h-461zM262 -253l-92 102l113 101l92 -101zM48 770l13 125h323l-14 -125h-322z" />
    <glyph glyph-name="uni1E42" unicode="&#x1e42;" horiz-adv-x="973" 
d="M-18 0l252 707h177l39 -580l241 580h175l39 -707h-149l-21 486l-203 -486h-205l-32 490l-162 -490h-151zM408 -253l-92 102l113 101l92 -101z" />
    <glyph glyph-name="uni004D0310" horiz-adv-x="972" 
d="M-18 0l252 707h177l39 -580l241 580h175l39 -707h-149l-21 486l-203 -486h-205l-32 490l-162 -490h-151zM560 912l-73 82l90 81l74 -81zM545 760c-70 0 -133 40 -165 93l80 73c27 -33 54 -52 94 -52c48 0 84 23 112 51l63 -76c-29 -36 -95 -89 -184 -89z" />
    <glyph glyph-name="uni1E40" unicode="&#x1e40;" horiz-adv-x="972" 
d="M-18 0l252 707h177l39 -580l241 580h175l39 -707h-149l-21 486l-203 -486h-205l-32 490l-162 -490h-151zM548 759l-96 107l118 106l96 -106z" />
    <glyph glyph-name="uni1E3E" unicode="&#x1e3e;" horiz-adv-x="972" 
d="M-18 0l252 707h177l39 -580l241 580h175l39 -707h-149l-21 486l-203 -486h-205l-32 490l-162 -490h-151zM478 737l-26 96l261 89l34 -121z" />
    <glyph glyph-name="Ntilde" unicode="&#xd1;" horiz-adv-x="774" 
d="M503 744c-47 0 -86 38 -119 38s-55 -10 -79 -28l-54 75c32 33 78 71 140 71c54 0 97 -38 126 -38c32 0 55 9 89 26l45 -78c-31 -31 -75 -66 -148 -66zM45 0l74 707h183l234 -513l49 513h154l-74 -707h-189l-227 500l-50 -500h-154z" />
    <glyph glyph-name="Nacute" unicode="&#x143;" horiz-adv-x="774" 
d="M338 737l-26 96l261 89l34 -121zM45 0l74 707h183l234 -513l49 513h154l-74 -707h-189l-227 500l-50 -500h-154z" />
    <glyph glyph-name="Ncaron" unicode="&#x147;" horiz-adv-x="774" 
d="M441 745l-178 81l49 103l139 -56l151 52l37 -100zM45 0l74 707h183l234 -513l49 513h154l-74 -707h-189l-227 500l-50 -500h-154z" />
    <glyph glyph-name="Ncommaaccent" unicode="&#x145;" horiz-adv-x="775" 
d="M262 -267l33 209h144l-63 -209h-114zM46 0l74 707h183l234 -513l49 513h154l-74 -707h-189l-227 500l-50 -500h-154z" />
    <glyph glyph-name="uni01F8" unicode="&#x1f8;" horiz-adv-x="774" 
d="M45 0l74 707h183l234 -513l49 513h154l-74 -707h-189l-227 500l-50 -500h-154zM541 735l-266 64l35 121l258 -89z" />
    <glyph glyph-name="uni1E48" unicode="&#x1e48;" horiz-adv-x="775" 
d="M46 0l74 707h183l234 -513l49 513h154l-74 -707h-189l-227 500l-50 -500h-154zM188 -204l13 122h299l-14 -122h-298z" />
    <glyph glyph-name="uni1E44" unicode="&#x1e44;" horiz-adv-x="774" 
d="M45 0l74 707h183l234 -513l49 513h154l-74 -707h-189l-227 500l-50 -500h-154zM422 759l-96 107l118 106l96 -106z" />
    <glyph glyph-name="uni004E0304" horiz-adv-x="774" 
d="M269 770l13 125h323l-14 -125h-322zM45 0l74 707h183l234 -513l49 513h154l-74 -707h-189l-227 500l-50 -500h-154z" />
    <glyph glyph-name="Eng" unicode="&#x14a;" horiz-adv-x="774" 
d="M432 -220c-38 0 -89 10 -122 24l39 117c17 -4 54 -13 84 -13c43 0 75 18 79 68l2 24h-38l-227 500l-50 -500h-154l74 707h183l234 -513l49 513h154l-78 -737c-10 -91 -55 -190 -229 -190z" />
    <glyph glyph-name="uni1E46" unicode="&#x1e46;" horiz-adv-x="775" 
d="M334 -253l-92 102l113 101l92 -101zM46 0l74 707h183l234 -513l49 513h154l-74 -707h-189l-227 500l-50 -500h-154z" />
    <glyph glyph-name="Ograve" unicode="&#xd2;" horiz-adv-x="813" 
d="M544 735l-266 64l35 121l258 -89zM365 -12c-202 0 -329 110 -329 309c0 264 162 421 423 421c202 0 328 -104 328 -306c0 -266 -156 -424 -422 -424zM381 111c171 0 247 125 247 284c0 123 -62 200 -190 200c-167 0 -245 -124 -245 -281c0 -122 60 -203 188 -203z" />
    <glyph glyph-name="Odieresis" unicode="&#xd6;" horiz-adv-x="813" 
d="M331 747l-78 89l97 88l78 -88zM569 747l-79 89l97 88l79 -88zM365 -12c-202 0 -329 110 -329 309c0 264 162 421 423 421c202 0 328 -104 328 -306c0 -266 -156 -424 -422 -424zM381 111c171 0 247 125 247 284c0 123 -62 200 -190 200c-167 0 -245 -124 -245 -281
c0 -122 60 -203 188 -203z" />
    <glyph glyph-name="Otilde" unicode="&#xd5;" horiz-adv-x="813" 
d="M517 744c-47 0 -86 38 -119 38s-55 -10 -79 -28l-54 75c32 33 78 71 140 71c54 0 97 -38 126 -38c32 0 55 9 89 26l45 -78c-31 -31 -75 -66 -148 -66zM365 -12c-202 0 -329 110 -329 309c0 264 162 421 423 421c202 0 328 -104 328 -306c0 -266 -156 -424 -422 -424z
M381 111c171 0 247 125 247 284c0 123 -62 200 -190 200c-167 0 -245 -124 -245 -281c0 -122 60 -203 188 -203z" />
    <glyph glyph-name="Obreve" unicode="&#x14e;" horiz-adv-x="813" 
d="M442 756c-70 0 -133 40 -165 93l80 73c27 -33 54 -52 94 -52c48 0 84 23 112 51l63 -76c-29 -36 -95 -89 -184 -89zM365 -12c-202 0 -329 110 -329 309c0 264 162 421 423 421c202 0 328 -104 328 -306c0 -266 -156 -424 -422 -424zM381 111c171 0 247 125 247 284
c0 123 -62 200 -190 200c-167 0 -245 -124 -245 -281c0 -122 60 -203 188 -203z" />
    <glyph glyph-name="Oacute" unicode="&#xd3;" horiz-adv-x="813" 
d="M354 737l-26 96l261 89l34 -121zM365 -12c-202 0 -329 110 -329 309c0 264 162 421 423 421c202 0 328 -104 328 -306c0 -266 -156 -424 -422 -424zM381 111c171 0 247 125 247 284c0 123 -62 200 -190 200c-167 0 -245 -124 -245 -281c0 -122 60 -203 188 -203z" />
    <glyph glyph-name="Ocircumflex" unicode="&#xd4;" horiz-adv-x="813" 
d="M598 736l-140 55l-151 -51l-42 99l203 81l179 -81zM365 -12c-202 0 -329 110 -329 309c0 264 162 421 423 421c202 0 328 -104 328 -306c0 -266 -156 -424 -422 -424zM381 111c171 0 247 125 247 284c0 123 -62 200 -190 200c-167 0 -245 -124 -245 -281
c0 -122 60 -203 188 -203z" />
    <glyph glyph-name="Ohungarumlaut" unicode="&#x150;" horiz-adv-x="813" 
d="M326 732l-72 77l192 193l89 -98zM556 732l-29 101l257 89l36 -127zM365 -12c-202 0 -329 110 -329 309c0 264 162 421 423 421c202 0 328 -104 328 -306c0 -266 -156 -424 -422 -424zM381 111c171 0 247 125 247 284c0 123 -62 200 -190 200c-167 0 -245 -124 -245 -281
c0 -122 60 -203 188 -203z" />
    <glyph glyph-name="Omacron" unicode="&#x14c;" horiz-adv-x="813" 
d="M295 770l13 125h323l-14 -125h-322zM365 -12c-202 0 -329 110 -329 309c0 264 162 421 423 421c202 0 328 -104 328 -306c0 -266 -156 -424 -422 -424zM381 111c171 0 247 125 247 284c0 123 -62 200 -190 200c-167 0 -245 -124 -245 -281c0 -122 60 -203 188 -203z" />
    <glyph glyph-name="Oslash" unicode="&#xd8;" horiz-adv-x="842" 
d="M83 -43l-59 66l83 79c-38 50 -58 115 -58 195c0 265 162 421 424 421c88 0 162 -20 218 -60l92 88l57 -67l-88 -84c31 -48 48 -109 48 -183c0 -267 -156 -424 -422 -424c-83 0 -153 18 -206 54zM224 213l357 342c-31 26 -74 40 -130 40c-168 0 -245 -125 -245 -281
c0 -38 6 -72 18 -101zM394 111c171 0 248 125 248 284c0 31 -5 59 -13 83l-350 -335c29 -21 67 -32 115 -32z" />
    <glyph glyph-name="Oslashacute" unicode="&#x1fe;" horiz-adv-x="841" 
d="M362 737l-26 96l261 89l34 -121zM83 -43l-59 66l83 79c-38 50 -58 115 -58 195c0 265 162 421 424 421c88 0 162 -20 218 -60l92 88l57 -67l-88 -84c31 -48 48 -109 48 -183c0 -267 -156 -424 -422 -424c-83 0 -153 18 -206 54zM224 213l357 342c-31 26 -74 40 -130 40
c-168 0 -245 -125 -245 -281c0 -38 6 -72 18 -101zM394 111c171 0 248 125 248 284c0 31 -5 59 -13 83l-350 -335c29 -21 67 -32 115 -32z" />
    <glyph glyph-name="uni01D1" unicode="&#x1d1;" horiz-adv-x="813" 
d="M365 -12c-202 0 -329 110 -329 309c0 264 162 421 423 421c202 0 328 -104 328 -306c0 -266 -156 -424 -422 -424zM381 111c171 0 247 125 247 284c0 123 -62 200 -190 200c-167 0 -245 -124 -245 -281c0 -122 60 -203 188 -203zM448 745l-178 81l49 103l139 -56l151 52
l37 -100z" />
    <glyph glyph-name="uni01EA" unicode="&#x1ea;" horiz-adv-x="815" 
d="M504 -132l15 -95c-32 -13 -73 -25 -111 -25c-73 0 -140 30 -140 113c0 48 30 92 70 128c-186 10 -301 118 -301 308c0 264 162 421 423 421c202 0 328 -104 328 -306c0 -205 -93 -346 -257 -400c-52 -27 -131 -81 -131 -126c0 -22 18 -33 39 -33c20 0 45 6 65 15z
M382 111c171 0 247 125 247 284c0 123 -62 200 -190 200c-167 0 -245 -124 -245 -281c0 -122 60 -203 188 -203z" />
    <glyph glyph-name="uni01EC" unicode="&#x1ec;" horiz-adv-x="815" 
d="M504 -132l15 -95c-32 -13 -73 -25 -111 -25c-73 0 -140 30 -140 113c0 48 30 92 70 128c-186 10 -301 118 -301 308c0 264 162 421 423 421c202 0 328 -104 328 -306c0 -205 -93 -346 -257 -400c-52 -27 -131 -81 -131 -126c0 -22 18 -33 39 -33c20 0 45 6 65 15z
M382 111c171 0 247 125 247 284c0 123 -62 200 -190 200c-167 0 -245 -124 -245 -281c0 -122 60 -203 188 -203zM303 770l13 125h323l-14 -125h-322z" />
    <glyph glyph-name="uni022E" unicode="&#x22e;" horiz-adv-x="813" 
d="M365 -12c-202 0 -329 110 -329 309c0 264 162 421 423 421c202 0 328 -104 328 -306c0 -266 -156 -424 -422 -424zM381 111c171 0 247 125 247 284c0 123 -62 200 -190 200c-167 0 -245 -124 -245 -281c0 -122 60 -203 188 -203zM447 759l-96 107l118 106l96 -106z" />
    <glyph glyph-name="Ohorn" unicode="&#x1a0;" horiz-adv-x="828" 
d="M662 798h140c4 -12 5 -30 5 -46c0 -68 -28 -116 -75 -149c35 -48 55 -112 55 -191c0 -266 -156 -424 -422 -424c-202 0 -329 110 -329 309c0 264 162 421 423 421c64 0 121 -11 168 -32c24 16 38 42 38 79c0 11 -1 22 -3 33zM381 111c171 0 247 125 247 284
c0 123 -62 200 -190 200c-167 0 -245 -124 -245 -281c0 -122 60 -203 188 -203z" />
    <glyph glyph-name="uni1ED2" unicode="&#x1ed2;" horiz-adv-x="813" 
d="M365 -12c-202 0 -329 110 -329 309c0 264 162 421 423 421c202 0 328 -104 328 -306c0 -266 -156 -424 -422 -424zM381 111c171 0 247 125 247 284c0 123 -62 200 -190 200c-167 0 -245 -124 -245 -281c0 -122 60 -203 188 -203zM661 859l-175 121l79 98l164 -136z
M589 741l-126 46l-140 -46l-44 98l191 79l175 -79z" />
    <glyph glyph-name="uni1ED0" unicode="&#x1ed0;" horiz-adv-x="813" 
d="M365 -12c-202 0 -329 110 -329 309c0 264 162 421 423 421c202 0 328 -104 328 -306c0 -266 -156 -424 -422 -424zM381 111c171 0 247 125 247 284c0 123 -62 200 -190 200c-167 0 -245 -124 -245 -281c0 -122 60 -203 188 -203zM620 872l-71 71l148 140l83 -90zM589 741
l-126 46l-140 -46l-44 98l191 79l175 -79z" />
    <glyph glyph-name="uni1ED6" unicode="&#x1ed6;" horiz-adv-x="813" 
d="M365 -12c-202 0 -329 110 -329 309c0 264 162 421 423 421c202 0 328 -104 328 -306c0 -266 -156 -424 -422 -424zM381 111c171 0 247 125 247 284c0 123 -62 200 -190 200c-167 0 -245 -124 -245 -281c0 -122 60 -203 188 -203zM588 741l-126 46l-140 -46l-44 98l191 79
l175 -79zM530 925c-48 0 -83 31 -119 31c-19 0 -43 -2 -69 -24l-50 69c26 27 76 73 141 73c60 0 84 -31 117 -31c27 0 46 5 83 22l43 -71c-27 -22 -73 -69 -146 -69z" />
    <glyph glyph-name="uni1ED4" unicode="&#x1ed4;" horiz-adv-x="813" 
d="M365 -12c-202 0 -329 110 -329 309c0 264 162 421 423 421c202 0 328 -104 328 -306c0 -266 -156 -424 -422 -424zM381 111c171 0 247 125 247 284c0 123 -62 200 -190 200c-167 0 -245 -124 -245 -281c0 -122 60 -203 188 -203zM669 1016c0 -80 -56 -118 -80 -130
l-66 65c16 9 33 22 33 39c0 15 -11 31 -30 31c-12 0 -25 -4 -40 -10l-19 86c19 10 45 22 87 22c30 0 58 -9 79 -26c22 -17 36 -43 36 -77zM589 741l-126 46l-140 -46l-44 98l191 79l175 -79z" />
    <glyph glyph-name="uni1ED8" unicode="&#x1ed8;" horiz-adv-x="813" 
d="M365 -12c-202 0 -329 110 -329 309c0 264 162 421 423 421c202 0 328 -104 328 -306c0 -266 -156 -424 -422 -424zM381 111c171 0 247 125 247 284c0 123 -62 200 -190 200c-167 0 -245 -124 -245 -281c0 -122 60 -203 188 -203zM342 -242l-92 102l113 101l92 -101z
M606 736l-140 55l-151 -51l-42 99l203 81l179 -81z" />
    <glyph glyph-name="uni1ECE" unicode="&#x1ece;" horiz-adv-x="813" 
d="M365 -12c-202 0 -329 110 -329 309c0 264 162 421 423 421c202 0 328 -104 328 -306c0 -266 -156 -424 -422 -424zM381 111c171 0 247 125 247 284c0 123 -62 200 -190 200c-167 0 -245 -124 -245 -281c0 -122 60 -203 188 -203zM570 898c0 -92 -66 -137 -126 -160
l-55 80c23 10 60 28 60 60c0 19 -15 28 -34 28c-9 0 -22 -1 -35 -5l-4 97c15 6 48 13 74 13c66 0 120 -39 120 -113z" />
    <glyph glyph-name="uni1ECC" unicode="&#x1ecc;" horiz-adv-x="813" 
d="M365 -12c-202 0 -329 110 -329 309c0 264 162 421 423 421c202 0 328 -104 328 -306c0 -266 -156 -424 -422 -424zM381 111c171 0 247 125 247 284c0 123 -62 200 -190 200c-167 0 -245 -124 -245 -281c0 -122 60 -203 188 -203zM337 -242l-92 102l113 101l92 -101z" />
    <glyph glyph-name="uni1EDC" unicode="&#x1edc;" horiz-adv-x="828" 
d="M662 798h140c4 -12 5 -30 5 -46c0 -68 -28 -116 -75 -149c35 -48 55 -112 55 -191c0 -266 -156 -424 -422 -424c-202 0 -329 110 -329 309c0 264 162 421 423 421c64 0 121 -11 168 -32c24 16 38 42 38 79c0 11 -1 22 -3 33zM381 111c171 0 247 125 247 284
c0 123 -62 200 -190 200c-167 0 -245 -124 -245 -281c0 -122 60 -203 188 -203zM524 735l-266 64l35 121l258 -89z" />
    <glyph glyph-name="uni1EDA" unicode="&#x1eda;" horiz-adv-x="828" 
d="M662 798h140c4 -12 5 -30 5 -46c0 -68 -28 -116 -75 -149c35 -48 55 -112 55 -191c0 -266 -156 -424 -422 -424c-202 0 -329 110 -329 309c0 264 162 421 423 421c64 0 121 -11 168 -32c24 16 38 42 38 79c0 11 -1 22 -3 33zM381 111c171 0 247 125 247 284
c0 123 -62 200 -190 200c-167 0 -245 -124 -245 -281c0 -122 60 -203 188 -203zM360 737l-26 96l261 89l34 -121z" />
    <glyph glyph-name="uni1EE0" unicode="&#x1ee0;" horiz-adv-x="828" 
d="M662 798h140c4 -12 5 -30 5 -46c0 -68 -28 -116 -75 -149c35 -48 55 -112 55 -191c0 -266 -156 -424 -422 -424c-202 0 -329 110 -329 309c0 264 162 421 423 421c64 0 121 -11 168 -32c24 16 38 42 38 79c0 11 -1 22 -3 33zM381 111c171 0 247 125 247 284
c0 123 -62 200 -190 200c-167 0 -245 -124 -245 -281c0 -122 60 -203 188 -203zM505 744c-47 0 -86 38 -119 38s-55 -10 -79 -28l-54 75c32 33 78 71 140 71c54 0 97 -38 126 -38c32 0 55 9 89 26l45 -78c-31 -31 -75 -66 -148 -66z" />
    <glyph glyph-name="uni1EDE" unicode="&#x1ede;" horiz-adv-x="828" 
d="M662 798h140c4 -12 5 -30 5 -46c0 -68 -28 -116 -75 -149c35 -48 55 -112 55 -191c0 -266 -156 -424 -422 -424c-202 0 -329 110 -329 309c0 264 162 421 423 421c64 0 121 -11 168 -32c24 16 38 42 38 79c0 11 -1 22 -3 33zM381 111c171 0 247 125 247 284
c0 123 -62 200 -190 200c-167 0 -245 -124 -245 -281c0 -122 60 -203 188 -203zM566 898c0 -92 -66 -137 -126 -160l-55 80c23 10 60 28 60 60c0 19 -15 28 -34 28c-9 0 -22 -1 -35 -5l-4 97c15 6 48 13 74 13c66 0 120 -39 120 -113z" />
    <glyph glyph-name="uni1EE2" unicode="&#x1ee2;" horiz-adv-x="828" 
d="M662 798h140c4 -12 5 -30 5 -46c0 -68 -28 -116 -75 -149c35 -48 55 -112 55 -191c0 -266 -156 -424 -422 -424c-202 0 -329 110 -329 309c0 264 162 421 423 421c64 0 121 -11 168 -32c24 16 38 42 38 79c0 11 -1 22 -3 33zM381 111c171 0 247 125 247 284
c0 123 -62 200 -190 200c-167 0 -245 -124 -245 -281c0 -122 60 -203 188 -203zM342 -242l-92 102l113 101l92 -101z" />
    <glyph glyph-name="uni1E56" unicode="&#x1e56;" horiz-adv-x="625" 
d="M45 0l74 707h267c134 0 242 -70 242 -214c0 -211 -194 -284 -374 -284h-32l-22 -209h-155zM262 586l-27 -256c13 0 28 0 38 1c102 5 194 25 194 143c0 76 -45 112 -115 112h-90zM343 759l-96 107l118 106l96 -106z" />
    <glyph glyph-name="uni00500304" horiz-adv-x="625" 
d="M45 0l74 707h267c134 0 242 -70 242 -214c0 -211 -194 -284 -374 -284h-32l-22 -209h-155zM262 586l-27 -256c13 0 28 0 38 1c102 5 194 25 194 143c0 76 -45 112 -115 112h-90zM218 770l13 125h323l-14 -125h-322z" />
    <glyph glyph-name="Racute" unicode="&#x154;" horiz-adv-x="688" 
d="M524 -39l-195 306c-17 -2 -33 -2 -50 -2h-51l-28 -265h-155l74 707h265c128 0 242 -54 242 -191c0 -99 -47 -170 -136 -213l177 -270zM240 375h64c94 0 162 27 162 130c0 70 -54 80 -116 80h-88zM253 737l-26 96l261 89l34 -121z" />
    <glyph glyph-name="Rcaron" unicode="&#x158;" horiz-adv-x="688" 
d="M524 -39l-195 306c-17 -2 -33 -2 -50 -2h-51l-28 -265h-155l74 707h265c128 0 242 -54 242 -191c0 -99 -47 -170 -136 -213l177 -270zM351 745l-178 81l49 103l139 -56l151 52l37 -100zM240 375h64c94 0 162 27 162 130c0 70 -54 80 -116 80h-88z" />
    <glyph glyph-name="uni00520300" horiz-adv-x="688" 
d="M524 -39l-195 306c-17 -2 -33 -2 -50 -2h-51l-28 -265h-155l74 707h265c128 0 242 -54 242 -191c0 -99 -47 -170 -136 -213l177 -270zM240 375h64c94 0 162 27 162 130c0 70 -54 80 -116 80h-88zM417 735l-266 64l35 121l258 -89z" />
    <glyph glyph-name="Rcommaaccent" unicode="&#x156;" horiz-adv-x="688" 
d="M524 -39l-195 306c-17 -2 -33 -2 -50 -2h-51l-28 -265h-155l74 707h265c128 0 242 -54 242 -191c0 -99 -47 -170 -136 -213l177 -270zM240 375h64c94 0 162 27 162 130c0 70 -54 80 -116 80h-88zM233 -267l33 209h144l-63 -209h-114z" />
    <glyph glyph-name="uni1E5E" unicode="&#x1e5e;" horiz-adv-x="688" 
d="M524 -39l-195 306c-17 -2 -33 -2 -50 -2h-51l-28 -265h-155l74 707h265c128 0 242 -54 242 -191c0 -99 -47 -170 -136 -213l177 -270zM240 375h64c94 0 162 27 162 130c0 70 -54 80 -116 80h-88zM145 -204l13 122h299l-14 -122h-298z" />
    <glyph glyph-name="uni1E5A" unicode="&#x1e5a;" horiz-adv-x="688" 
d="M524 -39l-195 306c-17 -2 -33 -2 -50 -2h-51l-28 -265h-155l74 707h265c128 0 242 -54 242 -191c0 -99 -47 -170 -136 -213l177 -270zM240 375h64c94 0 162 27 162 130c0 70 -54 80 -116 80h-88zM304 -253l-92 102l113 101l92 -101z" />
    <glyph glyph-name="uni1E5C" unicode="&#x1e5c;" horiz-adv-x="688" 
d="M524 -39l-195 306c-17 -2 -33 -2 -50 -2h-51l-28 -265h-155l74 707h265c128 0 242 -54 242 -191c0 -99 -47 -170 -136 -213l177 -270zM240 375h64c94 0 162 27 162 130c0 70 -54 80 -116 80h-88zM188 770l13 125h323l-14 -125h-322zM303 -253l-92 102l113 101l92 -101z
" />
    <glyph glyph-name="uni00520325" horiz-adv-x="688" 
d="M524 -39l-195 306c-17 -2 -33 -2 -50 -2h-51l-28 -265h-155l74 707h265c128 0 242 -54 242 -191c0 -99 -47 -170 -136 -213l177 -270zM332 -285c-68 0 -132 28 -132 105c0 90 70 147 157 147c68 0 130 -37 130 -111c0 -91 -69 -141 -155 -141zM240 375h64
c94 0 162 27 162 130c0 70 -54 80 -116 80h-88zM340 -211c30 0 55 19 55 52c0 29 -20 46 -48 46c-34 0 -55 -19 -55 -52c0 -31 20 -46 48 -46z" />
    <glyph glyph-name="uni005203250304" horiz-adv-x="688" 
d="M524 -39l-195 306c-17 -2 -33 -2 -50 -2h-51l-28 -265h-155l74 707h265c128 0 242 -54 242 -191c0 -99 -47 -170 -136 -213l177 -270zM318 -285c-68 0 -132 28 -132 105c0 90 70 147 157 147c68 0 130 -37 130 -111c0 -91 -69 -141 -155 -141zM240 375h64
c94 0 162 27 162 130c0 70 -54 80 -116 80h-88zM175 770l13 125h323l-14 -125h-322zM326 -211c30 0 55 19 55 52c0 29 -20 46 -48 46c-34 0 -55 -19 -55 -52c0 -31 20 -46 48 -46z" />
    <glyph glyph-name="uni1E58" unicode="&#x1e58;" horiz-adv-x="688" 
d="M524 -39l-195 306c-17 -2 -33 -2 -50 -2h-51l-28 -265h-155l74 707h265c128 0 242 -54 242 -191c0 -99 -47 -170 -136 -213l177 -270zM240 375h64c94 0 162 27 162 130c0 70 -54 80 -116 80h-88zM352 759l-96 107l118 106l96 -106z" />
    <glyph glyph-name="Sacute" unicode="&#x15a;" horiz-adv-x="566" 
d="M230 737l-26 96l261 89l34 -121zM222 -13c-77 0 -160 18 -227 51l54 117c64 -23 116 -38 185 -38c56 0 139 14 139 85c0 110 -304 96 -304 305c0 148 130 211 262 211c84 0 147 -14 218 -47l-56 -110c-52 20 -106 30 -163 30c-45 0 -108 -10 -108 -66
c0 -95 309 -105 309 -303c0 -174 -163 -235 -309 -235z" />
    <glyph glyph-name="Scedilla" unicode="&#x15e;" horiz-adv-x="566" 
d="M149 -275l-42 90c29 17 76 38 80 71c2 20 -3 42 -7 63h119c9 -24 17 -51 14 -78c-8 -75 -96 -119 -164 -146zM222 -13c-77 0 -160 18 -227 51l54 117c64 -23 116 -38 185 -38c56 0 139 14 139 85c0 110 -304 96 -304 305c0 148 130 211 262 211c84 0 147 -14 218 -47
l-56 -110c-52 20 -106 30 -163 30c-45 0 -108 -10 -108 -66c0 -95 309 -105 309 -303c0 -174 -163 -235 -309 -235z" />
    <glyph glyph-name="Scaron" unicode="&#x160;" horiz-adv-x="566" 
d="M325 745l-178 81l49 103l139 -56l151 52l37 -100zM222 -13c-77 0 -160 18 -227 51l54 117c64 -23 116 -38 185 -38c56 0 139 14 139 85c0 110 -304 96 -304 305c0 148 130 211 262 211c84 0 147 -14 218 -47l-56 -110c-52 20 -106 30 -163 30c-45 0 -108 -10 -108 -66
c0 -95 309 -105 309 -303c0 -174 -163 -235 -309 -235z" />
    <glyph glyph-name="Scircumflex" unicode="&#x15c;" horiz-adv-x="566" 
d="M492 736l-140 55l-151 -51l-42 99l203 81l179 -81zM222 -13c-77 0 -160 18 -227 51l54 117c64 -23 116 -38 185 -38c56 0 139 14 139 85c0 110 -304 96 -304 305c0 148 130 211 262 211c84 0 147 -14 218 -47l-56 -110c-52 20 -106 30 -163 30c-45 0 -108 -10 -108 -66
c0 -95 309 -105 309 -303c0 -174 -163 -235 -309 -235z" />
    <glyph glyph-name="Scommaaccent" unicode="&#x218;" horiz-adv-x="566" 
d="M127 -267l33 209h144l-63 -209h-114zM222 -13c-77 0 -160 18 -227 51l54 117c64 -23 116 -38 185 -38c56 0 139 14 139 85c0 110 -304 96 -304 305c0 148 130 211 262 211c84 0 147 -14 218 -47l-56 -110c-52 20 -106 30 -163 30c-45 0 -108 -10 -108 -66
c0 -95 309 -105 309 -303c0 -174 -163 -235 -309 -235z" />
    <glyph glyph-name="uni00530331" horiz-adv-x="566" 
d="M222 -13c-77 0 -160 18 -227 51l54 117c64 -23 116 -38 185 -38c56 0 139 14 139 85c0 110 -304 96 -304 305c0 148 130 211 262 211c84 0 147 -14 218 -47l-56 -110c-52 20 -106 30 -163 30c-45 0 -108 -10 -108 -66c0 -95 309 -105 309 -303
c0 -174 -163 -235 -309 -235zM85 -204l13 122h299l-14 -122h-298z" />
    <glyph glyph-name="uni00530300" horiz-adv-x="566" 
d="M222 -13c-77 0 -160 18 -227 51l54 117c64 -23 116 -38 185 -38c56 0 139 14 139 85c0 110 -304 96 -304 305c0 148 130 211 262 211c84 0 147 -14 218 -47l-56 -110c-52 20 -106 30 -163 30c-45 0 -108 -10 -108 -66c0 -95 309 -105 309 -303
c0 -174 -163 -235 -309 -235zM429 735l-266 64l35 121l258 -89z" />
    <glyph glyph-name="uni1E60" unicode="&#x1e60;" horiz-adv-x="566" 
d="M222 -13c-77 0 -160 18 -227 51l54 117c64 -23 116 -38 185 -38c56 0 139 14 139 85c0 110 -304 96 -304 305c0 148 130 211 262 211c84 0 147 -14 218 -47l-56 -110c-52 20 -106 30 -163 30c-45 0 -108 -10 -108 -66c0 -95 309 -105 309 -303
c0 -174 -163 -235 -309 -235zM337 759l-96 107l118 106l96 -106z" />
    <glyph glyph-name="uni00530306" horiz-adv-x="566" 
d="M331 755c-70 0 -133 40 -165 93l80 73c27 -33 54 -52 94 -52c48 0 84 23 112 51l63 -76c-29 -36 -95 -89 -184 -89zM222 -13c-77 0 -160 18 -227 51l54 117c64 -23 116 -38 185 -38c56 0 139 14 139 85c0 110 -304 96 -304 305c0 148 130 211 262 211
c84 0 147 -14 218 -47l-56 -110c-52 20 -106 30 -163 30c-45 0 -108 -10 -108 -66c0 -95 309 -105 309 -303c0 -174 -163 -235 -309 -235z" />
    <glyph glyph-name="uni1E62" unicode="&#x1e62;" horiz-adv-x="566" 
d="M214 -253l-92 102l113 101l92 -101zM222 -13c-77 0 -160 18 -227 51l54 117c64 -23 116 -38 185 -38c56 0 139 14 139 85c0 110 -304 96 -304 305c0 148 130 211 262 211c84 0 147 -14 218 -47l-56 -110c-52 20 -106 30 -163 30c-45 0 -108 -10 -108 -66
c0 -95 309 -105 309 -303c0 -174 -163 -235 -309 -235z" />
    <glyph glyph-name="Tbar" unicode="&#x166;" horiz-adv-x="611" 
d="M100 293l15 104h121l20 188h-225l13 122h605l-13 -122h-225l-20 -188h126l-16 -104h-121l-30 -293h-155l30 293h-125z" />
    <glyph glyph-name="Tcaron" unicode="&#x164;" horiz-adv-x="611" 
d="M342 745l-178 81l49 103l139 -56l151 52l37 -100zM195 0l61 585h-225l13 122h605l-13 -122h-225l-61 -585h-155z" />
    <glyph glyph-name="Tcommaaccent" unicode="&#x162;" horiz-adv-x="613" 
d="M175 -267l33 209h144l-63 -209h-114zM196 0l61 585h-225l13 122h605l-13 -122h-225l-61 -585h-155z" />
    <glyph glyph-name="uni021A" unicode="&#x21a;" horiz-adv-x="613" 
d="M175 -267l33 209h144l-63 -209h-114zM196 0l61 585h-225l13 122h605l-13 -122h-225l-61 -585h-155z" />
    <glyph glyph-name="uni1E6E" unicode="&#x1e6e;" horiz-adv-x="613" 
d="M196 0l61 585h-225l13 122h605l-13 -122h-225l-61 -585h-155zM101 -204l13 122h299l-14 -122h-298z" />
    <glyph glyph-name="uni1E6C" unicode="&#x1e6c;" horiz-adv-x="613" 
d="M196 0l61 585h-225l13 122h605l-13 -122h-225l-61 -585h-155zM250 -253l-92 102l113 101l92 -101z" />
    <glyph glyph-name="uni00540308" horiz-adv-x="611" 
d="M195 0l61 585h-225l13 122h605l-13 -122h-225l-61 -585h-155zM230 747l-78 89l97 88l78 -88zM468 747l-79 89l97 88l79 -88z" />
    <glyph glyph-name="uni1E6A" unicode="&#x1e6a;" horiz-adv-x="611" 
d="M195 0l61 585h-225l13 122h605l-13 -122h-225l-61 -585h-155zM347 759l-96 107l118 106l96 -106z" />
    <glyph glyph-name="Uacute" unicode="&#xda;" horiz-adv-x="769" 
d="M348 737l-26 96l261 89l34 -121zM355 -13c-148 0 -293 56 -293 244c0 14 0 29 2 44l46 432h156l-44 -426c-1 -11 -2 -22 -2 -32c0 -93 50 -132 147 -132c107 0 169 52 183 186l42 404h152l-43 -407c-25 -244 -194 -313 -346 -313z" />
    <glyph glyph-name="Ucircumflex" unicode="&#xdb;" horiz-adv-x="769" 
d="M574 736l-140 55l-151 -51l-42 99l203 81l179 -81zM355 -13c-148 0 -293 56 -293 244c0 14 0 29 2 44l46 432h156l-44 -426c-1 -11 -2 -22 -2 -32c0 -93 50 -132 147 -132c107 0 169 52 183 186l42 404h152l-43 -407c-25 -244 -194 -313 -346 -313z" />
    <glyph glyph-name="Ugrave" unicode="&#xd9;" horiz-adv-x="769" 
d="M533 735l-266 64l35 121l258 -89zM355 -13c-148 0 -293 56 -293 244c0 14 0 29 2 44l46 432h156l-44 -426c-1 -11 -2 -22 -2 -32c0 -93 50 -132 147 -132c107 0 169 52 183 186l42 404h152l-43 -407c-25 -244 -194 -313 -346 -313z" />
    <glyph glyph-name="Udieresis" unicode="&#xdc;" horiz-adv-x="769" 
d="M312 747l-78 89l97 88l78 -88zM550 747l-79 89l97 88l79 -88zM355 -13c-148 0 -293 56 -293 244c0 14 0 29 2 44l46 432h156l-44 -426c-1 -11 -2 -22 -2 -32c0 -93 50 -132 147 -132c107 0 169 52 183 186l42 404h152l-43 -407c-25 -244 -194 -313 -346 -313z" />
    <glyph glyph-name="Ubreve" unicode="&#x16c;" horiz-adv-x="769" 
d="M355 -13c-148 0 -293 56 -293 244c0 14 0 29 2 44l46 432h156l-44 -426c-1 -11 -2 -22 -2 -32c0 -93 50 -132 147 -132c107 0 169 52 183 186l42 404h152l-43 -407c-25 -244 -194 -313 -346 -313zM434 755c-70 0 -133 40 -165 93l80 73c27 -33 54 -52 94 -52
c48 0 84 23 112 51l63 -76c-29 -36 -95 -89 -184 -89z" />
    <glyph glyph-name="Uhungarumlaut" unicode="&#x170;" horiz-adv-x="769" 
d="M277 732l-72 77l192 193l89 -98zM507 732l-29 101l257 89l36 -127zM355 -13c-148 0 -293 56 -293 244c0 14 0 29 2 44l46 432h156l-44 -426c-1 -11 -2 -22 -2 -32c0 -93 50 -132 147 -132c107 0 169 52 183 186l42 404h152l-43 -407c-25 -244 -194 -313 -346 -313z" />
    <glyph glyph-name="Umacron" unicode="&#x16a;" horiz-adv-x="769" 
d="M273 770l13 125h323l-14 -125h-322zM355 -13c-148 0 -293 56 -293 244c0 14 0 29 2 44l46 432h156l-44 -426c-1 -11 -2 -22 -2 -32c0 -93 50 -132 147 -132c107 0 169 52 183 186l42 404h152l-43 -407c-25 -244 -194 -313 -346 -313z" />
    <glyph glyph-name="Uogonek" unicode="&#x172;" horiz-adv-x="776" 
d="M365 -254c-113 0 -138 63 -130 137c4 39 31 75 66 107c-127 11 -238 67 -238 230c0 14 0 28 2 43l48 444h156l-46 -438c-1 -11 -2 -21 -2 -31c0 -92 52 -121 149 -121c107 0 167 40 181 174l44 416h152l-45 -419c-19 -182 -116 -260 -228 -288
c-48 -29 -105 -73 -109 -114c-2 -22 17 -26 35 -26c20 0 49 2 69 8l15 -98c-31 -14 -59 -24 -119 -24z" />
    <glyph glyph-name="Uring" unicode="&#x16e;" horiz-adv-x="769" 
d="M432 718c-61 0 -119 25 -119 94c0 81 63 132 142 132c61 0 117 -33 117 -100c0 -81 -62 -126 -140 -126zM439 780c29 0 54 19 54 51c0 28 -20 45 -47 45c-33 0 -54 -19 -54 -50c0 -30 20 -46 47 -46zM355 -13c-148 0 -293 56 -293 244c0 14 0 29 2 44l46 432h156
l-44 -426c-1 -11 -2 -22 -2 -32c0 -93 50 -132 147 -132c107 0 169 52 183 186l42 404h152l-43 -407c-25 -244 -194 -313 -346 -313z" />
    <glyph glyph-name="Utilde" unicode="&#x168;" horiz-adv-x="769" 
d="M479 744c-47 0 -86 38 -119 38s-55 -10 -79 -28l-54 75c32 33 78 71 140 71c54 0 97 -38 126 -38c32 0 55 9 89 26l45 -78c-31 -31 -75 -66 -148 -66zM355 -13c-148 0 -293 56 -293 244c0 14 0 29 2 44l46 432h156l-44 -426c-1 -11 -2 -22 -2 -32c0 -93 50 -132 147 -132
c107 0 169 52 183 186l42 404h152l-43 -407c-25 -244 -194 -313 -346 -313z" />
    <glyph glyph-name="Uhorn" unicode="&#x1af;" horiz-adv-x="808" 
d="M723 835h140c4 -12 5 -30 5 -46c0 -94 -55 -168 -136 -194l-31 -295c-25 -244 -194 -313 -346 -313c-148 0 -293 56 -293 244c0 14 0 29 2 44l46 432h156l-44 -426c-1 -11 -2 -22 -2 -32c0 -93 50 -132 147 -132c107 0 169 52 183 186l42 404h83c40 14 51 50 51 95
c0 11 -1 22 -3 33z" />
    <glyph glyph-name="uni1EE6" unicode="&#x1ee6;" horiz-adv-x="769" 
d="M355 -13c-148 0 -293 56 -293 244c0 14 0 29 2 44l46 432h156l-44 -426c-1 -11 -2 -22 -2 -32c0 -93 50 -132 147 -132c107 0 169 52 183 186l42 404h152l-43 -407c-25 -244 -194 -313 -346 -313zM553 898c0 -92 -66 -137 -126 -160l-55 80c23 10 60 28 60 60
c0 19 -15 28 -34 28c-9 0 -22 -1 -35 -5l-4 97c15 6 48 13 74 13c66 0 120 -39 120 -113z" />
    <glyph glyph-name="uni1EE4" unicode="&#x1ee4;" horiz-adv-x="768" 
d="M355 -13c-148 0 -293 56 -293 244c0 14 0 29 2 44l46 432h156l-44 -426c-1 -11 -2 -22 -2 -32c0 -93 50 -132 147 -132c107 0 169 52 183 186l42 404h152l-43 -407c-25 -244 -194 -313 -346 -313zM322 -242l-92 102l113 101l92 -101z" />
    <glyph glyph-name="uni1EEA" unicode="&#x1eea;" horiz-adv-x="808" 
d="M723 835h140c4 -12 5 -30 5 -46c0 -94 -55 -168 -136 -194l-31 -295c-25 -244 -194 -313 -346 -313c-148 0 -293 56 -293 244c0 14 0 29 2 44l46 432h156l-44 -426c-1 -11 -2 -22 -2 -32c0 -93 50 -132 147 -132c107 0 169 52 183 186l42 404h83c40 14 51 50 51 95
c0 11 -1 22 -3 33zM552 735l-266 64l35 121l258 -89z" />
    <glyph glyph-name="uni1EE8" unicode="&#x1ee8;" horiz-adv-x="808" 
d="M723 835h140c4 -12 5 -30 5 -46c0 -94 -55 -168 -136 -194l-31 -295c-25 -244 -194 -313 -346 -313c-148 0 -293 56 -293 244c0 14 0 29 2 44l46 432h156l-44 -426c-1 -11 -2 -22 -2 -32c0 -93 50 -132 147 -132c107 0 169 52 183 186l42 404h83c40 14 51 50 51 95
c0 11 -1 22 -3 33zM351 737l-26 96l261 89l34 -121z" />
    <glyph glyph-name="uni1EEE" unicode="&#x1eee;" horiz-adv-x="808" 
d="M723 835h140c4 -12 5 -30 5 -46c0 -94 -55 -168 -136 -194l-31 -295c-25 -244 -194 -313 -346 -313c-148 0 -293 56 -293 244c0 14 0 29 2 44l46 432h156l-44 -426c-1 -11 -2 -22 -2 -32c0 -93 50 -132 147 -132c107 0 169 52 183 186l42 404h83c40 14 51 50 51 95
c0 11 -1 22 -3 33zM503 744c-47 0 -86 38 -119 38s-55 -10 -79 -28l-54 75c32 33 78 71 140 71c54 0 97 -38 126 -38c32 0 55 9 89 26l45 -78c-31 -31 -75 -66 -148 -66z" />
    <glyph glyph-name="uni1EEC" unicode="&#x1eec;" horiz-adv-x="808" 
d="M723 835h140c4 -12 5 -30 5 -46c0 -94 -55 -168 -136 -194l-31 -295c-25 -244 -194 -313 -346 -313c-148 0 -293 56 -293 244c0 14 0 29 2 44l46 432h156l-44 -426c-1 -11 -2 -22 -2 -32c0 -93 50 -132 147 -132c107 0 169 52 183 186l42 404h83c40 14 51 50 51 95
c0 11 -1 22 -3 33zM550 898c0 -92 -66 -137 -126 -160l-55 80c23 10 60 28 60 60c0 19 -15 28 -34 28c-9 0 -22 -1 -35 -5l-4 97c15 6 48 13 74 13c66 0 120 -39 120 -113z" />
    <glyph glyph-name="uni1EF0" unicode="&#x1ef0;" horiz-adv-x="808" 
d="M723 835h140c4 -12 5 -30 5 -46c0 -94 -55 -168 -136 -194l-31 -295c-25 -244 -194 -313 -346 -313c-148 0 -293 56 -293 244c0 14 0 29 2 44l46 432h156l-44 -426c-1 -11 -2 -22 -2 -32c0 -93 50 -132 147 -132c107 0 169 52 183 186l42 404h83c40 14 51 50 51 95
c0 11 -1 22 -3 33zM322 -242l-92 102l113 101l92 -101z" />
    <glyph glyph-name="uni01D3" unicode="&#x1d3;" horiz-adv-x="769" 
d="M424 745l-178 81l49 103l139 -56l151 52l37 -100zM355 -13c-148 0 -293 56 -293 244c0 14 0 29 2 44l46 432h156l-44 -426c-1 -11 -2 -22 -2 -32c0 -93 50 -132 147 -132c107 0 169 52 183 186l42 404h152l-43 -407c-25 -244 -194 -313 -346 -313z" />
    <glyph glyph-name="uni01D5" unicode="&#x1d5;" horiz-adv-x="769" 
d="M312 737l-78 89l97 88l78 -88zM550 737l-79 89l97 88l79 -88zM355 -13c-148 0 -293 56 -293 244c0 14 0 29 2 44l46 432h156l-44 -426c-1 -11 -2 -22 -2 -32c0 -93 50 -132 147 -132c107 0 169 52 183 186l42 404h152l-43 -407c-25 -244 -194 -313 -346 -313zM303 943
l13 122h299l-14 -122h-298z" />
    <glyph glyph-name="uni01D7" unicode="&#x1d7;" horiz-adv-x="769" 
d="M312 737l-78 89l97 88l78 -88zM550 737l-79 89l97 88l79 -88zM355 -13c-148 0 -293 56 -293 244c0 14 0 29 2 44l46 432h156l-44 -426c-1 -11 -2 -22 -2 -32c0 -93 50 -132 147 -132c107 0 169 52 183 186l42 404h152l-43 -407c-25 -244 -194 -313 -346 -313zM399 912
l-26 96l261 89l34 -121z" />
    <glyph glyph-name="uni01D9" unicode="&#x1d9;" horiz-adv-x="769" 
d="M312 737l-78 89l97 88l78 -88zM550 737l-79 89l97 88l79 -88zM355 -13c-148 0 -293 56 -293 244c0 14 0 29 2 44l46 432h156l-44 -426c-1 -11 -2 -22 -2 -32c0 -93 50 -132 147 -132c107 0 169 52 183 186l42 404h152l-43 -407c-25 -244 -194 -313 -346 -313zM442 910
l-178 81l49 103l139 -56l151 52l37 -100z" />
    <glyph glyph-name="uni01DB" unicode="&#x1db;" horiz-adv-x="769" 
d="M312 737l-78 89l97 88l78 -88zM550 737l-79 89l97 88l79 -88zM355 -13c-148 0 -293 56 -293 244c0 14 0 29 2 44l46 432h156l-44 -426c-1 -11 -2 -22 -2 -32c0 -93 50 -132 147 -132c107 0 169 52 183 186l42 404h152l-43 -407c-25 -244 -194 -313 -346 -313zM486 906
l-266 64l35 121l258 -89z" />
    <glyph glyph-name="uni1E7E" unicode="&#x1e7e;" horiz-adv-x="696" 
d="M204 0l-168 707h163l122 -580l278 580h157l-351 -707h-201zM279 -253l-92 102l113 101l92 -101z" />
    <glyph glyph-name="uni1E7C" unicode="&#x1e7c;" horiz-adv-x="698" 
d="M205 0l-168 707h163l122 -580l278 580h157l-351 -707h-201zM466 744c-47 0 -86 38 -119 38s-55 -10 -79 -28l-54 75c32 33 78 71 140 71c54 0 97 -38 126 -38c32 0 55 9 89 26l45 -78c-31 -31 -75 -66 -148 -66z" />
    <glyph glyph-name="uni00560304" horiz-adv-x="698" 
d="M242 770l13 125h323l-14 -125h-322zM205 0l-168 707h163l122 -580l278 580h157l-351 -707h-201z" />
    <glyph glyph-name="Wacute" unicode="&#x1e82;" horiz-adv-x="1047" 
d="M430 737l-26 96l261 89l34 -121zM171 0l-119 707h163l82 -577l184 373l-50 204h162l117 -572l228 572h157l-301 -707h-196l-70 318l-157 -318h-200z" />
    <glyph glyph-name="Wcircumflex" unicode="&#x174;" horiz-adv-x="1047" 
d="M705 736l-140 55l-151 -51l-42 99l203 81l179 -81zM171 0l-119 707h163l82 -577l184 373l-50 204h162l117 -572l228 572h157l-301 -707h-196l-70 318l-157 -318h-200z" />
    <glyph glyph-name="Wdieresis" unicode="&#x1e84;" horiz-adv-x="1047" 
d="M171 0l-119 707h163l82 -577l184 373l-50 204h162l117 -572l228 572h157l-301 -707h-196l-70 318l-157 -318h-200zM446 747l-78 89l97 88l78 -88zM684 747l-79 89l97 88l79 -88z" />
    <glyph glyph-name="Wgrave" unicode="&#x1e80;" horiz-adv-x="1047" 
d="M617 735l-266 64l35 121l258 -89zM171 0l-119 707h163l82 -577l184 373l-50 204h162l117 -572l228 572h157l-301 -707h-196l-70 318l-157 -318h-200z" />
    <glyph glyph-name="uni1E86" unicode="&#x1e86;" horiz-adv-x="1047" 
d="M171 0l-119 707h163l82 -577l184 373l-50 204h162l117 -572l228 572h157l-301 -707h-196l-70 318l-157 -318h-200zM565 759l-96 107l118 106l96 -106z" />
    <glyph glyph-name="uni1E88" unicode="&#x1e88;" horiz-adv-x="1046" 
d="M171 0l-119 707h163l82 -577l184 373l-50 204h162l117 -572l228 572h157l-301 -707h-196l-70 318l-157 -318h-200zM465 -253l-92 102l113 101l92 -101z" />
    <glyph glyph-name="uni1E8A" unicode="&#x1e8a;" horiz-adv-x="658" 
d="M-38 0l290 364l-183 343h176l109 -227l168 227h173l-271 -340l196 -367h-177l-122 250l-184 -250h-175zM377 759l-96 107l118 106l96 -106z" />
    <glyph glyph-name="uni00580304" horiz-adv-x="658" 
d="M239 770l13 125h323l-14 -125h-322zM-38 0l290 364l-183 343h176l109 -227l168 227h173l-271 -340l196 -367h-177l-122 250l-184 -250h-175z" />
    <glyph glyph-name="Ydieresis" unicode="&#x178;" horiz-adv-x="662" 
d="M252 747l-78 89l97 88l78 -88zM490 747l-79 89l97 88l79 -88zM217 0l25 235l-206 472h177l125 -342l207 342h173l-322 -467l-24 -240h-155z" />
    <glyph glyph-name="Ycircumflex" unicode="&#x176;" horiz-adv-x="662" 
d="M524 736l-140 55l-151 -51l-42 99l203 81l179 -81zM217 0l25 235l-206 472h177l125 -342l207 342h173l-322 -467l-24 -240h-155z" />
    <glyph glyph-name="Ygrave" unicode="&#x1ef2;" horiz-adv-x="662" 
d="M442 735l-266 64l35 121l258 -89zM217 0l25 235l-206 472h177l125 -342l207 342h173l-322 -467l-24 -240h-155z" />
    <glyph glyph-name="Yacute" unicode="&#xdd;" horiz-adv-x="662" 
d="M329 739l-26 96l261 89l34 -121zM217 0l25 235l-206 472h177l125 -342l207 342h173l-322 -467l-24 -240h-155z" />
    <glyph glyph-name="uni0232" unicode="&#x232;" horiz-adv-x="662" 
d="M219 770l13 125h323l-14 -125h-322zM217 0l25 235l-206 472h177l125 -342l207 342h173l-322 -467l-24 -240h-155z" />
    <glyph glyph-name="uni1E8E" unicode="&#x1e8e;" horiz-adv-x="662" 
d="M217 0l25 235l-206 472h177l125 -342l207 342h173l-322 -467l-24 -240h-155zM376 759l-96 107l118 106l96 -106z" />
    <glyph glyph-name="uni1EF8" unicode="&#x1ef8;" horiz-adv-x="662" 
d="M217 0l25 235l-206 472h177l125 -342l207 342h173l-322 -467l-24 -240h-155zM442 744c-47 0 -86 38 -119 38s-55 -10 -79 -28l-54 75c32 33 78 71 140 71c54 0 97 -38 126 -38c32 0 55 9 89 26l45 -78c-31 -31 -75 -66 -148 -66z" />
    <glyph glyph-name="uni1EF6" unicode="&#x1ef6;" horiz-adv-x="662" 
d="M217 0l25 235l-206 472h177l125 -342l207 342h173l-322 -467l-24 -240h-155zM486 898c0 -92 -66 -137 -126 -160l-55 80c23 10 60 28 60 60c0 19 -15 28 -34 28c-9 0 -22 -1 -35 -5l-4 97c15 6 48 13 74 13c66 0 120 -39 120 -113z" />
    <glyph glyph-name="uni1EF4" unicode="&#x1ef4;" horiz-adv-x="660" 
d="M216 0l25 235l-206 472h177l125 -342l207 342h173l-322 -467l-24 -240h-155zM268 -242l-92 102l113 101l92 -101z" />
    <glyph glyph-name="Zacute" unicode="&#x179;" horiz-adv-x="599" 
d="M256 737l-26 96l261 89l34 -121zM-5 0l11 106l383 472h-307l13 129h496l-10 -100l-387 -478h357l-13 -129h-543z" />
    <glyph glyph-name="Zcaron" unicode="&#x17d;" horiz-adv-x="599" 
d="M334 745l-178 81l49 103l139 -56l151 52l37 -100zM-5 0l11 106l383 472h-307l13 129h496l-10 -100l-387 -478h357l-13 -129h-543z" />
    <glyph glyph-name="Zdotaccent" unicode="&#x17b;" horiz-adv-x="599" 
d="M359 759l-96 107l118 106l96 -106zM-5 0l11 106l383 472h-307l13 129h496l-10 -100l-387 -478h357l-13 -129h-543z" />
    <glyph glyph-name="uni1E94" unicode="&#x1e94;" horiz-adv-x="599" 
d="M-5 0l11 106l383 472h-307l13 129h496l-10 -100l-387 -478h357l-13 -129h-543zM103 -204l13 122h299l-14 -122h-298z" />
    <glyph glyph-name="uni1E92" unicode="&#x1e92;" horiz-adv-x="599" 
d="M-5 0l11 106l383 472h-307l13 129h496l-10 -100l-387 -478h357l-13 -129h-543zM255 -253l-92 102l113 101l92 -101z" />
    <glyph glyph-name="uni005A0324" horiz-adv-x="599" 
d="M-5 0l11 106l383 472h-307l13 129h496l-10 -100l-387 -478h357l-13 -129h-543zM128 -238l-79 89l97 88l79 -88zM356 -238l-79 89l97 88l80 -88z" />
    <glyph glyph-name="uni018F" unicode="&#x18f;" horiz-adv-x="775" 
d="M341 -12c-222 0 -311 112 -311 298c0 17 1 34 10 126h553c-6 102 -62 179 -198 179c-85 0 -159 -9 -247 -54l-50 100c111 66 199 81 314 81c217 -1 338 -129 338 -312c0 -247 -148 -418 -409 -418zM358 112c132 0 197 82 223 184h-396c0 -11 0 -22 1 -32
c6 -85 48 -152 172 -152z" />
    <glyph glyph-name="Thorn" unicode="&#xde;" horiz-adv-x="625" 
d="M45 0l74 707h155l-11 -100h112c134 0 241 -69 241 -213c0 -209 -159 -285 -348 -285l-57 1l-11 -110h-155zM251 485l-27 -254h21c136 0 211 36 211 151c0 75 -44 103 -116 103h-89z" />
    <glyph glyph-name="Eth" unicode="&#xd0;" horiz-adv-x="795" 
d="M31 292l13 118h79l31 297h242c200 0 373 -81 373 -307c0 -277 -178 -400 -441 -400h-248l30 292h-79zM246 122h105c176 0 263 89 263 266c0 149 -98 197 -234 197h-85l-19 -175h147l-13 -118h-146z" />
    <glyph glyph-name="uni01C4" unicode="&#x1c4;" horiz-adv-x="1332" 
d="M1067 745l-178 81l49 103l139 -56l151 52l37 -100zM728 0l11 106l383 472h-307l13 129h496l-10 -100l-387 -478h357l-13 -129h-543zM45 0l74 707h242c200 0 373 -81 373 -307c0 -277 -178 -400 -441 -400h-248zM211 122h105c176 0 263 89 263 266c0 149 -98 197 -234 197
h-85z" />
    <glyph glyph-name="uni01C5" unicode="&#x1c5;" horiz-adv-x="1211" 
d="M1001 584l-182 131l77 92l120 -90l141 83l58 -84zM715 0l13 103l278 321h-223l16 122h403l-12 -101l-271 -323h238l-13 -122h-429zM26 0l74 707h242c200 0 373 -81 373 -307c0 -277 -178 -400 -441 -400h-248zM192 122h105c176 0 263 89 263 266c0 149 -98 197 -234 197
h-85z" />
    <glyph glyph-name="uni01C7" unicode="&#x1c7;" horiz-adv-x="838" 
d="M45 0l74 707h154l-61 -584h307l-13 -123h-461zM466 -196l-45 111c126 66 157 114 170 236l58 556h155l-58 -554c-15 -145 -52 -275 -280 -349z" />
    <glyph glyph-name="uni01CA" unicode="&#x1ca;" horiz-adv-x="1078" 
d="M45 0l74 707h183l234 -513l49 513h154l-74 -707h-189l-227 500l-50 -500h-154zM706 -196l-45 111c126 66 157 114 170 236l58 556h155l-58 -554c-15 -145 -52 -275 -280 -349z" />
    <glyph glyph-name="uni01F1" unicode="&#x1f1;" horiz-adv-x="1332" 
d="M45 0l74 707h242c200 0 373 -81 373 -307c0 -277 -178 -400 -441 -400h-248zM211 122h105c176 0 263 89 263 266c0 149 -98 197 -234 197h-85zM728 0l11 106l383 472h-307l13 129h496l-10 -100l-387 -478h357l-13 -129h-543z" />
    <glyph glyph-name="uni01F2" unicode="&#x1f2;" horiz-adv-x="1211" 
d="M26 0l74 707h242c200 0 373 -81 373 -307c0 -277 -178 -400 -441 -400h-248zM192 122h105c176 0 263 89 263 266c0 149 -98 197 -234 197h-85zM715 0l13 103l278 321h-223l16 122h403l-12 -101l-271 -323h238l-13 -122h-429z" />
    <glyph glyph-name="uni01C8" unicode="&#x1c8;" horiz-adv-x="793" 
d="M26 0l74 707h154l-61 -584h307l-13 -123h-461zM465 -220c-38 0 -89 10 -122 24l39 117c17 -4 54 -13 84 -13c50 0 73 21 81 92l57 546h151l-57 -547c-19 -184 -113 -219 -233 -219zM679 614l-92 102l113 101l92 -101z" />
    <glyph glyph-name="uni01CB" unicode="&#x1cb;" horiz-adv-x="1032" 
d="M26 0l74 707h183l234 -513l49 513h154l-74 -707h-189l-227 500l-50 -500h-154zM704 -220c-38 0 -89 10 -122 24l39 117c17 -4 54 -13 84 -13c50 0 73 21 81 92l57 546h151l-57 -547c-19 -184 -113 -219 -233 -219zM918 614l-92 102l113 101l92 -101z" />
    <glyph glyph-name="uni021C" unicode="&#x21c;" horiz-adv-x="554" 
d="M165 401l163 165h-261l15 141h456l-12 -108l-202 -199c101 -17 184 -78 184 -182c0 -181 -165 -230 -307 -230c-129 0 -201 28 -201 28l44 134c42 -11 108 -22 169 -22c85 0 126 21 126 88c0 64 -62 78 -134 81h-30z" />
    <glyph glyph-name="uni01EE" unicode="&#x1ee;" horiz-adv-x="554" 
d="M165 401l163 165h-261l15 141h456l-12 -108l-202 -199c101 -17 184 -78 184 -182c0 -181 -165 -230 -307 -230c-129 0 -201 28 -201 28l44 134c42 -11 108 -22 169 -22c85 0 126 21 126 88c0 64 -62 78 -134 81h-30zM300 745l-178 81l49 103l139 -56l151 52l37 -100z" />
    <glyph glyph-name="uni018E" unicode="&#x18e;" horiz-adv-x="588" 
d="M553 707l-74 -707h-452l13 121h297l18 174h-275l12 114h275l19 177h-321l13 121h475z" />
    <glyph glyph-name="AE" unicode="&#xc6;" horiz-adv-x="958" 
d="M-63 0l447 707h558l-13 -121h-297l-18 -174h275l-12 -114h-275l-19 -177h320l-12 -121h-475l35 297h-168l-176 -297h-170zM349 411h116l20 175h-32z" />
    <glyph glyph-name="AEacute" unicode="&#x1fc;" horiz-adv-x="958" 
d="M585 737l-26 96l261 89l34 -121zM-63 0l447 707h558l-13 -121h-297l-18 -174h275l-12 -114h-275l-19 -177h320l-12 -121h-475l35 297h-168l-176 -297h-170zM349 411h116l20 175h-32z" />
    <glyph glyph-name="uni01E2" unicode="&#x1e2;" horiz-adv-x="958" 
d="M490 770l13 125h323l-14 -125h-322zM-63 0l447 707h558l-13 -121h-297l-18 -174h275l-12 -114h-275l-19 -177h320l-12 -121h-475l35 297h-168l-176 -297h-170zM349 411h116l20 175h-32z" />
    <glyph glyph-name="OE" unicode="&#x152;" horiz-adv-x="1111" 
d="M365 -12c-202 0 -329 109 -329 309c0 265 162 421 424 421c74 0 134 -15 180 -44l3 33h452l-13 -122h-297l-18 -173h275l-12 -114h-275l-19 -177h320l-12 -122l-475 1l3 33c-56 -29 -125 -45 -207 -45zM381 111c105 0 174 47 212 121l25 240c-22 77 -82 123 -180 123
c-168 0 -245 -125 -245 -281c0 -122 60 -203 188 -203z" />
    <glyph glyph-name="IJ" unicode="&#x132;" horiz-adv-x="606" 
d="M45 0l74 707h154l-74 -707h-154zM234 -196l-45 111c126 66 157 114 170 236l58 556h155l-58 -554c-15 -145 -52 -275 -280 -349z" />
    <glyph glyph-name="Iacute_Jacute" horiz-adv-x="606" 
d="M128 737l-26 96l261 89l34 -121zM439 737l-26 96l261 89l34 -121zM45 0l74 707h154l-74 -707h-154zM234 -196l-45 111c126 66 157 114 170 236l58 556h155l-58 -554c-15 -145 -52 -275 -280 -349z" />
    <glyph glyph-name="a" unicode="a" horiz-adv-x="549" 
d="M158 -12c-107 0 -140 69 -140 179c0 220 146 386 360 386c35 0 92 -4 133 -11l-56 -542h-151l8 71c-52 -50 -101 -83 -154 -83zM201 121c34 0 91 41 123 66l24 240c-2 1 -4 1 -9 1c-92 0 -170 -104 -170 -246c0 -32 7 -61 32 -61z" />
    <glyph glyph-name="b" unicode="b" horiz-adv-x="548" 
d="M213 -11c-65 0 -136 15 -182 27l77 739h150l-24 -247c29 24 88 50 133 50c101 0 150 -53 150 -176c0 -172 -78 -393 -304 -393zM219 107c110 0 148 178 148 272c0 39 -19 55 -40 55c-33 0 -71 -19 -105 -36l-31 -289c9 -1 16 -2 28 -2z" />
    <glyph glyph-name="c" unicode="c" horiz-adv-x="468" 
d="M196 -12c-124 0 -171 66 -171 200c0 199 105 374 300 374c68 0 123 -25 149 -48l-66 -102c-30 18 -53 27 -82 27c-115 0 -145 -146 -145 -232c0 -57 12 -90 37 -90c41 0 69 7 152 48l49 -103c-49 -30 -113 -74 -223 -74z" />
    <glyph glyph-name="d" unicode="d" horiz-adv-x="551" 
d="M159 -12c-108 0 -140 71 -140 182c0 219 137 372 335 382h8l21 203h152l-79 -755h-151l8 71c-52 -50 -101 -83 -154 -83zM202 121c35 0 91 41 123 66l24 241h-10c-87 1 -168 -97 -168 -241c0 -41 7 -66 31 -66z" />
    <glyph glyph-name="e" unicode="e" horiz-adv-x="513" 
d="M191 -12c-139 0 -165 113 -165 210c0 177 93 363 299 363c126 0 180 -72 180 -147c0 -102 -92 -147 -184 -176l-140 -44v-13c0 -49 12 -68 47 -68c37 0 93 20 164 59l52 -101c-78 -51 -152 -83 -253 -83zM194 309l124 46c32 12 43 30 43 52s-19 36 -39 36
c-60 0 -108 -48 -128 -134z" />
    <glyph glyph-name="f" unicode="f" horiz-adv-x="381" 
d="M53 -151l61 585h-80l14 112h78l3 23c17 173 108 206 226 206c51 0 130 -16 175 -34l-41 -117c-34 8 -80 19 -131 19c-50 0 -73 -20 -78 -73l-3 -24h121l-13 -112h-119l-63 -585h-150z" />
    <glyph glyph-name="g" unicode="g" horiz-adv-x="549" 
d="M168 -228c-81 0 -159 16 -204 35l37 119c54 -18 112 -28 152 -28c87 0 141 11 151 99l8 73c-53 -50 -100 -82 -154 -82c-107 0 -140 67 -140 180c0 224 150 385 360 385c35 0 92 -4 133 -11l-58 -565c-18 -173 -167 -205 -285 -205zM201 121c34 0 91 41 123 66l24 240
c-3 1 -7 1 -9 1c-88 0 -169 -100 -169 -245c0 -37 7 -62 31 -62z" />
    <glyph glyph-name="h" unicode="h" horiz-adv-x="577" 
d="M31 0l79 755h152l-28 -268c41 27 118 73 180 73c83 0 116 -25 116 -112c0 -16 -1 -34 -3 -54l-41 -394h-151l39 366c1 11 2 18 2 31c-1 12 -8 17 -20 17c-35 0 -112 -36 -135 -46l-38 -368h-152z" />
    <glyph glyph-name="i" unicode="i" horiz-adv-x="277" 
d="M31 0l57 546h152l-58 -546h-151zM174 614l-92 102l113 101l92 -101z" />
    <glyph glyph-name="j" unicode="j" horiz-adv-x="277" 
d="M-51 -220c-38 0 -89 10 -122 24l39 117c17 -4 54 -13 84 -13c50 0 73 21 81 92l57 546h151l-57 -547c-19 -184 -113 -219 -233 -219zM163 614l-92 102l113 101l92 -101z" />
    <glyph glyph-name="k" unicode="k" horiz-adv-x="541" 
d="M31 0l79 755h151l-47 -443l169 234h164l-194 -255l159 -289l-167 -4l-138 248l-25 -246h-151z" />
    <glyph glyph-name="l" unicode="l" horiz-adv-x="277" 
d="M31 0l79 755h151l-79 -755h-151z" />
    <glyph glyph-name="m" unicode="m" horiz-adv-x="860" 
d="M31 0l58 546h151l-6 -59c40 27 109 73 170 73c69 0 102 -18 113 -73c41 27 122 73 180 73c82 0 116 -25 116 -112c0 -16 -1 -34 -3 -54l-41 -394h-152l40 366c1 8 1 15 1 21c0 19 -4 27 -19 27c-31 0 -98 -31 -125 -42l-38 -372h-152l40 366c1 8 1 15 1 21
c0 19 -4 27 -19 27c-34 0 -102 -36 -125 -46l-39 -368h-151z" />
    <glyph glyph-name="n" unicode="n" horiz-adv-x="577" 
d="M31 0l58 546h151l-6 -59c40 27 117 73 180 73c82 0 116 -25 116 -112c0 -16 -1 -34 -3 -54l-41 -394h-152l40 366c1 8 1 15 1 21c0 19 -5 27 -19 27c-35 0 -113 -36 -135 -46l-39 -368h-151z" />
    <glyph glyph-name="o" unicode="o" horiz-adv-x="554" 
d="M228 -12c-133 0 -206 86 -206 211c0 205 109 359 300 359c138 0 205 -93 205 -208c0 -139 -63 -362 -299 -362zM251 112c55 0 123 78 123 237c0 73 -33 89 -78 89c-58 0 -119 -86 -119 -234c0 -57 25 -92 74 -92z" />
    <glyph glyph-name="p" unicode="p" horiz-adv-x="550" 
d="M8 -220l80 766h151l-4 -40c29 23 88 49 133 49c100 0 150 -53 150 -177c0 -171 -77 -389 -303 -389c-12 0 -23 0 -34 1l-22 -210h-151zM221 107c110 0 147 175 147 269c0 39 -20 55 -40 55c-34 0 -72 -19 -105 -36l-30 -286c9 -1 16 -2 28 -2z" />
    <glyph glyph-name="q" unicode="q" horiz-adv-x="549" 
d="M281 -220l31 290c-53 -49 -101 -82 -154 -82c-107 0 -140 67 -140 180c0 225 150 385 360 385c35 0 92 -4 133 -11l-79 -762h-151zM201 121c34 0 91 41 123 66l24 240s-5 1 -9 1c-88 0 -169 -100 -169 -245c0 -37 7 -62 31 -62z" />
    <glyph glyph-name="r" unicode="r" horiz-adv-x="395" 
d="M30 0l59 546h150l-6 -55c43 31 93 65 147 65c13 0 16 1 36 -3l-27 -147c-21 4 -36 5 -56 5c-35 0 -82 -31 -112 -52l-40 -359h-151z" />
    <glyph glyph-name="s" unicode="s" horiz-adv-x="453" 
d="M175 -11c-55 0 -128 10 -185 36l40 117c51 -17 110 -28 157 -28c41 0 76 11 76 43c0 57 -209 90 -209 233c0 126 95 169 207 169c62 0 143 -14 177 -31l-37 -112c-44 13 -88 23 -132 23c-36 0 -69 -4 -69 -40c0 -61 211 -107 211 -242c0 -150 -146 -168 -236 -168z" />
    <glyph glyph-name="t" unicode="t" horiz-adv-x="438" 
d="M215 -12c-98 0 -138 32 -138 127c0 16 1 33 3 52l29 267h-80l13 112h82l11 112h150l-12 -112h139l-11 -112h-141l-30 -279c-3 -28 3 -36 21 -36c23 0 75 7 121 22l27 -111c-43 -21 -111 -42 -184 -42z" />
    <glyph glyph-name="u" unicode="u" horiz-adv-x="576" 
d="M167 -12c-85 0 -126 22 -126 123c0 16 1 34 3 55l40 380h152l-40 -373c-1 -5 -1 -11 -1 -15c0 -24 9 -33 27 -33c40 0 102 33 126 46l40 375h151l-58 -546h-151l7 59c-42 -32 -108 -71 -170 -71z" />
    <glyph glyph-name="v" unicode="v" horiz-adv-x="543" 
d="M122 0l-81 546h160l40 -400l102 208c23 48 36 102 36 149c0 15 -1 29 -3 43h161c4 -14 5 -28 5 -43c0 -62 -25 -126 -50 -174l-170 -329h-200z" />
    <glyph glyph-name="w" unicode="w" horiz-adv-x="857" 
d="M113 0l-70 546h160l30 -400l142 278l-17 122h159l41 -400c27 47 101 208 101 208c24 48 37 101 37 149c0 14 -1 29 -4 43h161c3 -14 5 -29 5 -44c0 -62 -25 -126 -49 -173l-171 -329h-200l-36 245l-130 -245h-159z" />
    <glyph glyph-name="x" unicode="x" horiz-adv-x="536" 
d="M-37 0l225 279l-131 267h162l69 -144l115 144h158l-211 -266l137 -280h-164l-74 156l-122 -156h-164z" />
    <glyph glyph-name="y" unicode="y" horiz-adv-x="542" 
d="M49 -220l114 220h-41l-80 546h160l40 -400c27 47 102 208 102 208c23 48 36 102 36 149c0 15 -1 29 -3 43h162c3 -14 4 -29 4 -43c0 -62 -25 -126 -50 -174l-285 -549h-159z" />
    <glyph glyph-name="z" unicode="z" horiz-adv-x="489" 
d="M-7 0l13 103l278 321h-223l16 122h403l-12 -101l-271 -323h238l-13 -122h-429z" />
    <glyph glyph-name="aacute" unicode="&#xe1;" horiz-adv-x="549" 
d="M301 602l-43 91l235 128l53 -115zM158 -12c-107 0 -140 69 -140 179c0 220 146 386 360 386c35 0 92 -4 133 -11l-56 -542h-151l8 71c-52 -50 -101 -83 -154 -83zM201 121c34 0 91 41 123 66l24 240c-2 1 -4 1 -9 1c-92 0 -170 -104 -170 -246c0 -32 7 -61 32 -61z" />
    <glyph glyph-name="agrave" unicode="&#xe0;" horiz-adv-x="549" 
d="M447 602l-244 104l54 117l233 -130zM158 -12c-107 0 -140 69 -140 179c0 220 146 386 360 386c35 0 92 -4 133 -11l-56 -542h-151l8 71c-52 -50 -101 -83 -154 -83zM201 121c34 0 91 41 123 66l24 240c-2 1 -4 1 -9 1c-92 0 -170 -104 -170 -246c0 -32 7 -61 32 -61z" />
    <glyph glyph-name="acircumflex" unicode="&#xe2;" horiz-adv-x="549" 
d="M490 605l-120 90l-137 -89l-63 92l215 130l182 -131zM158 -12c-107 0 -140 69 -140 179c0 220 146 386 360 386c35 0 92 -4 133 -11l-56 -542h-151l8 71c-52 -50 -101 -83 -154 -83zM201 121c34 0 91 41 123 66l24 240c-2 1 -4 1 -9 1c-92 0 -170 -104 -170 -246
c0 -32 7 -61 32 -61z" />
    <glyph glyph-name="adieresis" unicode="&#xe4;" horiz-adv-x="549" 
d="M244 621l-79 89l97 88l79 -88zM472 621l-79 89l97 88l80 -88zM158 -12c-107 0 -140 69 -140 179c0 220 146 386 360 386c35 0 92 -4 133 -11l-56 -542h-151l8 71c-52 -50 -101 -83 -154 -83zM201 121c34 0 91 41 123 66l24 240c-2 1 -4 1 -9 1c-92 0 -170 -104 -170 -246
c0 -32 7 -61 32 -61z" />
    <glyph glyph-name="atilde" unicode="&#xe3;" horiz-adv-x="549" 
d="M434 637c-48 0 -84 36 -121 36c-18 0 -38 -2 -67 -26l-60 70c23 27 73 78 137 78c60 0 85 -36 117 -36c30 0 48 6 83 24l52 -70c-22 -24 -70 -76 -141 -76zM158 -12c-107 0 -140 69 -140 179c0 220 146 386 360 386c35 0 92 -4 133 -11l-56 -542h-151l8 71
c-52 -50 -101 -83 -154 -83zM201 121c34 0 91 41 123 66l24 240c-2 1 -4 1 -9 1c-92 0 -170 -104 -170 -246c0 -32 7 -61 32 -61z" />
    <glyph glyph-name="aring" unicode="&#xe5;" horiz-adv-x="549" 
d="M354 590c-68 0 -132 28 -132 105c0 90 70 147 157 147c68 0 130 -37 130 -111c0 -91 -69 -141 -155 -141zM362 664c30 0 55 19 55 52c0 29 -20 46 -48 46c-34 0 -55 -19 -55 -52c0 -31 20 -46 48 -46zM158 -12c-107 0 -140 69 -140 179c0 220 146 386 360 386
c35 0 92 -4 133 -11l-56 -542h-151l8 71c-52 -50 -101 -83 -154 -83zM201 121c34 0 91 41 123 66l24 240c-2 1 -4 1 -9 1c-92 0 -170 -104 -170 -246c0 -32 7 -61 32 -61z" />
    <glyph glyph-name="abreve" unicode="&#x103;" horiz-adv-x="549" 
d="M345 621c-70 0 -133 40 -165 93l80 73c27 -33 54 -52 94 -52c48 0 84 23 112 51l63 -76c-29 -36 -95 -89 -184 -89zM158 -12c-107 0 -140 69 -140 179c0 220 146 386 360 386c35 0 92 -4 133 -11l-56 -542h-151l8 71c-52 -50 -101 -83 -154 -83zM201 121
c34 0 91 41 123 66l24 240c-2 1 -4 1 -9 1c-92 0 -170 -104 -170 -246c0 -32 7 -61 32 -61z" />
    <glyph glyph-name="amacron" unicode="&#x101;" horiz-adv-x="549" 
d="M221 653l13 122h299l-14 -122h-298zM158 -12c-107 0 -140 69 -140 179c0 220 146 386 360 386c35 0 92 -4 133 -11l-56 -542h-151l8 71c-52 -50 -101 -83 -154 -83zM201 121c34 0 91 41 123 66l24 240c-2 1 -4 1 -9 1c-92 0 -170 -104 -170 -246c0 -32 7 -61 32 -61z" />
    <glyph glyph-name="aogonek" unicode="&#x105;" horiz-adv-x="549" 
d="M345 -254c-95 0 -134 46 -134 101c0 54 38 114 94 152l7 72c-52 -50 -101 -83 -154 -83c-107 0 -140 69 -140 179c0 220 146 386 360 386c35 0 92 -4 133 -11l-57 -542c-48 -29 -105 -73 -109 -114c-2 -22 17 -26 35 -26c20 0 49 2 69 8l15 -98c-31 -14 -59 -24 -119 -24
zM201 121c34 0 91 41 123 66l24 240c-2 1 -4 1 -9 1c-92 0 -170 -104 -170 -246c0 -32 7 -61 32 -61z" />
    <glyph glyph-name="uni01FB" unicode="&#x1fb;" horiz-adv-x="549" 
d="M158 -12c-107 0 -140 69 -140 179c0 220 146 386 360 386c35 0 92 -4 133 -11l-56 -542h-151l8 71c-52 -50 -101 -83 -154 -83zM201 121c34 0 91 41 123 66l24 240c-2 1 -4 1 -9 1c-92 0 -170 -104 -170 -246c0 -32 7 -61 32 -61zM329 589c-68 0 -132 28 -132 105
c0 90 70 147 157 147c68 0 130 -37 130 -111c0 -91 -69 -141 -155 -141zM337 663c30 0 55 19 55 52c0 29 -20 46 -48 46c-34 0 -55 -19 -55 -52c0 -31 20 -46 48 -46zM259 868l-26 96l261 89l34 -121z" />
    <glyph glyph-name="uni01CE" unicode="&#x1ce;" horiz-adv-x="549" 
d="M158 -12c-107 0 -140 69 -140 179c0 220 146 386 360 386c35 0 92 -4 133 -11l-56 -542h-151l8 71c-52 -50 -101 -83 -154 -83zM201 121c34 0 91 41 123 66l24 240c-2 1 -4 1 -9 1c-92 0 -170 -104 -170 -246c0 -32 7 -61 32 -61zM325 584l-182 131l77 92l120 -90l141 83
l58 -84z" />
    <glyph glyph-name="uni0227" unicode="&#x227;" horiz-adv-x="549" 
d="M158 -12c-107 0 -140 69 -140 179c0 220 146 386 360 386c35 0 92 -4 133 -11l-56 -542h-151l8 71c-52 -50 -101 -83 -154 -83zM201 121c34 0 91 41 123 66l24 240c-2 1 -4 1 -9 1c-92 0 -170 -104 -170 -246c0 -32 7 -61 32 -61zM330 614l-92 102l113 101l92 -101z" />
    <glyph glyph-name="uni1EA7" unicode="&#x1ea7;" horiz-adv-x="549" 
d="M158 -12c-107 0 -140 69 -140 179c0 220 146 386 360 386c35 0 92 -4 133 -11l-56 -542h-151l8 71c-52 -50 -101 -83 -154 -83zM201 121c34 0 91 41 123 66l24 240c-2 1 -4 1 -9 1c-92 0 -170 -104 -170 -246c0 -32 7 -61 32 -61zM581 700l-154 163l101 83l140 -177z
M235 587l-63 92l212 121l180 -122l-72 -92l-123 76z" />
    <glyph glyph-name="uni1EA5" unicode="&#x1ea5;" horiz-adv-x="549" 
d="M158 -12c-107 0 -140 69 -140 179c0 220 146 386 360 386c35 0 92 -4 133 -11l-56 -542h-151l8 71c-52 -50 -101 -83 -154 -83zM201 121c34 0 91 41 123 66l24 240c-2 1 -4 1 -9 1c-92 0 -170 -104 -170 -246c0 -32 7 -61 32 -61zM505 747l-68 81l158 138l80 -96z
M228 587l-63 92l212 121l180 -122l-72 -92l-123 76z" />
    <glyph glyph-name="uni1EAB" unicode="&#x1eab;" horiz-adv-x="549" 
d="M158 -12c-107 0 -140 69 -140 179c0 220 146 386 360 386c35 0 92 -4 133 -11l-56 -542h-151l8 71c-52 -50 -101 -83 -154 -83zM201 121c34 0 91 41 123 66l24 240c-2 1 -4 1 -9 1c-92 0 -170 -104 -170 -246c0 -32 7 -61 32 -61zM227 586l-63 92l212 121l180 -122
l-72 -92l-123 76zM448 807c-48 0 -83 28 -119 28c-19 0 -38 -2 -63 -24l-52 72c26 27 70 70 135 70c60 0 84 -28 117 -28c27 0 42 5 78 22l45 -74c-27 -22 -68 -66 -141 -66z" />
    <glyph glyph-name="uni1EA9" unicode="&#x1ea9;" horiz-adv-x="549" 
d="M158 -12c-107 0 -140 69 -140 179c0 220 146 386 360 386c35 0 92 -4 133 -11l-56 -542h-151l8 71c-52 -50 -101 -83 -154 -83zM201 121c34 0 91 41 123 66l24 240c-2 1 -4 1 -9 1c-92 0 -170 -104 -170 -246c0 -32 7 -61 32 -61zM599 869c0 -58 -34 -111 -87 -141
l-70 73c16 10 32 25 32 45c0 19 -15 28 -34 28c-9 0 -22 -1 -35 -5l-5 97c16 6 49 13 75 13c38 0 71 -10 94 -33c18 -18 30 -44 30 -77zM484 585l-123 76l-134 -75l-63 92l212 121l180 -122z" />
    <glyph glyph-name="uni1EAD" unicode="&#x1ead;" horiz-adv-x="549" 
d="M158 -12c-107 0 -140 69 -140 179c0 220 146 386 360 386c35 0 92 -4 133 -11l-56 -542h-151l8 71c-52 -50 -101 -83 -154 -83zM201 121c34 0 91 41 123 66l24 240c-2 1 -4 1 -9 1c-92 0 -170 -104 -170 -246c0 -32 7 -61 32 -61zM493 605l-120 90l-137 -89l-63 92
l215 130l182 -131zM239 -242l-92 102l113 101l92 -101z" />
    <glyph glyph-name="uni1EB1" unicode="&#x1eb1;" horiz-adv-x="549" 
d="M158 -12c-107 0 -140 69 -140 179c0 220 146 386 360 386c35 0 92 -4 133 -11l-56 -542h-151l8 71c-52 -50 -101 -83 -154 -83zM201 121c34 0 91 41 123 66l24 240c-2 1 -4 1 -9 1c-92 0 -170 -104 -170 -246c0 -32 7 -61 32 -61zM383 738l-170 121l85 102l157 -140z
M353 591c-109 0 -146 56 -165 93l82 75c25 -27 49 -50 98 -50c48 0 75 22 103 50l66 -79c-29 -36 -75 -89 -184 -89z" />
    <glyph glyph-name="uni1EAF" unicode="&#x1eaf;" horiz-adv-x="549" 
d="M158 -12c-107 0 -140 69 -140 179c0 220 146 386 360 386c35 0 92 -4 133 -11l-56 -542h-151l8 71c-52 -50 -101 -83 -154 -83zM201 121c34 0 91 41 123 66l24 240c-2 1 -4 1 -9 1c-92 0 -170 -104 -170 -246c0 -32 7 -61 32 -61zM557 847l-211 -97l-45 89l203 119z
M354 591c-109 0 -146 56 -165 93l82 75c25 -27 49 -50 98 -50c48 0 75 22 103 50l66 -79c-29 -36 -75 -89 -184 -89z" />
    <glyph glyph-name="uni1EB5" unicode="&#x1eb5;" horiz-adv-x="549" 
d="M158 -12c-107 0 -140 69 -140 179c0 220 146 386 360 386c35 0 92 -4 133 -11l-56 -542h-151l8 71c-52 -50 -101 -83 -154 -83zM201 121c34 0 91 41 123 66l24 240c-2 1 -4 1 -9 1c-92 0 -170 -104 -170 -246c0 -32 7 -61 32 -61zM344 591c-109 0 -146 56 -165 93l82 75
c25 -27 49 -50 98 -50c48 0 75 22 103 50l66 -79c-29 -36 -75 -89 -184 -89zM427 787c-48 0 -83 28 -119 28c-19 0 -38 -2 -63 -24l-52 72c26 27 70 70 135 70c60 0 84 -28 117 -28c27 0 42 5 78 22l45 -74c-27 -22 -68 -66 -141 -66z" />
    <glyph glyph-name="uni1EB3" unicode="&#x1eb3;" horiz-adv-x="549" 
d="M158 -12c-107 0 -140 69 -140 179c0 220 146 386 360 386c35 0 92 -4 133 -11l-56 -542h-151l8 71c-52 -50 -101 -83 -154 -83zM201 121c34 0 91 41 123 66l24 240c-2 1 -4 1 -9 1c-92 0 -170 -104 -170 -246c0 -32 7 -61 32 -61zM449 887c0 -65 -32 -113 -90 -143
l-66 75c15 10 34 23 34 45c0 16 -15 26 -34 26c-9 0 -22 -2 -35 -5l-4 94c15 6 46 16 77 16c33 0 67 -12 90 -35c19 -18 28 -41 28 -73zM336 591c-109 0 -146 56 -165 93l82 75c25 -27 49 -50 98 -50c48 0 75 22 103 50l66 -79c-29 -36 -75 -89 -184 -89z" />
    <glyph glyph-name="uni1EB7" unicode="&#x1eb7;" horiz-adv-x="549" 
d="M158 -12c-107 0 -140 69 -140 179c0 220 146 386 360 386c35 0 92 -4 133 -11l-56 -542h-151l8 71c-52 -50 -101 -83 -154 -83zM201 121c34 0 91 41 123 66l24 240c-2 1 -4 1 -9 1c-92 0 -170 -104 -170 -246c0 -32 7 -61 32 -61zM341 620c-70 0 -133 40 -165 93l80 73
c27 -33 54 -52 94 -52c48 0 84 23 112 51l63 -76c-29 -36 -95 -89 -184 -89zM261 -242l-92 102l113 101l92 -101z" />
    <glyph glyph-name="uni1EA3" unicode="&#x1ea3;" horiz-adv-x="549" 
d="M158 -12c-107 0 -140 69 -140 179c0 220 146 386 360 386c35 0 92 -4 133 -11l-56 -542h-151l8 71c-52 -50 -101 -83 -154 -83zM201 121c34 0 91 41 123 66l24 240c-2 1 -4 1 -9 1c-92 0 -170 -104 -170 -246c0 -32 7 -61 32 -61zM473 764c0 -92 -67 -141 -127 -164
l-58 84c23 10 60 28 60 60c0 19 -15 28 -34 28c-9 0 -22 -1 -35 -5l-4 100c15 6 48 13 74 13c38 0 71 -12 94 -35c19 -19 30 -46 30 -81z" />
    <glyph glyph-name="uni1EA1" unicode="&#x1ea1;" horiz-adv-x="549" 
d="M158 -12c-107 0 -140 69 -140 179c0 220 146 386 360 386c35 0 92 -4 133 -11l-56 -542h-151l8 71c-52 -50 -101 -83 -154 -83zM201 121c34 0 91 41 123 66l24 240c-2 1 -4 1 -9 1c-92 0 -170 -104 -170 -246c0 -32 7 -61 32 -61zM250 -242l-92 102l113 101l92 -101z" />
    <glyph glyph-name="uni1E05" unicode="&#x1e05;" horiz-adv-x="548" 
d="M213 -11c-65 0 -136 15 -182 27l77 739h150l-24 -247c29 24 88 50 133 50c101 0 150 -53 150 -176c0 -172 -78 -393 -304 -393zM219 107c110 0 148 178 148 272c0 39 -19 55 -40 55c-33 0 -71 -19 -105 -36l-31 -289c9 -1 16 -2 28 -2zM217 -253l-92 102l113 101l92 -101
z" />
    <glyph glyph-name="uni1E07" unicode="&#x1e07;" horiz-adv-x="548" 
d="M213 -11c-65 0 -136 15 -182 27l77 739h150l-24 -247c29 24 88 50 133 50c101 0 150 -53 150 -176c0 -172 -78 -393 -304 -393zM219 107c110 0 148 178 148 272c0 39 -19 55 -40 55c-33 0 -71 -19 -105 -36l-31 -289c9 -1 16 -2 28 -2zM60 -204l13 122h299l-14 -122h-298
z" />
    <glyph glyph-name="uni1E03" unicode="&#x1e03;" horiz-adv-x="548" 
d="M213 -11c-65 0 -136 15 -182 27l77 739h150l-24 -247c29 24 88 50 133 50c101 0 150 -53 150 -176c0 -172 -78 -393 -304 -393zM219 107c110 0 148 178 148 272c0 39 -19 55 -40 55c-33 0 -71 -19 -105 -36l-31 -289c9 -1 16 -2 28 -2zM368 614l-92 102l113 101l92 -101z
" />
    <glyph glyph-name="ccedilla" unicode="&#xe7;" horiz-adv-x="468" 
d="M117 -275l-42 90c29 17 76 38 80 71c2 20 -3 42 -7 63h119c9 -24 17 -51 14 -78c-8 -75 -96 -119 -164 -146zM195 -12c-124 0 -171 66 -171 200c0 199 105 374 300 374c68 0 123 -25 149 -48l-66 -102c-30 18 -53 27 -82 27c-115 0 -145 -146 -145 -232
c0 -57 12 -90 37 -90c41 0 69 7 152 48l49 -103c-49 -30 -113 -74 -223 -74z" />
    <glyph glyph-name="cacute" unicode="&#x107;" horiz-adv-x="467" 
d="M258 602l-43 91l235 128l53 -115zM195 -12c-124 0 -171 66 -171 200c0 199 105 374 300 374c68 0 123 -25 149 -48l-66 -102c-30 18 -53 27 -82 27c-115 0 -145 -146 -145 -232c0 -57 12 -90 37 -90c41 0 69 7 152 48l49 -103c-49 -30 -113 -74 -223 -74z" />
    <glyph glyph-name="ccaron" unicode="&#x10d;" horiz-adv-x="467" 
d="M313 584l-182 131l77 92l120 -90l141 83l58 -84zM195 -12c-124 0 -171 66 -171 200c0 199 105 374 300 374c68 0 123 -25 149 -48l-66 -102c-30 18 -53 27 -82 27c-115 0 -145 -146 -145 -232c0 -57 12 -90 37 -90c41 0 69 7 152 48l49 -103c-49 -30 -113 -74 -223 -74z
" />
    <glyph glyph-name="ccircumflex" unicode="&#x109;" horiz-adv-x="467" 
d="M443 605l-120 90l-137 -89l-63 92l215 130l182 -131zM195 -12c-124 0 -171 66 -171 200c0 199 105 374 300 374c68 0 123 -25 149 -48l-66 -102c-30 18 -53 27 -82 27c-115 0 -145 -146 -145 -232c0 -57 12 -90 37 -90c41 0 69 7 152 48l49 -103
c-49 -30 -113 -74 -223 -74z" />
    <glyph glyph-name="cdotaccent" unicode="&#x10b;" horiz-adv-x="467" 
d="M325 614l-92 102l113 101l92 -101zM195 -12c-124 0 -171 66 -171 200c0 199 105 374 300 374c68 0 123 -25 149 -48l-66 -102c-30 18 -53 27 -82 27c-115 0 -145 -146 -145 -232c0 -57 12 -90 37 -90c41 0 69 7 152 48l49 -103c-49 -30 -113 -74 -223 -74z" />
    <glyph glyph-name="dcaron" unicode="&#x10f;" horiz-adv-x="551" 
d="M558 547l33 209h144l-63 -209h-114zM159 -12c-108 0 -140 71 -140 182c0 219 137 372 335 382h8l21 203h152l-79 -755h-151l8 71c-52 -50 -101 -83 -154 -83zM202 121c35 0 91 41 123 66l24 241h-10c-87 1 -168 -97 -168 -241c0 -41 7 -66 31 -66z" />
    <glyph glyph-name="dcroat" unicode="&#x111;" horiz-adv-x="551" 
d="M260 593l15 104h102l6 58h152l-6 -58h69l-16 -104h-64l-62 -593h-151l8 71c-52 -50 -101 -83 -154 -83c-108 0 -140 71 -140 182c0 219 137 372 335 382h8l4 41h-106zM202 121c35 0 91 41 123 66l24 241h-10c-87 1 -168 -97 -168 -241c0 -41 7 -66 31 -66z" />
    <glyph glyph-name="uni1E0F" unicode="&#x1e0f;" horiz-adv-x="550" 
d="M158 -12c-108 0 -140 71 -140 182c0 219 137 372 335 382h8l21 203h152l-79 -755h-151l8 71c-52 -50 -101 -83 -154 -83zM201 121c35 0 91 41 123 66l24 241h-10c-87 1 -168 -97 -168 -241c0 -41 7 -66 31 -66zM80 -204l13 122h299l-14 -122h-298z" />
    <glyph glyph-name="uni1E0D" unicode="&#x1e0d;" horiz-adv-x="550" 
d="M158 -12c-108 0 -140 71 -140 182c0 219 137 372 335 382h8l21 203h152l-79 -755h-151l8 71c-52 -50 -101 -83 -154 -83zM201 121c35 0 91 41 123 66l24 241h-10c-87 1 -168 -97 -168 -241c0 -41 7 -66 31 -66zM235 -253l-92 102l113 101l92 -101z" />
    <glyph glyph-name="uni1E0B" unicode="&#x1e0b;" horiz-adv-x="551" 
d="M159 -12c-108 0 -140 71 -140 182c0 219 137 372 335 382h8l21 203h152l-79 -755h-151l8 71c-52 -50 -101 -83 -154 -83zM202 121c35 0 91 41 123 66l24 241h-10c-87 1 -168 -97 -168 -241c0 -41 7 -66 31 -66zM230 614l-92 102l113 101l92 -101z" />
    <glyph glyph-name="eacute" unicode="&#xe9;" horiz-adv-x="512" 
d="M241 602l-43 91l235 128l53 -115zM190 -12c-139 0 -165 113 -165 210c0 177 93 363 299 363c126 0 180 -72 180 -147c0 -102 -92 -147 -184 -176l-140 -44v-13c0 -49 12 -68 47 -68c37 0 93 20 164 59l52 -101c-78 -51 -152 -83 -253 -83zM193 309l124 46
c32 12 43 30 43 52s-19 36 -39 36c-60 0 -108 -48 -128 -134z" />
    <glyph glyph-name="egrave" unicode="&#xe8;" horiz-adv-x="512" 
d="M354 602l-244 104l54 117l233 -130zM190 -12c-139 0 -165 113 -165 210c0 177 93 363 299 363c126 0 180 -72 180 -147c0 -102 -92 -147 -184 -176l-140 -44v-13c0 -49 12 -68 47 -68c37 0 93 20 164 59l52 -101c-78 -51 -152 -83 -253 -83zM193 309l124 46
c32 12 43 30 43 52s-19 36 -39 36c-60 0 -108 -48 -128 -134z" />
    <glyph glyph-name="ecircumflex" unicode="&#xea;" horiz-adv-x="512" 
d="M444 605l-120 90l-137 -89l-63 92l215 130l182 -131zM190 -12c-139 0 -165 113 -165 210c0 177 93 363 299 363c126 0 180 -72 180 -147c0 -102 -92 -147 -184 -176l-140 -44v-13c0 -49 12 -68 47 -68c37 0 93 20 164 59l52 -101c-78 -51 -152 -83 -253 -83zM193 309
l124 46c32 12 43 30 43 52s-19 36 -39 36c-60 0 -108 -48 -128 -134z" />
    <glyph glyph-name="edieresis" unicode="&#xeb;" horiz-adv-x="512" 
d="M194 621l-79 89l97 88l79 -88zM422 621l-79 89l97 88l80 -88zM190 -12c-139 0 -165 113 -165 210c0 177 93 363 299 363c126 0 180 -72 180 -147c0 -102 -92 -147 -184 -176l-140 -44v-13c0 -49 12 -68 47 -68c37 0 93 20 164 59l52 -101c-78 -51 -152 -83 -253 -83z
M193 309l124 46c32 12 43 30 43 52s-19 36 -39 36c-60 0 -108 -48 -128 -134z" />
    <glyph glyph-name="ebreve" unicode="&#x115;" horiz-adv-x="512" 
d="M318 621c-70 0 -133 40 -165 93l80 73c27 -33 54 -52 94 -52c48 0 84 23 112 51l63 -76c-29 -36 -95 -89 -184 -89zM190 -12c-139 0 -165 113 -165 210c0 177 93 363 299 363c126 0 180 -72 180 -147c0 -102 -92 -147 -184 -176l-140 -44v-13c0 -49 12 -68 47 -68
c37 0 93 20 164 59l52 -101c-78 -51 -152 -83 -253 -83zM193 309l124 46c32 12 43 30 43 52s-19 36 -39 36c-60 0 -108 -48 -128 -134z" />
    <glyph glyph-name="ecaron" unicode="&#x11b;" horiz-adv-x="512" 
d="M319 584l-182 131l77 92l120 -90l141 83l58 -84zM190 -12c-139 0 -165 113 -165 210c0 177 93 363 299 363c126 0 180 -72 180 -147c0 -102 -92 -147 -184 -176l-140 -44v-13c0 -49 12 -68 47 -68c37 0 93 20 164 59l52 -101c-78 -51 -152 -83 -253 -83zM193 309l124 46
c32 12 43 30 43 52s-19 36 -39 36c-60 0 -108 -48 -128 -134z" />
    <glyph glyph-name="edotaccent" unicode="&#x117;" horiz-adv-x="512" 
d="M314 614l-92 102l113 101l92 -101zM190 -12c-139 0 -165 113 -165 210c0 177 93 363 299 363c126 0 180 -72 180 -147c0 -102 -92 -147 -184 -176l-140 -44v-13c0 -49 12 -68 47 -68c37 0 93 20 164 59l52 -101c-78 -51 -152 -83 -253 -83zM193 309l124 46
c32 12 43 30 43 52s-19 36 -39 36c-60 0 -108 -48 -128 -134z" />
    <glyph glyph-name="emacron" unicode="&#x113;" horiz-adv-x="512" 
d="M188 653l13 122h299l-14 -122h-298zM190 -12c-139 0 -165 113 -165 210c0 177 93 363 299 363c126 0 180 -72 180 -147c0 -102 -92 -147 -184 -176l-140 -44v-13c0 -49 12 -68 47 -68c37 0 93 20 164 59l52 -101c-78 -51 -152 -83 -253 -83zM193 309l124 46
c32 12 43 30 43 52s-19 36 -39 36c-60 0 -108 -48 -128 -134z" />
    <glyph glyph-name="uni1EBD" unicode="&#x1ebd;" horiz-adv-x="512" 
d="M398 637c-48 0 -84 36 -121 36c-18 0 -38 -2 -67 -26l-60 70c23 27 73 78 137 78c60 0 85 -36 117 -36c30 0 48 6 83 24l52 -70c-22 -24 -70 -76 -141 -76zM190 -12c-139 0 -165 113 -165 210c0 177 93 363 299 363c126 0 180 -72 180 -147c0 -102 -92 -147 -184 -176
l-140 -44v-13c0 -49 12 -68 47 -68c37 0 93 20 164 59l52 -101c-78 -51 -152 -83 -253 -83zM193 309l124 46c32 12 43 30 43 52s-19 36 -39 36c-60 0 -108 -48 -128 -134z" />
    <glyph glyph-name="eogonek" unicode="&#x119;" horiz-adv-x="515" 
d="M317 -254c-96 0 -132 46 -132 115c0 41 20 87 49 129c-14 -1 -28 -2 -43 -2c-139 0 -165 113 -165 210c0 177 93 363 299 363c126 0 180 -72 180 -147c0 -102 -92 -147 -184 -176l-140 -44v-13c0 -49 12 -68 47 -68c37 0 93 20 164 59l52 -101
c-57 -33 -127 -120 -127 -185c0 -22 17 -26 35 -26c20 0 49 2 69 8l15 -98c-25 -9 -61 -24 -119 -24zM194 309l124 46c32 12 43 30 43 52s-19 36 -39 36c-60 0 -108 -48 -128 -134z" />
    <glyph glyph-name="uni0229" unicode="&#x229;" horiz-adv-x="512" 
d="M190 -12c-139 0 -165 113 -165 210c0 177 93 363 299 363c126 0 180 -72 180 -147c0 -102 -92 -147 -184 -176l-140 -44v-13c0 -49 12 -68 47 -68c37 0 93 20 164 59l52 -101c-78 -51 -152 -83 -253 -83zM193 309l124 46c32 12 43 30 43 52s-19 36 -39 36
c-60 0 -108 -48 -128 -134zM148 -275l-42 90c29 17 76 38 80 71c2 20 -3 42 -7 63h119c9 -24 17 -51 14 -78c-8 -75 -96 -119 -164 -146z" />
    <glyph glyph-name="uni1EC1" unicode="&#x1ec1;" horiz-adv-x="512" 
d="M190 -12c-139 0 -165 113 -165 210c0 177 93 363 299 363c126 0 180 -72 180 -147c0 -102 -92 -147 -184 -176l-140 -44v-13c0 -49 12 -68 47 -68c37 0 93 20 164 59l52 -101c-78 -51 -152 -83 -253 -83zM193 309l124 46c32 12 43 30 43 52s-19 36 -39 36
c-60 0 -108 -48 -128 -134zM531 700l-154 163l101 83l140 -177zM185 587l-63 92l212 121l180 -122l-72 -92l-123 76z" />
    <glyph glyph-name="uni1EBF" unicode="&#x1ebf;" horiz-adv-x="512" 
d="M190 -12c-139 0 -165 113 -165 210c0 177 93 363 299 363c126 0 180 -72 180 -147c0 -102 -92 -147 -184 -176l-140 -44v-13c0 -49 12 -68 47 -68c37 0 93 20 164 59l52 -101c-78 -51 -152 -83 -253 -83zM193 309l124 46c32 12 43 30 43 52s-19 36 -39 36
c-60 0 -108 -48 -128 -134zM462 747l-68 81l158 138l80 -96zM185 587l-63 92l212 121l180 -122l-72 -92l-123 76z" />
    <glyph glyph-name="uni1EC5" unicode="&#x1ec5;" horiz-adv-x="512" 
d="M190 -12c-139 0 -165 113 -165 210c0 177 93 363 299 363c126 0 180 -72 180 -147c0 -102 -92 -147 -184 -176l-140 -44v-13c0 -49 12 -68 47 -68c37 0 93 20 164 59l52 -101c-78 -51 -152 -83 -253 -83zM193 309l124 46c32 12 43 30 43 52s-19 36 -39 36
c-60 0 -108 -48 -128 -134zM184 586l-63 92l212 121l180 -122l-72 -92l-123 76zM405 807c-48 0 -83 28 -119 28c-19 0 -38 -2 -63 -24l-52 72c26 27 70 70 135 70c60 0 84 -28 117 -28c27 0 42 5 78 22l45 -74c-27 -22 -68 -66 -141 -66z" />
    <glyph glyph-name="uni1EC3" unicode="&#x1ec3;" horiz-adv-x="512" 
d="M190 -12c-139 0 -165 113 -165 210c0 177 93 363 299 363c126 0 180 -72 180 -147c0 -102 -92 -147 -184 -176l-140 -44v-13c0 -49 12 -68 47 -68c37 0 93 20 164 59l52 -101c-78 -51 -152 -83 -253 -83zM193 309l124 46c32 12 43 30 43 52s-19 36 -39 36
c-60 0 -108 -48 -128 -134zM566 869c0 -58 -34 -111 -87 -141l-70 73c16 10 32 25 32 45c0 19 -15 28 -34 28c-9 0 -22 -1 -35 -5l-5 97c16 6 49 13 75 13c38 0 71 -10 94 -33c18 -18 30 -44 30 -77zM451 585l-123 76l-134 -75l-63 92l212 121l180 -122z" />
    <glyph glyph-name="uni1EC7" unicode="&#x1ec7;" horiz-adv-x="512" 
d="M190 -12c-139 0 -165 113 -165 210c0 177 93 363 299 363c126 0 180 -72 180 -147c0 -102 -92 -147 -184 -176l-140 -44v-13c0 -49 12 -68 47 -68c37 0 93 20 164 59l52 -101c-78 -51 -152 -83 -253 -83zM193 309l124 46c32 12 43 30 43 52s-19 36 -39 36
c-60 0 -108 -48 -128 -134zM449 605l-120 90l-137 -89l-63 92l215 130l182 -131zM208 -242l-92 102l113 101l92 -101z" />
    <glyph glyph-name="uni1EBB" unicode="&#x1ebb;" horiz-adv-x="512" 
d="M190 -12c-139 0 -165 113 -165 210c0 177 93 363 299 363c126 0 180 -72 180 -147c0 -102 -92 -147 -184 -176l-140 -44v-13c0 -49 12 -68 47 -68c37 0 93 20 164 59l52 -101c-78 -51 -152 -83 -253 -83zM193 309l124 46c32 12 43 30 43 52s-19 36 -39 36
c-60 0 -108 -48 -128 -134zM451 764c0 -92 -67 -141 -127 -164l-58 84c23 10 60 28 60 60c0 19 -15 28 -34 28c-9 0 -22 -1 -35 -5l-4 100c15 6 48 13 74 13c38 0 71 -12 94 -35c19 -19 30 -46 30 -81z" />
    <glyph glyph-name="uni1EB9" unicode="&#x1eb9;" horiz-adv-x="512" 
d="M190 -12c-139 0 -165 113 -165 210c0 177 93 363 299 363c126 0 180 -72 180 -147c0 -102 -92 -147 -184 -176l-140 -44v-13c0 -49 12 -68 47 -68c37 0 93 20 164 59l52 -101c-78 -51 -152 -83 -253 -83zM193 309l124 46c32 12 43 30 43 52s-19 36 -39 36
c-60 0 -108 -48 -128 -134zM202 -242l-92 102l113 101l92 -101z" />
    <glyph glyph-name="uni0065030A" horiz-adv-x="512" 
d="M316 590c-68 0 -132 28 -132 105c0 90 70 147 157 147c68 0 130 -37 130 -111c0 -91 -69 -141 -155 -141zM324 664c30 0 55 19 55 52c0 29 -20 46 -48 46c-34 0 -55 -19 -55 -52c0 -31 20 -46 48 -46zM190 -12c-139 0 -165 113 -165 210c0 177 93 363 299 363
c126 0 180 -72 180 -147c0 -102 -92 -147 -184 -176l-140 -44v-13c0 -49 12 -68 47 -68c37 0 93 20 164 59l52 -101c-78 -51 -152 -83 -253 -83zM193 309l124 46c32 12 43 30 43 52s-19 36 -39 36c-60 0 -108 -48 -128 -134z" />
    <glyph glyph-name="uni1E1F" unicode="&#x1e1f;" horiz-adv-x="381" 
d="M53 -151l61 585h-80l14 112h78l3 23c17 173 108 206 226 206c51 0 130 -16 175 -34l-41 -117c-34 8 -80 19 -131 19c-50 0 -73 -20 -78 -73l-3 -24h121l-13 -112h-119l-63 -585h-150zM144 759l-96 107l118 106l96 -106z" />
    <glyph glyph-name="uni00660304" horiz-adv-x="381" 
d="M198 821l13 122h299l-14 -122h-298zM53 -151l61 585h-80l14 112h78l3 23c17 173 108 206 226 206c51 0 130 -16 175 -34l-41 -117c-34 8 -80 19 -131 19c-50 0 -73 -20 -78 -73l-3 -24h121l-13 -112h-119l-63 -585h-150z" />
    <glyph glyph-name="gbreve" unicode="&#x11f;" horiz-adv-x="549" 
d="M338 621c-70 0 -133 40 -165 93l80 73c27 -33 54 -52 94 -52c48 0 84 23 112 51l63 -76c-29 -36 -95 -89 -184 -89zM168 -228c-81 0 -159 16 -204 35l37 119c54 -18 112 -28 152 -28c87 0 141 11 151 99l8 73c-53 -50 -100 -82 -154 -82c-107 0 -140 67 -140 180
c0 224 150 385 360 385c35 0 92 -4 133 -11l-58 -565c-18 -173 -167 -205 -285 -205zM201 121c34 0 91 41 123 66l24 240c-3 1 -7 1 -9 1c-88 0 -169 -100 -169 -245c0 -37 7 -62 31 -62z" />
    <glyph glyph-name="gcircumflex" unicode="&#x11d;" horiz-adv-x="549" 
d="M475 605l-120 90l-137 -89l-63 92l215 130l182 -131zM168 -228c-81 0 -159 16 -204 35l37 119c54 -18 112 -28 152 -28c87 0 141 11 151 99l8 73c-53 -50 -100 -82 -154 -82c-107 0 -140 67 -140 180c0 224 150 385 360 385c35 0 92 -4 133 -11l-58 -565
c-18 -173 -167 -205 -285 -205zM201 121c34 0 91 41 123 66l24 240c-3 1 -7 1 -9 1c-88 0 -169 -100 -169 -245c0 -37 7 -62 31 -62z" />
    <glyph glyph-name="gcommaaccent" unicode="&#x123;" horiz-adv-x="549" 
d="M168 -228c-81 0 -159 16 -204 35l37 119c54 -18 112 -28 152 -28c87 0 141 11 151 99l8 73c-53 -50 -100 -82 -154 -82c-107 0 -140 67 -140 180c0 224 150 385 360 385c35 0 92 -4 133 -11l-58 -565c-18 -173 -167 -205 -285 -205zM201 121c34 0 91 41 123 66l24 240
c-3 1 -7 1 -9 1c-88 0 -169 -100 -169 -245c0 -37 7 -62 31 -62zM467 811l-33 -209h-144l63 209h114z" />
    <glyph glyph-name="gdotaccent" unicode="&#x121;" horiz-adv-x="549" 
d="M339 614l-92 102l113 101l92 -101zM168 -228c-81 0 -159 16 -204 35l37 119c54 -18 112 -28 152 -28c87 0 141 11 151 99l8 73c-53 -50 -100 -82 -154 -82c-107 0 -140 67 -140 180c0 224 150 385 360 385c35 0 92 -4 133 -11l-58 -565c-18 -173 -167 -205 -285 -205z
M201 121c34 0 91 41 123 66l24 240c-3 1 -7 1 -9 1c-88 0 -169 -100 -169 -245c0 -37 7 -62 31 -62z" />
    <glyph glyph-name="uni01E7" unicode="&#x1e7;" horiz-adv-x="549" 
d="M168 -228c-81 0 -159 16 -204 35l37 119c54 -18 112 -28 152 -28c87 0 141 11 151 99l8 73c-53 -50 -100 -82 -154 -82c-107 0 -140 67 -140 180c0 224 150 385 360 385c35 0 92 -4 133 -11l-58 -565c-18 -173 -167 -205 -285 -205zM201 121c34 0 91 41 123 66l24 240
c-3 1 -7 1 -9 1c-88 0 -169 -100 -169 -245c0 -37 7 -62 31 -62zM313 584l-182 131l77 92l120 -90l141 83l58 -84z" />
    <glyph glyph-name="uni01F5" unicode="&#x1f5;" horiz-adv-x="549" 
d="M168 -228c-81 0 -159 16 -204 35l37 119c54 -18 112 -28 152 -28c87 0 141 11 151 99l8 73c-53 -50 -100 -82 -154 -82c-107 0 -140 67 -140 180c0 224 150 385 360 385c35 0 92 -4 133 -11l-58 -565c-18 -173 -167 -205 -285 -205zM201 121c34 0 91 41 123 66l24 240
c-3 1 -7 1 -9 1c-88 0 -169 -100 -169 -245c0 -37 7 -62 31 -62zM262 601l-43 91l235 128l53 -115z" />
    <glyph glyph-name="uni1E21" unicode="&#x1e21;" horiz-adv-x="549" 
d="M168 -228c-81 0 -159 16 -204 35l37 119c54 -18 112 -28 152 -28c87 0 141 11 151 99l8 73c-53 -50 -100 -82 -154 -82c-107 0 -140 67 -140 180c0 224 150 385 360 385c35 0 92 -4 133 -11l-58 -565c-18 -173 -167 -205 -285 -205zM201 121c34 0 91 41 123 66l24 240
c-3 1 -7 1 -9 1c-88 0 -169 -100 -169 -245c0 -37 7 -62 31 -62zM165 653l13 122h299l-14 -122h-298z" />
    <glyph glyph-name="hbar" unicode="&#x127;" horiz-adv-x="577" 
d="M25 593l11 94h67l7 68h152l-7 -68h104l-12 -94h-102l-11 -106c41 27 118 73 180 73c83 0 116 -25 116 -112c0 -16 -1 -34 -3 -54l-41 -394h-151l39 366c1 11 2 18 2 31c-1 12 -8 17 -20 17c-35 0 -112 -36 -135 -46l-38 -368h-152l62 593h-68z" />
    <glyph glyph-name="hcircumflex" unicode="&#x125;" horiz-adv-x="577" 
d="M338 775l-140 55l-151 -51l-42 99l203 81l179 -81zM31 0l79 755h152l-28 -268c41 27 118 73 180 73c83 0 116 -25 116 -112c0 -16 -1 -34 -3 -54l-41 -394h-151l39 366c1 11 2 18 2 31c-1 12 -8 17 -20 17c-35 0 -112 -36 -135 -46l-38 -368h-152z" />
    <glyph glyph-name="uni021F" unicode="&#x21f;" horiz-adv-x="577" 
d="M31 0l79 755h152l-28 -268c41 27 118 73 180 73c83 0 116 -25 116 -112c0 -16 -1 -34 -3 -54l-41 -394h-151l39 366c1 11 2 18 2 31c-1 12 -8 17 -20 17c-35 0 -112 -36 -135 -46l-38 -368h-152zM383 745l-178 81l49 103l139 -56l151 52l37 -100z" />
    <glyph glyph-name="uni1E25" unicode="&#x1e25;" horiz-adv-x="577" 
d="M31 0l79 755h152l-28 -268c41 27 118 73 180 73c83 0 116 -25 116 -112c0 -16 -1 -34 -3 -54l-41 -394h-151l39 366c1 11 2 18 2 31c-1 12 -8 17 -20 17c-35 0 -112 -36 -135 -46l-38 -368h-152zM235 -253l-92 102l113 101l92 -101z" />
    <glyph glyph-name="uni1E96" unicode="&#x1e96;" horiz-adv-x="577" 
d="M31 0l79 755h152l-28 -268c41 27 118 73 180 73c83 0 116 -25 116 -112c0 -16 -1 -34 -3 -54l-41 -394h-151l39 366c1 11 2 18 2 31c-1 12 -8 17 -20 17c-35 0 -112 -36 -135 -46l-38 -368h-152zM87 -204l13 122h299l-14 -122h-298z" />
    <glyph glyph-name="uni1E2B" unicode="&#x1e2b;" horiz-adv-x="577" 
d="M31 0l79 755h152l-28 -268c41 27 118 73 180 73c83 0 116 -25 116 -112c0 -16 -1 -34 -3 -54l-41 -394h-151l39 366c1 11 2 18 2 31c-1 12 -8 17 -20 17c-35 0 -112 -36 -135 -46l-38 -368h-152zM232 -219c-70 0 -133 40 -165 93l80 73c27 -33 54 -52 94 -52
c48 0 84 23 112 51l63 -76c-29 -36 -95 -89 -184 -89z" />
    <glyph glyph-name="uni1E23" unicode="&#x1e23;" horiz-adv-x="577" 
d="M31 0l79 755h152l-28 -268c41 27 118 73 180 73c83 0 116 -25 116 -112c0 -16 -1 -34 -3 -54l-41 -394h-151l39 366c1 11 2 18 2 31c-1 12 -8 17 -20 17c-35 0 -112 -36 -135 -46l-38 -368h-152zM385 614l-92 102l113 101l92 -101z" />
    <glyph glyph-name="iacute" unicode="&#xed;" horiz-adv-x="277" 
d="M107 602l-43 91l235 128l53 -115zM31 0l57 546h152l-58 -546h-151z" />
    <glyph glyph-name="igrave" unicode="&#xec;" horiz-adv-x="277" 
d="M240 602l-244 104l54 117l233 -130zM31 0l57 546h152l-58 -546h-151z" />
    <glyph glyph-name="icircumflex" unicode="&#xee;" horiz-adv-x="277" 
d="M303 605l-120 90l-137 -89l-63 92l215 130l182 -131zM31 0l57 546h152l-58 -546h-151z" />
    <glyph glyph-name="idieresis" unicode="&#xef;" horiz-adv-x="277" 
d="M54 621l-79 89l97 88l79 -88zM282 621l-79 89l97 88l80 -88zM31 0l57 546h152l-58 -546h-151z" />
    <glyph glyph-name="ibreve" unicode="&#x12d;" horiz-adv-x="277" 
d="M172 621c-70 0 -133 40 -165 93l80 73c27 -33 54 -52 94 -52c48 0 84 23 112 51l63 -76c-29 -36 -95 -89 -184 -89zM31 0l57 546h152l-58 -546h-151z" />
    <glyph glyph-name="dotlessi" unicode="&#x131;" horiz-adv-x="277" 
d="M31 0l57 546h152l-58 -546h-151z" />
    <glyph glyph-name="imacron" unicode="&#x12b;" horiz-adv-x="277" 
d="M31 0l57 546h152l-58 -546h-151zM27 653l13 122h299l-14 -122h-298z" />
    <glyph glyph-name="iogonek" unicode="&#x12f;" horiz-adv-x="277" 
d="M177 -132l15 -98s-62 -24 -119 -24c-98 0 -133 44 -133 118c0 54 47 106 92 141l56 541h151l-57 -546c-49 -29 -105 -74 -109 -114c-2 -22 17 -26 35 -26c20 0 49 2 69 8zM183 614l-92 102l113 101l92 -101z" />
    <glyph glyph-name="itilde" unicode="&#x129;" horiz-adv-x="277" 
d="M229 637c-48 0 -84 36 -121 36c-18 0 -38 -2 -67 -26l-60 70c23 27 73 78 137 78c60 0 85 -36 117 -36c30 0 48 6 83 24l52 -70c-22 -24 -70 -76 -141 -76zM31 0l57 546h152l-58 -546h-151z" />
    <glyph glyph-name="uni01D0" unicode="&#x1d0;" horiz-adv-x="277" 
d="M31 0l57 546h152l-58 -546h-151zM164 584l-182 131l77 92l120 -90l141 83l58 -84z" />
    <glyph glyph-name="uni1EC9" unicode="&#x1ec9;" horiz-adv-x="277" 
d="M31 0l57 546h152l-58 -546h-151zM280 764c0 -92 -67 -141 -127 -164l-58 84c23 10 60 28 60 60c0 19 -15 28 -34 28c-9 0 -22 -1 -35 -5l-4 100c15 6 48 13 74 13c38 0 71 -12 94 -35c19 -19 30 -46 30 -81z" />
    <glyph glyph-name="uni1ECB" unicode="&#x1ecb;" horiz-adv-x="277" 
d="M31 0l57 546h152l-58 -546h-151zM174 614l-92 102l113 101l92 -101zM80 -242l-92 102l113 101l92 -101z" />
    <glyph glyph-name="jcircumflex" unicode="&#x135;" horiz-adv-x="277" 
d="M297 605l-120 90l-137 -89l-63 92l215 130l182 -131zM-51 -220c-38 0 -89 10 -122 24l39 117c17 -4 54 -13 84 -13c50 0 73 21 81 92l57 546h151l-57 -547c-19 -184 -113 -219 -233 -219z" />
    <glyph glyph-name="uni006A0301" horiz-adv-x="277" 
d="M117 602l-43 91l235 128l53 -115zM-51 -220c-38 0 -89 10 -122 24l39 117c17 -4 54 -13 84 -13c50 0 73 21 81 92l57 546h151l-57 -547c-19 -184 -113 -219 -233 -219z" />
    <glyph glyph-name="uni0237" unicode="&#x237;" horiz-adv-x="277" 
d="M-51 -220c-38 0 -89 10 -122 24l39 117c17 -4 54 -13 84 -13c50 0 73 21 81 92l57 546h151l-57 -547c-19 -184 -113 -219 -233 -219z" />
    <glyph glyph-name="kcommaaccent" unicode="&#x137;" horiz-adv-x="541" 
d="M31 0l79 755h151l-47 -443l169 234h164l-194 -255l159 -289l-167 -4l-138 248l-25 -246h-151zM146 -267l33 209h144l-63 -209h-114z" />
    <glyph glyph-name="uni01E9" unicode="&#x1e9;" horiz-adv-x="541" 
d="M31 0l79 755h151l-47 -443l169 234h164l-194 -255l159 -289l-167 -4l-138 248l-25 -246h-151zM352 745l-178 81l49 103l139 -56l151 52l37 -100z" />
    <glyph glyph-name="uni1E35" unicode="&#x1e35;" horiz-adv-x="541" 
d="M31 0l79 755h151l-47 -443l169 234h164l-194 -255l159 -289l-167 -4l-138 248l-25 -246h-151zM91 -204l13 122h299l-14 -122h-298z" />
    <glyph glyph-name="uni1E33" unicode="&#x1e33;" horiz-adv-x="541" 
d="M31 0l79 755h151l-47 -443l169 234h164l-194 -255l159 -289l-167 -4l-138 248l-25 -246h-151zM234 -253l-92 102l113 101l92 -101z" />
    <glyph glyph-name="lacute" unicode="&#x13a;" horiz-adv-x="277" 
d="M121 797l-26 96l261 89l34 -121zM31 0l79 755h151l-79 -755h-151z" />
    <glyph glyph-name="lcaron" unicode="&#x13e;" horiz-adv-x="307" 
d="M283 546l33 209h144l-63 -209h-114zM31 0l79 755h151l-79 -755h-151z" />
    <glyph glyph-name="lcommaaccent" unicode="&#x13c;" horiz-adv-x="277" 
d="M8 -267l33 209h144l-63 -209h-114zM31 0l79 755h151l-79 -755h-151z" />
    <glyph glyph-name="ldot" unicode="&#x140;" horiz-adv-x="436" 
d="M359 281l-95 107l117 106l97 -106zM31 0l79 755h151l-79 -755h-151z" />
    <glyph glyph-name="lslash" unicode="&#x142;" horiz-adv-x="363" 
d="M13 253l11 105l93 50l36 347h151l-27 -260l98 53l-11 -104l-98 -54l-41 -390h-151l32 303z" />
    <glyph glyph-name="uni1E3B" unicode="&#x1e3b;" horiz-adv-x="277" 
d="M31 0l79 755h151l-79 -755h-151zM-66 -204l13 122h299l-14 -122h-298z" />
    <glyph glyph-name="uni1E37" unicode="&#x1e37;" horiz-adv-x="277" 
d="M31 0l79 755h151l-79 -755h-151zM80 -253l-92 102l113 101l92 -101z" />
    <glyph glyph-name="uni1E39" unicode="&#x1e39;" horiz-adv-x="277" 
d="M31 0l79 755h151l-79 -755h-151zM78 -253l-92 102l113 101l92 -101zM27 790l13 125h323l-14 -125h-322z" />
    <glyph glyph-name="uni1E43" unicode="&#x1e43;" horiz-adv-x="859" 
d="M30 0l58 546h151l-6 -59c40 27 109 73 170 73c69 0 102 -18 113 -73c41 27 122 73 180 73c82 0 116 -25 116 -112c0 -16 -1 -34 -3 -54l-41 -394h-152l40 366c1 8 1 15 1 21c0 19 -4 27 -19 27c-31 0 -98 -31 -125 -42l-38 -372h-152l40 366c1 8 1 15 1 21
c0 19 -4 27 -19 27c-34 0 -102 -36 -125 -46l-39 -368h-151zM381 -253l-92 102l113 101l92 -101z" />
    <glyph glyph-name="uni006D0310" horiz-adv-x="860" 
d="M31 0l58 546h151l-6 -59c40 27 109 73 170 73c69 0 102 -18 113 -73c41 27 122 73 180 73c82 0 116 -25 116 -112c0 -16 -1 -34 -3 -54l-41 -394h-152l40 366c1 8 1 15 1 21c0 19 -4 27 -19 27c-31 0 -98 -31 -125 -42l-38 -372h-152l40 366c1 8 1 15 1 21
c0 19 -4 27 -19 27c-34 0 -102 -36 -125 -46l-39 -368h-151zM474 776l-73 82l90 81l74 -81zM465 620c-70 0 -133 40 -165 93l80 73c27 -33 54 -52 94 -52c48 0 84 23 112 51l63 -76c-29 -36 -95 -89 -184 -89z" />
    <glyph glyph-name="uni1E41" unicode="&#x1e41;" horiz-adv-x="860" 
d="M31 0l58 546h151l-6 -59c40 27 109 73 170 73c69 0 102 -18 113 -73c41 27 122 73 180 73c82 0 116 -25 116 -112c0 -16 -1 -34 -3 -54l-41 -394h-152l40 366c1 8 1 15 1 21c0 19 -4 27 -19 27c-31 0 -98 -31 -125 -42l-38 -372h-152l40 366c1 8 1 15 1 21
c0 19 -4 27 -19 27c-34 0 -102 -36 -125 -46l-39 -368h-151zM460 614l-92 102l113 101l92 -101z" />
    <glyph glyph-name="uni1E3F" unicode="&#x1e3f;" horiz-adv-x="860" 
d="M31 0l58 546h151l-6 -59c40 27 109 73 170 73c69 0 102 -18 113 -73c41 27 122 73 180 73c82 0 116 -25 116 -112c0 -16 -1 -34 -3 -54l-41 -394h-152l40 366c1 8 1 15 1 21c0 19 -4 27 -19 27c-31 0 -98 -31 -125 -42l-38 -372h-152l40 366c1 8 1 15 1 21
c0 19 -4 27 -19 27c-34 0 -102 -36 -125 -46l-39 -368h-151zM412 601l-43 91l235 128l53 -115z" />
    <glyph glyph-name="ntilde" unicode="&#xf1;" horiz-adv-x="577" 
d="M396 637c-48 0 -84 36 -121 36c-18 0 -38 -2 -67 -26l-60 70c23 27 73 78 137 78c60 0 85 -36 117 -36c30 0 48 6 83 24l52 -70c-22 -24 -70 -76 -141 -76zM31 0l58 546h151l-6 -59c40 27 117 73 180 73c82 0 116 -25 116 -112c0 -16 -1 -34 -3 -54l-41 -394h-152l40 366
c1 8 1 15 1 21c0 19 -5 27 -19 27c-35 0 -113 -36 -135 -46l-39 -368h-151z" />
    <glyph glyph-name="nacute" unicode="&#x144;" horiz-adv-x="577" 
d="M286 602l-43 91l235 128l53 -115zM31 0l58 546h151l-6 -59c40 27 117 73 180 73c82 0 116 -25 116 -112c0 -16 -1 -34 -3 -54l-41 -394h-152l40 366c1 8 1 15 1 21c0 19 -5 27 -19 27c-35 0 -113 -36 -135 -46l-39 -368h-151z" />
    <glyph glyph-name="napostrophe" unicode="&#x149;" horiz-adv-x="672" 
d="M126 0l58 546h151l-6 -59c40 27 117 73 180 73c82 0 116 -25 116 -112c0 -16 -1 -34 -3 -54l-41 -394h-152l40 366c1 8 1 15 1 21c0 19 -5 27 -19 27c-35 0 -113 -36 -135 -46l-39 -368h-151zM-9 497c49 79 50 174 58 259h153c-10 -109 -15 -179 -87 -259h-124z" />
    <glyph glyph-name="ncaron" unicode="&#x148;" horiz-adv-x="577" 
d="M305 584l-182 131l77 92l120 -90l141 83l58 -84zM31 0l58 546h151l-6 -59c40 27 117 73 180 73c82 0 116 -25 116 -112c0 -16 -1 -34 -3 -54l-41 -394h-152l40 366c1 8 1 15 1 21c0 19 -5 27 -19 27c-35 0 -113 -36 -135 -46l-39 -368h-151z" />
    <glyph glyph-name="ncommaaccent" unicode="&#x146;" horiz-adv-x="576" 
d="M145 -267l33 209h144l-63 -209h-114zM30 0l58 546h151l-6 -59c40 27 117 73 180 73c82 0 116 -25 116 -112c0 -16 -1 -34 -3 -54l-41 -394h-152l40 366c1 8 1 15 1 21c0 19 -5 27 -19 27c-35 0 -113 -36 -135 -46l-39 -368h-151z" />
    <glyph glyph-name="uni01F9" unicode="&#x1f9;" horiz-adv-x="577" 
d="M31 0l58 546h151l-6 -59c40 27 117 73 180 73c82 0 116 -25 116 -112c0 -16 -1 -34 -3 -54l-41 -394h-152l40 366c1 8 1 15 1 21c0 19 -5 27 -19 27c-35 0 -113 -36 -135 -46l-39 -368h-151zM375 601l-244 104l54 117l233 -130z" />
    <glyph glyph-name="uni1E49" unicode="&#x1e49;" horiz-adv-x="576" 
d="M30 0l58 546h151l-6 -59c40 27 117 73 180 73c82 0 116 -25 116 -112c0 -16 -1 -34 -3 -54l-41 -394h-152l40 366c1 8 1 15 1 21c0 19 -5 27 -19 27c-35 0 -113 -36 -135 -46l-39 -368h-151zM88 -204l13 122h299l-14 -122h-298z" />
    <glyph glyph-name="uni1E45" unicode="&#x1e45;" horiz-adv-x="577" 
d="M31 0l58 546h151l-6 -59c40 27 117 73 180 73c82 0 116 -25 116 -112c0 -16 -1 -34 -3 -54l-41 -394h-152l40 366c1 8 1 15 1 21c0 19 -5 27 -19 27c-35 0 -113 -36 -135 -46l-39 -368h-151zM310 614l-92 102l113 101l92 -101z" />
    <glyph glyph-name="uni1E47" unicode="&#x1e47;" horiz-adv-x="576" 
d="M232 -253l-92 102l113 101l92 -101zM30 0l58 546h151l-6 -59c40 27 117 73 180 73c82 0 116 -25 116 -112c0 -16 -1 -34 -3 -54l-41 -394h-152l40 366c1 8 1 15 1 21c0 19 -5 27 -19 27c-35 0 -113 -36 -135 -46l-39 -368h-151z" />
    <glyph glyph-name="uni006E0304" horiz-adv-x="577" 
d="M31 0l58 546h151l-6 -59c40 27 117 73 180 73c82 0 116 -25 116 -112c0 -16 -1 -34 -3 -54l-41 -394h-152l40 366c1 8 1 15 1 21c0 19 -5 27 -19 27c-35 0 -113 -36 -135 -46l-39 -368h-151zM175 653l13 122h299l-14 -122h-298z" />
    <glyph glyph-name="eng" unicode="&#x14b;" horiz-adv-x="577" 
d="M253 -220c-38 0 -89 10 -122 24l39 117c17 -4 54 -13 84 -13c50 0 73 21 81 92l39 360c1 8 2 21 2 27c0 19 -5 27 -20 27c-35 0 -113 -36 -135 -46l-39 -368h-151l58 546h151l-6 -59c40 27 117 73 180 73c82 0 116 -25 116 -112c0 -16 -1 -34 -3 -54l-41 -395
c-19 -184 -113 -219 -233 -219z" />
    <glyph glyph-name="oacute" unicode="&#xf3;" horiz-adv-x="554" 
d="M245 602l-43 91l235 128l53 -115zM228 -12c-133 0 -206 86 -206 211c0 205 109 359 300 359c138 0 205 -93 205 -208c0 -139 -63 -362 -299 -362zM251 112c55 0 123 78 123 237c0 73 -33 89 -78 89c-58 0 -119 -86 -119 -234c0 -57 25 -92 74 -92z" />
    <glyph glyph-name="ograve" unicode="&#xf2;" horiz-adv-x="554" 
d="M388 602l-244 104l54 117l233 -130zM228 -12c-133 0 -206 86 -206 211c0 205 109 359 300 359c138 0 205 -93 205 -208c0 -139 -63 -362 -299 -362zM251 112c55 0 123 78 123 237c0 73 -33 89 -78 89c-58 0 -119 -86 -119 -234c0 -57 25 -92 74 -92z" />
    <glyph glyph-name="ocircumflex" unicode="&#xf4;" horiz-adv-x="554" 
d="M451 605l-120 90l-137 -89l-63 92l215 130l182 -131zM228 -12c-133 0 -206 86 -206 211c0 205 109 359 300 359c138 0 205 -93 205 -208c0 -139 -63 -362 -299 -362zM251 112c55 0 123 78 123 237c0 73 -33 89 -78 89c-58 0 -119 -86 -119 -234c0 -57 25 -92 74 -92z" />
    <glyph glyph-name="odieresis" unicode="&#xf6;" horiz-adv-x="554" 
d="M208 621l-79 89l97 88l79 -88zM436 621l-79 89l97 88l80 -88zM228 -12c-133 0 -206 86 -206 211c0 205 109 359 300 359c138 0 205 -93 205 -208c0 -139 -63 -362 -299 -362zM251 112c55 0 123 78 123 237c0 73 -33 89 -78 89c-58 0 -119 -86 -119 -234
c0 -57 25 -92 74 -92z" />
    <glyph glyph-name="otilde" unicode="&#xf5;" horiz-adv-x="554" 
d="M391 637c-48 0 -84 36 -121 36c-18 0 -38 -2 -67 -26l-60 70c23 27 73 78 137 78c60 0 85 -36 117 -36c30 0 48 6 83 24l52 -70c-22 -24 -70 -76 -141 -76zM228 -12c-133 0 -206 86 -206 211c0 205 109 359 300 359c138 0 205 -93 205 -208c0 -139 -63 -362 -299 -362z
M251 112c55 0 123 78 123 237c0 73 -33 89 -78 89c-58 0 -119 -86 -119 -234c0 -57 25 -92 74 -92z" />
    <glyph glyph-name="obreve" unicode="&#x14f;" horiz-adv-x="554" 
d="M312 621c-70 0 -133 40 -165 93l80 73c27 -33 54 -52 94 -52c48 0 84 23 112 51l63 -76c-29 -36 -95 -89 -184 -89zM228 -12c-133 0 -206 86 -206 211c0 205 109 359 300 359c138 0 205 -93 205 -208c0 -139 -63 -362 -299 -362zM251 112c55 0 123 78 123 237
c0 73 -33 89 -78 89c-58 0 -119 -86 -119 -234c0 -57 25 -92 74 -92z" />
    <glyph glyph-name="ohungarumlaut" unicode="&#x151;" horiz-adv-x="554" 
d="M186 610l-52 68l206 183l76 -98zM426 608l-38 84l240 118l46 -112zM228 -12c-133 0 -206 86 -206 211c0 205 109 359 300 359c138 0 205 -93 205 -208c0 -139 -63 -362 -299 -362zM251 112c55 0 123 78 123 237c0 73 -33 89 -78 89c-58 0 -119 -86 -119 -234
c0 -57 25 -92 74 -92z" />
    <glyph glyph-name="omacron" unicode="&#x14d;" horiz-adv-x="554" 
d="M228 -12c-133 0 -206 86 -206 211c0 205 109 359 300 359c138 0 205 -93 205 -208c0 -139 -63 -362 -299 -362zM251 112c55 0 123 78 123 237c0 73 -33 89 -78 89c-58 0 -119 -86 -119 -234c0 -57 25 -92 74 -92zM188 653l13 122h299l-14 -122h-298z" />
    <glyph glyph-name="oslash" unicode="&#xf8;" horiz-adv-x="577" 
d="M57 -30l-44 37l56 66c-22 34 -34 77 -34 126c0 204 108 359 300 359c50 0 91 -12 122 -34l50 58l43 -41l-50 -58c26 -36 40 -82 40 -133c0 -140 -63 -362 -299 -362c-55 0 -99 15 -132 42zM190 214l177 204c-14 15 -35 20 -58 20c-54 0 -113 -76 -119 -211v-13zM264 112
c53 0 118 73 122 219v20l-181 -210c12 -19 32 -29 59 -29z" />
    <glyph glyph-name="oslashacute" unicode="&#x1ff;" horiz-adv-x="577" 
d="M258 602l-43 91l235 128l53 -115zM57 -30l-44 37l56 66c-22 34 -34 77 -34 126c0 204 108 359 300 359c50 0 91 -12 122 -34l50 58l43 -41l-50 -58c26 -36 40 -82 40 -133c0 -140 -63 -362 -299 -362c-55 0 -99 15 -132 42zM190 214l177 204c-14 15 -35 20 -58 20
c-54 0 -113 -76 -119 -211v-13zM264 112c53 0 118 73 122 219v20l-181 -210c12 -19 32 -29 59 -29z" />
    <glyph glyph-name="uni01D2" unicode="&#x1d2;" horiz-adv-x="554" 
d="M228 -12c-133 0 -206 86 -206 211c0 205 109 359 300 359c138 0 205 -93 205 -208c0 -139 -63 -362 -299 -362zM251 112c55 0 123 78 123 237c0 73 -33 89 -78 89c-58 0 -119 -86 -119 -234c0 -57 25 -92 74 -92zM309 584l-182 131l77 92l120 -90l141 83l58 -84z" />
    <glyph glyph-name="uni01EB" unicode="&#x1eb;" horiz-adv-x="559" 
d="M326 -132l15 -95c-32 -13 -73 -25 -111 -25c-73 0 -140 30 -140 113c0 51 34 97 77 135c-92 23 -141 100 -141 203c0 205 109 359 300 359c138 0 205 -93 205 -208c0 -112 -41 -277 -179 -338c-52 -28 -130 -81 -130 -126c0 -22 18 -33 39 -33c20 0 45 6 65 15zM255 112
c55 0 123 78 123 237c0 73 -33 89 -78 89c-58 0 -119 -86 -119 -234c0 -57 25 -92 74 -92z" />
    <glyph glyph-name="uni01ED" unicode="&#x1ed;" horiz-adv-x="558" 
d="M325 -132l15 -95c-32 -13 -73 -25 -111 -25c-73 0 -140 30 -140 113c0 51 34 97 77 135c-92 23 -141 100 -141 203c0 205 109 359 300 359c138 0 205 -93 205 -208c0 -112 -41 -277 -179 -338c-52 -28 -130 -81 -130 -126c0 -22 18 -33 39 -33c20 0 45 6 65 15zM254 112
c55 0 123 78 123 237c0 73 -33 89 -78 89c-58 0 -119 -86 -119 -234c0 -57 25 -92 74 -92zM182 653l13 122h299l-14 -122h-298z" />
    <glyph glyph-name="uni022F" unicode="&#x22f;" horiz-adv-x="554" 
d="M228 -12c-133 0 -206 86 -206 211c0 205 109 359 300 359c138 0 205 -93 205 -208c0 -139 -63 -362 -299 -362zM251 112c55 0 123 78 123 237c0 73 -33 89 -78 89c-58 0 -119 -86 -119 -234c0 -57 25 -92 74 -92zM324 614l-92 102l113 101l92 -101z" />
    <glyph glyph-name="ohorn" unicode="&#x1a1;" horiz-adv-x="588" 
d="M467 654h147c5 -13 6 -33 6 -49c0 -88 -49 -144 -106 -173c9 -25 13 -53 13 -82c0 -139 -63 -362 -299 -362c-133 0 -206 86 -206 211c0 205 109 359 300 359c41 0 76 -8 105 -23c36 15 44 43 44 83c0 12 -1 24 -4 36zM251 112c55 0 123 78 123 237c0 73 -33 89 -78 89
c-58 0 -119 -86 -119 -234c0 -57 25 -92 74 -92z" />
    <glyph glyph-name="uni1ED3" unicode="&#x1ed3;" horiz-adv-x="554" 
d="M228 -12c-133 0 -206 86 -206 211c0 205 109 359 300 359c138 0 205 -93 205 -208c0 -139 -63 -362 -299 -362zM251 112c55 0 123 78 123 237c0 73 -33 89 -78 89c-58 0 -119 -86 -119 -234c0 -57 25 -92 74 -92zM538 700l-154 163l101 83l140 -177zM192 587l-63 92
l212 121l180 -122l-72 -92l-123 76z" />
    <glyph glyph-name="uni1ED1" unicode="&#x1ed1;" horiz-adv-x="554" 
d="M228 -12c-133 0 -206 86 -206 211c0 205 109 359 300 359c138 0 205 -93 205 -208c0 -139 -63 -362 -299 -362zM251 112c55 0 123 78 123 237c0 73 -33 89 -78 89c-58 0 -119 -86 -119 -234c0 -57 25 -92 74 -92zM479 747l-68 81l158 138l80 -96zM202 587l-63 92l212 121
l180 -122l-72 -92l-123 76z" />
    <glyph glyph-name="uni1ED7" unicode="&#x1ed7;" horiz-adv-x="554" 
d="M228 -12c-133 0 -206 86 -206 211c0 205 109 359 300 359c138 0 205 -93 205 -208c0 -139 -63 -362 -299 -362zM251 112c55 0 123 78 123 237c0 73 -33 89 -78 89c-58 0 -119 -86 -119 -234c0 -57 25 -92 74 -92zM196 586l-63 92l212 121l180 -122l-72 -92l-123 76z
M417 807c-48 0 -83 28 -119 28c-19 0 -38 -2 -63 -24l-52 72c26 27 70 70 135 70c60 0 84 -28 117 -28c27 0 42 5 78 22l45 -74c-27 -22 -68 -66 -141 -66z" />
    <glyph glyph-name="uni1ED5" unicode="&#x1ed5;" horiz-adv-x="554" 
d="M228 -12c-133 0 -206 86 -206 211c0 205 109 359 300 359c138 0 205 -93 205 -208c0 -139 -63 -362 -299 -362zM251 112c55 0 123 78 123 237c0 73 -33 89 -78 89c-58 0 -119 -86 -119 -234c0 -57 25 -92 74 -92zM567 869c0 -58 -34 -111 -87 -141l-70 73
c16 10 32 25 32 45c0 19 -15 28 -34 28c-9 0 -22 -1 -35 -5l-5 97c16 6 49 13 75 13c38 0 71 -10 94 -33c18 -18 30 -44 30 -77zM452 585l-123 76l-134 -75l-63 92l212 121l180 -122z" />
    <glyph glyph-name="uni1ED9" unicode="&#x1ed9;" horiz-adv-x="554" 
d="M228 -12c-133 0 -206 86 -206 211c0 205 109 359 300 359c138 0 205 -93 205 -208c0 -139 -63 -362 -299 -362zM251 112c55 0 123 78 123 237c0 73 -33 89 -78 89c-58 0 -119 -86 -119 -234c0 -57 25 -92 74 -92zM454 605l-120 90l-137 -89l-63 92l215 130l182 -131z
M184 -242l-92 102l113 101l92 -101z" />
    <glyph glyph-name="uni1ECF" unicode="&#x1ecf;" horiz-adv-x="554" 
d="M228 -12c-133 0 -206 86 -206 211c0 205 109 359 300 359c138 0 205 -93 205 -208c0 -139 -63 -362 -299 -362zM251 112c55 0 123 78 123 237c0 73 -33 89 -78 89c-58 0 -119 -86 -119 -234c0 -57 25 -92 74 -92zM457 764c0 -92 -67 -141 -127 -164l-58 84
c23 10 60 28 60 60c0 19 -15 28 -34 28c-9 0 -22 -1 -35 -5l-4 100c15 6 48 13 74 13c38 0 71 -12 94 -35c19 -19 30 -46 30 -81z" />
    <glyph glyph-name="uni1ECD" unicode="&#x1ecd;" horiz-adv-x="554" 
d="M228 -12c-133 0 -206 86 -206 211c0 205 109 359 300 359c138 0 205 -93 205 -208c0 -139 -63 -362 -299 -362zM251 112c55 0 123 78 123 237c0 73 -33 89 -78 89c-58 0 -119 -86 -119 -234c0 -57 25 -92 74 -92zM184 -242l-92 102l113 101l92 -101z" />
    <glyph glyph-name="uni1EDD" unicode="&#x1edd;" horiz-adv-x="588" 
d="M467 654h147c5 -13 6 -33 6 -49c0 -88 -49 -144 -106 -173c9 -25 13 -53 13 -82c0 -139 -63 -362 -299 -362c-133 0 -206 86 -206 211c0 205 109 359 300 359c41 0 76 -8 105 -23c36 15 44 43 44 83c0 12 -1 24 -4 36zM251 112c55 0 123 78 123 237c0 73 -33 89 -78 89
c-58 0 -119 -86 -119 -234c0 -57 25 -92 74 -92zM384 601l-244 104l54 117l233 -130z" />
    <glyph glyph-name="uni1EDB" unicode="&#x1edb;" horiz-adv-x="588" 
d="M467 654h147c5 -13 6 -33 6 -49c0 -88 -49 -144 -106 -173c9 -25 13 -53 13 -82c0 -139 -63 -362 -299 -362c-133 0 -206 86 -206 211c0 205 109 359 300 359c41 0 76 -9 104 -23c37 15 45 43 45 83c0 12 -1 24 -4 36zM251 112c55 0 123 78 123 237c0 73 -33 89 -78 89
c-58 0 -119 -86 -119 -234c0 -57 25 -92 74 -92zM285 601l-43 91l235 128l53 -115z" />
    <glyph glyph-name="uni1EE1" unicode="&#x1ee1;" horiz-adv-x="588" 
d="M467 654h147c5 -13 6 -33 6 -49c0 -88 -49 -144 -106 -173c9 -25 13 -53 13 -82c0 -139 -63 -362 -299 -362c-133 0 -206 86 -206 211c0 205 109 359 300 359c41 0 76 -9 104 -23c37 15 45 43 45 83c0 12 -1 24 -4 36zM251 112c55 0 123 78 123 237c0 73 -33 89 -78 89
c-58 0 -119 -86 -119 -234c0 -57 25 -92 74 -92zM369 649c-48 0 -84 36 -121 36c-18 0 -38 -2 -67 -26l-60 70c23 27 73 78 137 78c60 0 85 -36 117 -36c30 0 48 6 83 24l52 -70c-22 -24 -70 -76 -141 -76z" />
    <glyph glyph-name="uni1EDF" unicode="&#x1edf;" horiz-adv-x="588" 
d="M467 654h147c5 -13 6 -33 6 -49c0 -88 -49 -144 -106 -173c9 -25 13 -53 13 -82c0 -139 -63 -362 -299 -362c-133 0 -206 86 -206 211c0 205 109 359 300 359c41 0 76 -8 105 -23c36 15 44 43 44 83c0 12 -1 24 -4 36zM251 112c55 0 123 78 123 237c0 73 -33 89 -78 89
c-58 0 -119 -86 -119 -234c0 -57 25 -92 74 -92zM458 764c0 -92 -67 -141 -127 -164l-58 84c23 10 60 28 60 60c0 19 -15 28 -34 28c-9 0 -22 -1 -35 -5l-4 100c15 6 48 13 74 13c38 0 71 -12 94 -35c19 -19 30 -46 30 -81z" />
    <glyph glyph-name="uni1EE3" unicode="&#x1ee3;" horiz-adv-x="589" 
d="M467 654h147c5 -13 6 -33 6 -49c0 -88 -49 -144 -106 -173c9 -25 13 -53 13 -82c0 -139 -63 -362 -299 -362c-133 0 -206 86 -206 211c0 205 109 359 300 359c41 0 76 -8 105 -23c36 15 44 43 44 83c0 12 -1 24 -4 36zM251 112c55 0 123 78 123 237c0 73 -33 89 -78 89
c-58 0 -119 -86 -119 -234c0 -57 25 -92 74 -92zM192 -242l-92 102l113 101l92 -101z" />
    <glyph glyph-name="uni007000AF" horiz-adv-x="538" 
d="M10 -220l80 766h151l-4 -40c29 23 88 49 133 49c100 0 150 -53 150 -177c0 -171 -77 -389 -303 -389c-12 0 -23 0 -34 1l-22 -210h-151zM223 107c110 0 147 175 147 269c0 39 -20 55 -40 55c-34 0 -72 -19 -105 -36l-30 -286c9 -1 16 -2 28 -2zM157 653l13 122h299
l-14 -122h-298z" />
    <glyph glyph-name="uni1E57" unicode="&#x1e57;" horiz-adv-x="550" 
d="M8 -220l80 766h151l-4 -40c29 23 88 49 133 49c100 0 150 -53 150 -177c0 -171 -77 -389 -303 -389c-12 0 -23 0 -34 1l-22 -210h-151zM221 107c110 0 147 175 147 269c0 39 -20 55 -40 55c-34 0 -72 -19 -105 -36l-30 -286c9 -1 16 -2 28 -2zM302 614l-92 102l113 101
l92 -101z" />
    <glyph glyph-name="racute" unicode="&#x155;" horiz-adv-x="395" 
d="M210 602l-43 91l235 128l53 -115zM30 0l59 546h150l-6 -55c43 31 93 65 147 65c13 0 16 1 36 -3l-27 -147c-21 4 -36 5 -56 5c-35 0 -82 -31 -112 -52l-40 -359h-151z" />
    <glyph glyph-name="rcaron" unicode="&#x159;" horiz-adv-x="395" 
d="M250 584l-182 131l77 92l120 -90l141 83l58 -84zM30 0l59 546h150l-6 -55c43 31 93 65 147 65c13 0 16 1 36 -3l-27 -147c-21 4 -36 5 -56 5c-35 0 -82 -31 -112 -52l-40 -359h-151z" />
    <glyph glyph-name="rcommaaccent" unicode="&#x157;" horiz-adv-x="395" 
d="M4 -267l33 209h144l-63 -209h-114zM30 0l59 546h150l-6 -55c43 31 93 65 147 65c13 0 16 1 36 -3l-27 -147c-21 4 -36 5 -56 5c-35 0 -82 -31 -112 -52l-40 -359h-151z" />
    <glyph glyph-name="uni1E5F" unicode="&#x1e5f;" horiz-adv-x="395" 
d="M30 0l59 546h150l-6 -55c43 31 93 65 147 65c13 0 16 1 36 -3l-27 -147c-21 4 -36 5 -56 5c-35 0 -82 -31 -112 -52l-40 -359h-151zM-64 -204l13 122h299l-14 -122h-298z" />
    <glyph glyph-name="uni1E5B" unicode="&#x1e5b;" horiz-adv-x="395" 
d="M30 0l59 546h150l-6 -55c43 31 93 65 147 65c13 0 16 1 36 -3l-27 -147c-21 4 -36 5 -56 5c-35 0 -82 -31 -112 -52l-40 -359h-151zM84 -253l-92 102l113 101l92 -101z" />
    <glyph glyph-name="uni1E5D" unicode="&#x1e5d;" horiz-adv-x="395" 
d="M30 0l59 546h150l-6 -55c43 31 93 65 147 65c13 0 16 1 36 -3l-27 -147c-21 4 -36 5 -56 5c-35 0 -82 -31 -112 -52l-40 -359h-151zM81 -253l-92 102l113 101l92 -101zM104 653l13 122h299l-14 -122h-298z" />
    <glyph glyph-name="uni00720325" horiz-adv-x="395" 
d="M30 0l59 546h150l-6 -55c43 31 93 65 147 65c13 0 16 1 36 -3l-27 -147c-21 4 -36 5 -56 5c-35 0 -82 -31 -112 -52l-40 -359h-151zM79 -285c-68 0 -132 28 -132 105c0 90 70 147 157 147c68 0 130 -37 130 -111c0 -91 -69 -141 -155 -141zM87 -211c30 0 55 19 55 52
c0 29 -20 46 -48 46c-34 0 -55 -19 -55 -52c0 -31 20 -46 48 -46z" />
    <glyph glyph-name="uni007203250304" horiz-adv-x="395" 
d="M30 0l59 546h150l-6 -55c43 31 93 65 147 65c13 0 16 1 36 -3l-27 -147c-21 4 -36 5 -56 5c-35 0 -82 -31 -112 -52l-40 -359h-151zM78 -285c-68 0 -132 28 -132 105c0 90 70 147 157 147c68 0 130 -37 130 -111c0 -91 -69 -141 -155 -141zM86 -211c30 0 55 19 55 52
c0 29 -20 46 -48 46c-34 0 -55 -19 -55 -52c0 -31 20 -46 48 -46zM103 653l13 122h299l-14 -122h-298z" />
    <glyph glyph-name="uni1E59" unicode="&#x1e59;" horiz-adv-x="395" 
d="M30 0l59 546h150l-6 -55c43 31 93 65 147 65c13 0 16 1 36 -3l-27 -147c-21 4 -36 5 -56 5c-35 0 -82 -31 -112 -52l-40 -359h-151zM259 614l-92 102l113 101l92 -101z" />
    <glyph glyph-name="uni00720300" horiz-adv-x="395" 
d="M282 602l-244 104l54 117l233 -130zM30 0l59 546h150l-6 -55c43 31 93 65 147 65c13 0 16 1 36 -3l-27 -147c-21 4 -36 5 -56 5c-35 0 -82 -31 -112 -52l-40 -359h-151z" />
    <glyph glyph-name="sacute" unicode="&#x15b;" horiz-adv-x="453" 
d="M183 602l-43 91l235 128l53 -115zM175 -11c-55 0 -128 10 -185 36l40 117c51 -17 110 -28 157 -28c41 0 76 11 76 43c0 57 -209 90 -209 233c0 126 95 169 207 169c62 0 143 -14 177 -31l-37 -112c-44 13 -88 23 -132 23c-36 0 -69 -4 -69 -40c0 -61 211 -107 211 -242
c0 -150 -146 -168 -236 -168z" />
    <glyph glyph-name="scedilla" unicode="&#x15f;" horiz-adv-x="453" 
d="M84 -275l-42 90c29 17 76 38 80 71c2 20 -3 42 -7 63h119c9 -24 17 -51 14 -78c-8 -75 -96 -119 -164 -146zM175 -11c-55 0 -128 10 -185 36l40 117c51 -17 110 -28 157 -28c41 0 76 11 76 43c0 57 -209 90 -209 233c0 126 95 169 207 169c62 0 143 -14 177 -31l-37 -112
c-44 13 -88 23 -132 23c-36 0 -69 -4 -69 -40c0 -61 211 -107 211 -242c0 -150 -146 -168 -236 -168z" />
    <glyph glyph-name="scaron" unicode="&#x161;" horiz-adv-x="453" 
d="M252 584l-182 131l77 92l120 -90l141 83l58 -84zM175 -11c-55 0 -128 10 -185 36l40 117c51 -17 110 -28 157 -28c41 0 76 11 76 43c0 57 -209 90 -209 233c0 126 95 169 207 169c62 0 143 -14 177 -31l-37 -112c-44 13 -88 23 -132 23c-36 0 -69 -4 -69 -40
c0 -61 211 -107 211 -242c0 -150 -146 -168 -236 -168z" />
    <glyph glyph-name="scircumflex" unicode="&#x15d;" horiz-adv-x="453" 
d="M399 605l-120 90l-137 -89l-63 92l215 130l182 -131zM175 -11c-55 0 -128 10 -185 36l40 117c51 -17 110 -28 157 -28c41 0 76 11 76 43c0 57 -209 90 -209 233c0 126 95 169 207 169c62 0 143 -14 177 -31l-37 -112c-44 13 -88 23 -132 23c-36 0 -69 -4 -69 -40
c0 -61 211 -107 211 -242c0 -150 -146 -168 -236 -168z" />
    <glyph glyph-name="uni00730331" horiz-adv-x="453" 
d="M175 -11c-55 0 -128 10 -185 36l40 117c51 -17 110 -28 157 -28c41 0 76 11 76 43c0 57 -209 90 -209 233c0 126 95 169 207 169c62 0 143 -14 177 -31l-37 -112c-44 13 -88 23 -132 23c-36 0 -69 -4 -69 -40c0 -61 211 -107 211 -242c0 -150 -146 -168 -236 -168z
M24 -204l13 122h299l-14 -122h-298z" />
    <glyph glyph-name="uni00730300" horiz-adv-x="453" 
d="M175 -11c-55 0 -128 10 -185 36l40 117c51 -17 110 -28 157 -28c41 0 76 11 76 43c0 57 -209 90 -209 233c0 126 95 169 207 169c62 0 143 -14 177 -31l-37 -112c-44 13 -88 23 -132 23c-36 0 -69 -4 -69 -40c0 -61 211 -107 211 -242c0 -150 -146 -168 -236 -168z
M339 601l-244 104l54 117l233 -130z" />
    <glyph glyph-name="uni1E61" unicode="&#x1e61;" horiz-adv-x="453" 
d="M175 -11c-55 0 -128 10 -185 36l40 117c51 -17 110 -28 157 -28c41 0 76 11 76 43c0 57 -209 90 -209 233c0 126 95 169 207 169c62 0 143 -14 177 -31l-37 -112c-44 13 -88 23 -132 23c-36 0 -69 -4 -69 -40c0 -61 211 -107 211 -242c0 -150 -146 -168 -236 -168z
M253 614l-92 102l113 101l92 -101z" />
    <glyph glyph-name="uni00730306" horiz-adv-x="453" 
d="M260 621c-70 0 -133 40 -165 93l80 73c27 -33 54 -52 94 -52c48 0 84 23 112 51l63 -76c-29 -36 -95 -89 -184 -89zM175 -11c-55 0 -128 10 -185 36l40 117c51 -17 110 -28 157 -28c41 0 76 11 76 43c0 57 -209 90 -209 233c0 126 95 169 207 169c62 0 143 -14 177 -31
l-37 -112c-44 13 -88 23 -132 23c-36 0 -69 -4 -69 -40c0 -61 211 -107 211 -242c0 -150 -146 -168 -236 -168z" />
    <glyph glyph-name="uni1E63" unicode="&#x1e63;" horiz-adv-x="453" 
d="M161 -253l-92 102l113 101l92 -101zM175 -11c-55 0 -128 10 -185 36l40 117c51 -17 110 -28 157 -28c41 0 76 11 76 43c0 57 -209 90 -209 233c0 126 95 169 207 169c62 0 143 -14 177 -31l-37 -112c-44 13 -88 23 -132 23c-36 0 -69 -4 -69 -40c0 -61 211 -107 211 -242
c0 -150 -146 -168 -236 -168z" />
    <glyph glyph-name="scommaaccent" unicode="&#x219;" horiz-adv-x="453" 
d="M61 -267l33 209h144l-63 -209h-114zM175 -11c-55 0 -128 10 -185 36l40 117c51 -17 110 -28 157 -28c41 0 76 11 76 43c0 57 -209 90 -209 233c0 126 95 169 207 169c62 0 143 -14 177 -31l-37 -112c-44 13 -88 23 -132 23c-36 0 -69 -4 -69 -40c0 -61 211 -107 211 -242
c0 -150 -146 -168 -236 -168z" />
    <glyph glyph-name="germandbls" unicode="&#xdf;" horiz-adv-x="639" 
d="M8 -220l81 772c18 165 117 223 268 223c94 0 202 -45 202 -163c0 -119 -131 -159 -131 -214c0 -60 184 -90 184 -237c0 -132 -121 -173 -236 -173c-58 0 -111 9 -158 27l29 116c37 -9 77 -21 119 -21c49 0 97 12 97 41c0 74 -176 88 -176 224c0 97 127 156 127 226
c0 37 -41 50 -72 50c-76 0 -97 -45 -102 -100l-81 -771h-151z" />
    <glyph glyph-name="tbar" unicode="&#x167;" horiz-adv-x="438" 
d="M32 244l10 104h57l10 86h-80l13 112h82l11 112h150l-12 -112h139l-11 -112h-141l-10 -86h103l-11 -104h-103l-9 -89c-3 -28 3 -36 21 -36c23 0 75 7 121 22l27 -111c-43 -21 -111 -42 -184 -42c-98 0 -138 32 -138 127c0 16 1 33 3 52l8 77h-56z" />
    <glyph glyph-name="tcaron" unicode="&#x165;" horiz-adv-x="438" 
d="M324 616l33 209h144l-63 -209h-114zM215 -12c-98 0 -138 32 -138 127c0 16 1 33 3 52l29 267h-80l13 112h82l11 112h150l-12 -112h139l-11 -112h-141l-30 -279c-3 -28 3 -36 21 -36c23 0 75 7 121 22l27 -111c-43 -21 -111 -42 -184 -42z" />
    <glyph glyph-name="uni021B" unicode="&#x21b;" horiz-adv-x="438" 
d="M96 -267l33 209h144l-63 -209h-114zM215 -12c-98 0 -138 32 -138 127c0 16 1 33 3 52l29 267h-80l13 112h82l11 112h150l-12 -112h139l-11 -112h-141l-30 -279c-3 -28 3 -36 21 -36c23 0 75 7 121 22l27 -111c-43 -21 -111 -42 -184 -42z" />
    <glyph glyph-name="tcommaaccent" unicode="&#x163;" horiz-adv-x="438" 
d="M96 -267l33 209h144l-63 -209h-114zM215 -12c-98 0 -138 32 -138 127c0 16 1 33 3 52l29 267h-80l13 112h82l11 112h150l-12 -112h139l-11 -112h-141l-30 -279c-3 -28 3 -36 21 -36c23 0 75 7 121 22l27 -111c-43 -21 -111 -42 -184 -42z" />
    <glyph glyph-name="uni1E6F" unicode="&#x1e6f;" horiz-adv-x="438" 
d="M215 -12c-98 0 -138 32 -138 127c0 16 1 33 3 52l29 267h-80l13 112h82l11 112h150l-12 -112h139l-11 -112h-141l-30 -279c-3 -28 3 -36 21 -36c23 0 75 7 121 22l27 -111c-43 -21 -111 -42 -184 -42zM39 -204l13 122h299l-14 -122h-298z" />
    <glyph glyph-name="uni1E6D" unicode="&#x1e6d;" horiz-adv-x="438" 
d="M215 -12c-98 0 -138 32 -138 127c0 16 1 33 3 52l29 267h-80l13 112h82l11 112h150l-12 -112h139l-11 -112h-141l-30 -279c-3 -28 3 -36 21 -36c23 0 75 7 121 22l27 -111c-43 -21 -111 -42 -184 -42zM177 -253l-92 102l113 101l92 -101z" />
    <glyph glyph-name="uni1E97" unicode="&#x1e97;" horiz-adv-x="438" 
d="M215 -12c-98 0 -138 32 -138 127c0 16 1 33 3 52l29 267h-80l13 112h82l11 112h150l-12 -112h139l-11 -112h-141l-30 -279c-3 -28 3 -36 21 -36c23 0 75 7 121 22l27 -111c-43 -21 -111 -42 -184 -42zM94 701l-79 89l97 88l79 -88zM322 701l-79 89l97 88l80 -88z" />
    <glyph glyph-name="uni1E6B" unicode="&#x1e6b;" horiz-adv-x="438" 
d="M215 -12c-98 0 -138 32 -138 127c0 16 1 33 3 52l29 267h-80l13 112h82l11 112h150l-12 -112h139l-11 -112h-141l-30 -279c-3 -28 3 -36 21 -36c23 0 75 7 121 22l27 -111c-43 -21 -111 -42 -184 -42zM210 719l-96 107l118 106l96 -106z" />
    <glyph glyph-name="uacute" unicode="&#xfa;" horiz-adv-x="576" 
d="M167 -12c-85 0 -126 22 -126 123c0 16 1 34 3 55l40 380h152l-40 -373c-1 -5 -1 -11 -1 -15c0 -24 9 -33 27 -33c40 0 102 33 126 46l40 375h151l-58 -546h-151l7 59c-42 -32 -108 -71 -170 -71zM245 601l-43 91l235 128l53 -115z" />
    <glyph glyph-name="ugrave" unicode="&#xf9;" horiz-adv-x="576" 
d="M167 -12c-85 0 -126 22 -126 123c0 16 1 34 3 55l40 380h152l-40 -373c-1 -5 -1 -11 -1 -15c0 -24 9 -33 27 -33c40 0 102 33 126 46l40 375h151l-58 -546h-151l7 59c-42 -32 -108 -71 -170 -71zM379 601l-244 104l54 117l233 -130z" />
    <glyph glyph-name="ucircumflex" unicode="&#xfb;" horiz-adv-x="576" 
d="M167 -12c-85 0 -126 22 -126 123c0 16 1 34 3 55l40 380h152l-40 -373c-1 -5 -1 -11 -1 -15c0 -24 9 -33 27 -33c40 0 102 33 126 46l40 375h151l-58 -546h-151l7 59c-42 -32 -108 -71 -170 -71zM450 605l-120 90l-137 -89l-63 92l215 130l182 -131z" />
    <glyph glyph-name="udieresis" unicode="&#xfc;" horiz-adv-x="576" 
d="M167 -12c-85 0 -126 22 -126 123c0 16 1 34 3 55l40 380h152l-40 -373c-1 -5 -1 -11 -1 -15c0 -24 9 -33 27 -33c40 0 102 33 126 46l40 375h151l-58 -546h-151l7 59c-42 -32 -108 -71 -170 -71zM199 621l-79 89l97 88l79 -88zM427 621l-79 89l97 88l80 -88z" />
    <glyph glyph-name="ubreve" unicode="&#x16d;" horiz-adv-x="576" 
d="M167 -12c-85 0 -126 22 -126 123c0 16 1 34 3 55l40 380h152l-40 -373c-1 -5 -1 -11 -1 -15c0 -24 9 -33 27 -33c40 0 102 33 126 46l40 375h151l-58 -546h-151l7 59c-42 -32 -108 -71 -170 -71zM323 620c-70 0 -133 40 -165 93l80 73c27 -33 54 -52 94 -52
c48 0 84 23 112 51l63 -76c-29 -36 -95 -89 -184 -89z" />
    <glyph glyph-name="uhungarumlaut" unicode="&#x171;" horiz-adv-x="576" 
d="M167 -12c-85 0 -126 22 -126 123c0 16 1 34 3 55l40 380h152l-40 -373c-1 -5 -1 -11 -1 -15c0 -24 9 -33 27 -33c40 0 102 33 126 46l40 375h151l-58 -546h-151l7 59c-42 -32 -108 -71 -170 -71zM166 610l-52 68l206 183l76 -98zM406 608l-38 84l240 118l46 -112z" />
    <glyph glyph-name="umacron" unicode="&#x16b;" horiz-adv-x="576" 
d="M167 -12c-85 0 -126 22 -126 123c0 16 1 34 3 55l40 380h152l-40 -373c-1 -5 -1 -11 -1 -15c0 -24 9 -33 27 -33c40 0 102 33 126 46l40 375h151l-58 -546h-151l7 59c-42 -32 -108 -71 -170 -71zM174 653l13 122h299l-14 -122h-298z" />
    <glyph glyph-name="uogonek" unicode="&#x173;" horiz-adv-x="576" 
d="M372 -254c-96 0 -130 39 -130 113c0 48 43 109 89 144l6 56c-42 -32 -108 -71 -170 -71c-85 0 -126 22 -126 123c0 16 1 34 3 55l40 380h152l-40 -373c-1 -10 -1 -19 0 -26c3 -16 11 -22 26 -22c40 0 102 33 126 46l40 375h151l-59 -546c-48 -29 -104 -74 -108 -114
c-2 -22 17 -26 35 -26c20 0 49 2 69 8l15 -98c-31 -14 -59 -24 -119 -24z" />
    <glyph glyph-name="uring" unicode="&#x16f;" horiz-adv-x="576" 
d="M167 -12c-85 0 -126 22 -126 123c0 16 1 34 3 55l40 380h152l-40 -373c-1 -5 -1 -11 -1 -15c0 -24 9 -33 27 -33c40 0 102 33 126 46l40 375h151l-58 -546h-151l7 59c-42 -32 -108 -71 -170 -71zM323 589c-68 0 -132 28 -132 105c0 90 70 147 157 147
c68 0 130 -37 130 -111c0 -91 -69 -141 -155 -141zM331 663c30 0 55 19 55 52c0 29 -20 46 -48 46c-34 0 -55 -19 -55 -52c0 -31 20 -46 48 -46z" />
    <glyph glyph-name="utilde" unicode="&#x169;" horiz-adv-x="576" 
d="M167 -12c-85 0 -126 22 -126 123c0 16 1 34 3 55l40 380h152l-40 -373c-1 -5 -1 -11 -1 -15c0 -24 9 -33 27 -33c40 0 102 33 126 46l40 375h151l-58 -546h-151l7 59c-42 -32 -108 -71 -170 -71zM382 637c-48 0 -84 36 -121 36c-18 0 -38 -2 -67 -26l-60 70
c23 27 73 78 137 78c60 0 85 -36 117 -36c30 0 48 6 83 24l52 -70c-22 -24 -70 -76 -141 -76z" />
    <glyph glyph-name="uhorn" unicode="&#x1b0;" horiz-adv-x="618" 
d="M512 665h147c5 -13 6 -33 6 -49c0 -100 -68 -162 -138 -185l-46 -431h-151l7 59c-42 -32 -108 -71 -170 -71c-85 0 -126 22 -126 123c0 16 1 34 3 55l40 380h152l-40 -373c-1 -5 -1 -11 -1 -15c0 -24 9 -33 27 -33c40 0 102 33 126 46l40 375h83c40 13 45 43 45 83
c0 12 -1 24 -4 36z" />
    <glyph glyph-name="uni1EE7" unicode="&#x1ee7;" horiz-adv-x="576" 
d="M167 -12c-85 0 -126 22 -126 123c0 16 1 34 3 55l40 380h152l-40 -373c-1 -5 -1 -11 -1 -15c0 -24 9 -33 27 -33c40 0 102 33 126 46l40 375h151l-58 -546h-151l7 59c-42 -32 -108 -71 -170 -71zM445 764c0 -92 -67 -141 -127 -164l-58 84c23 10 60 28 60 60
c0 19 -15 28 -34 28c-9 0 -22 -1 -35 -5l-4 100c15 6 48 13 74 13c38 0 71 -12 94 -35c19 -19 30 -46 30 -81z" />
    <glyph glyph-name="uni1EE5" unicode="&#x1ee5;" horiz-adv-x="576" 
d="M167 -12c-85 0 -126 22 -126 123c0 16 1 34 3 55l40 380h152l-40 -373c-1 -5 -1 -11 -1 -15c0 -24 9 -33 27 -33c40 0 102 33 126 46l40 375h151l-58 -546h-151l7 59c-42 -32 -108 -71 -170 -71zM239 -242l-92 102l113 101l92 -101z" />
    <glyph glyph-name="uni1EEB" unicode="&#x1eeb;" horiz-adv-x="618" 
d="M512 665h147c5 -13 6 -33 6 -49c0 -100 -68 -162 -138 -185l-46 -431h-151l7 59c-42 -32 -108 -71 -170 -71c-85 0 -126 22 -126 123c0 16 1 34 3 55l40 380h152l-40 -373c-1 -5 -1 -11 -1 -15c0 -24 9 -33 27 -33c40 0 102 33 126 46l40 375h83c40 13 45 43 45 83
c0 12 -1 24 -4 36zM402 601l-244 104l54 117l233 -130z" />
    <glyph glyph-name="uni1EE9" unicode="&#x1ee9;" horiz-adv-x="618" 
d="M512 665h147c5 -13 6 -33 6 -49c0 -100 -68 -162 -138 -185l-46 -431h-151l7 59c-42 -32 -108 -71 -170 -71c-85 0 -126 22 -126 123c0 16 1 34 3 55l40 380h152l-40 -373c-1 -5 -1 -11 -1 -15c0 -24 9 -33 27 -33c40 0 102 33 126 46l40 375h83c40 13 45 43 45 83
c0 12 -1 24 -4 36zM288 601l-43 91l235 128l53 -115z" />
    <glyph glyph-name="uni1EEF" unicode="&#x1eef;" horiz-adv-x="618" 
d="M512 665h147c5 -13 6 -33 6 -49c0 -100 -68 -162 -138 -185l-46 -431h-151l7 59c-42 -32 -108 -71 -170 -71c-85 0 -126 22 -126 123c0 16 1 34 3 55l40 380h152l-40 -373c-1 -5 -1 -11 -1 -15c0 -24 9 -33 27 -33c40 0 102 33 126 46l40 375h83c40 13 45 43 45 83
c0 12 -1 24 -4 36zM386 647c-48 0 -84 36 -121 36c-18 0 -38 -2 -67 -26l-60 70c23 27 73 78 137 78c60 0 85 -36 117 -36c30 0 48 6 83 24l52 -70c-22 -24 -70 -76 -141 -76z" />
    <glyph glyph-name="uni1EED" unicode="&#x1eed;" horiz-adv-x="618" 
d="M512 665h147c5 -13 6 -33 6 -49c0 -100 -68 -162 -138 -185l-46 -431h-151l7 59c-42 -32 -108 -71 -170 -71c-85 0 -126 22 -126 123c0 16 1 34 3 55l40 380h152l-40 -373c-1 -5 -1 -11 -1 -15c0 -24 9 -33 27 -33c40 0 102 33 126 46l40 375h83c40 13 45 43 45 83
c0 12 -1 24 -4 36zM445 764c0 -92 -67 -141 -127 -164l-58 84c23 10 60 28 60 60c0 19 -15 28 -34 28c-9 0 -22 -1 -35 -5l-4 100c15 6 48 13 74 13c38 0 71 -12 94 -35c19 -19 30 -46 30 -81z" />
    <glyph glyph-name="uni1EF1" unicode="&#x1ef1;" horiz-adv-x="618" 
d="M512 665h147c5 -13 6 -33 6 -49c0 -100 -68 -162 -138 -185l-46 -431h-151l7 59c-42 -32 -108 -71 -170 -71c-85 0 -126 22 -126 123c0 16 1 34 3 55l40 380h152l-40 -373c-1 -5 -1 -11 -1 -15c0 -24 9 -33 27 -33c40 0 102 33 126 46l40 375h83c40 13 45 43 45 83
c0 12 -1 24 -4 36zM245 -242l-92 102l113 101l92 -101z" />
    <glyph glyph-name="uni01D4" unicode="&#x1d4;" horiz-adv-x="576" 
d="M167 -12c-85 0 -126 22 -126 123c0 16 1 34 3 55l40 380h152l-40 -373c-1 -5 -1 -11 -1 -15c0 -24 9 -33 27 -33c40 0 102 33 126 46l40 375h151l-58 -546h-151l7 59c-42 -32 -108 -71 -170 -71zM311 584l-182 131l77 92l120 -90l141 83l58 -84z" />
    <glyph glyph-name="uni01D6" unicode="&#x1d6;" horiz-adv-x="576" 
d="M167 -12c-85 0 -126 22 -126 123c0 16 1 34 3 55l40 380h152l-40 -373c-1 -5 -1 -11 -1 -15c0 -24 9 -33 27 -33c40 0 102 33 126 46l40 375h151l-58 -546h-151l7 59c-42 -32 -108 -71 -170 -71zM199 601l-79 89l97 88l79 -88zM427 601l-79 89l97 88l80 -88zM178 799
l13 122h299l-14 -122h-298z" />
    <glyph glyph-name="uni01D8" unicode="&#x1d8;" horiz-adv-x="576" 
d="M167 -12c-85 0 -126 22 -126 123c0 16 1 34 3 55l40 380h152l-40 -373c-1 -5 -1 -11 -1 -15c0 -24 9 -33 27 -33c40 0 102 33 126 46l40 375h151l-58 -546h-151l7 59c-42 -32 -108 -71 -170 -71zM199 601l-79 89l97 88l79 -88zM427 601l-79 89l97 88l80 -88zM286 769
l-43 91l235 128l53 -115z" />
    <glyph glyph-name="uni01DA" unicode="&#x1da;" horiz-adv-x="576" 
d="M167 -12c-85 0 -126 22 -126 123c0 16 1 34 3 55l40 380h152l-40 -373c-1 -5 -1 -11 -1 -15c0 -24 9 -33 27 -33c40 0 102 33 126 46l40 375h151l-58 -546h-151l7 59c-42 -32 -108 -71 -170 -71zM199 601l-79 89l97 88l79 -88zM427 601l-79 89l97 88l80 -88zM322 768
l-182 131l77 92l120 -90l141 83l58 -84z" />
    <glyph glyph-name="uni01DC" unicode="&#x1dc;" horiz-adv-x="576" 
d="M167 -12c-85 0 -126 22 -126 123c0 16 1 34 3 55l40 380h152l-40 -373c-1 -5 -1 -11 -1 -15c0 -24 9 -33 27 -33c40 0 102 33 126 46l40 375h151l-58 -546h-151l7 59c-42 -32 -108 -71 -170 -71zM199 601l-79 89l97 88l79 -88zM427 601l-79 89l97 88l80 -88zM351 765
l-244 104l54 117l233 -130z" />
    <glyph glyph-name="uni00760304" horiz-adv-x="543" 
d="M122 0l-81 546h160l40 -400l102 208c23 48 36 102 36 149c0 15 -1 29 -3 43h161c4 -14 5 -28 5 -43c0 -62 -25 -126 -50 -174l-170 -329h-200zM161 653l13 122h299l-14 -122h-298z" />
    <glyph glyph-name="uni1E7F" unicode="&#x1e7f;" horiz-adv-x="542" 
d="M121 0l-81 546h160l40 -400l102 208c23 48 36 102 36 149c0 15 -1 29 -3 43h161c4 -14 5 -28 5 -43c0 -62 -25 -126 -50 -174l-170 -329h-200zM203 -253l-92 102l113 101l92 -101z" />
    <glyph glyph-name="uni1E7D" unicode="&#x1e7d;" horiz-adv-x="543" 
d="M122 0l-81 546h160l40 -400l102 208c23 48 36 102 36 149c0 15 -1 29 -3 43h161c4 -14 5 -28 5 -43c0 -62 -25 -126 -50 -174l-170 -329h-200zM351 637c-48 0 -84 36 -121 36c-18 0 -38 -2 -67 -26l-60 70c23 27 73 78 137 78c60 0 85 -36 117 -36c30 0 48 6 83 24
l52 -70c-22 -24 -70 -76 -141 -76z" />
    <glyph glyph-name="wacute" unicode="&#x1e83;" horiz-adv-x="857" 
d="M383 602l-43 91l235 128l53 -115zM113 0l-70 546h160l30 -400l142 278l-17 122h159l41 -400c27 47 101 208 101 208c24 48 37 101 37 149c0 14 -1 29 -4 43h161c3 -14 5 -29 5 -44c0 -62 -25 -126 -49 -173l-171 -329h-200l-36 245l-130 -245h-159z" />
    <glyph glyph-name="wcircumflex" unicode="&#x175;" horiz-adv-x="857" 
d="M595 605l-120 90l-137 -89l-63 92l215 130l182 -131zM113 0l-70 546h160l30 -400l142 278l-17 122h159l41 -400c27 47 101 208 101 208c24 48 37 101 37 149c0 14 -1 29 -4 43h161c3 -14 5 -29 5 -44c0 -62 -25 -126 -49 -173l-171 -329h-200l-36 245l-130 -245h-159z
" />
    <glyph glyph-name="wdieresis" unicode="&#x1e85;" horiz-adv-x="857" 
d="M339 621l-79 89l97 88l79 -88zM567 621l-79 89l97 88l80 -88zM113 0l-70 546h160l30 -400l142 278l-17 122h159l41 -400c27 47 101 208 101 208c24 48 37 101 37 149c0 14 -1 29 -4 43h161c3 -14 5 -29 5 -44c0 -62 -25 -126 -49 -173l-171 -329h-200l-36 245l-130 -245
h-159z" />
    <glyph glyph-name="wgrave" unicode="&#x1e81;" horiz-adv-x="857" 
d="M520 602l-244 104l54 117l233 -130zM113 0l-70 546h160l30 -400l142 278l-17 122h159l41 -400c27 47 101 208 101 208c24 48 37 101 37 149c0 14 -1 29 -4 43h161c3 -14 5 -29 5 -44c0 -62 -25 -126 -49 -173l-171 -329h-200l-36 245l-130 -245h-159z" />
    <glyph glyph-name="uni1E87" unicode="&#x1e87;" horiz-adv-x="857" 
d="M113 0l-70 546h160l30 -400l142 278l-17 122h159l41 -400c27 47 101 208 101 208c24 48 37 101 37 149c0 14 -1 29 -4 43h161c3 -14 5 -29 5 -44c0 -62 -25 -126 -49 -173l-171 -329h-200l-36 245l-130 -245h-159zM448 614l-92 102l113 101l92 -101z" />
    <glyph glyph-name="uni1E89" unicode="&#x1e89;" horiz-adv-x="856" 
d="M112 0l-70 546h160l30 -400l142 278l-17 122h159l41 -400c27 47 101 208 101 208c24 48 37 101 37 149c0 14 -1 29 -4 43h161c3 -14 5 -29 5 -44c0 -62 -25 -126 -49 -173l-171 -329h-200l-36 245l-130 -245h-159zM370 -253l-92 102l113 101l92 -101z" />
    <glyph glyph-name="uni00780304" horiz-adv-x="536" 
d="M-37 0l225 279l-131 267h162l69 -144l115 144h158l-211 -266l137 -280h-164l-74 156l-122 -156h-164zM161 653l13 122h299l-14 -122h-298z" />
    <glyph glyph-name="uni1E8B" unicode="&#x1e8b;" horiz-adv-x="536" 
d="M-37 0l225 279l-131 267h162l69 -144l115 144h158l-211 -266l137 -280h-164l-74 156l-122 -156h-164zM312 614l-92 102l113 101l92 -101z" />
    <glyph glyph-name="ydieresis" unicode="&#xff;" horiz-adv-x="542" 
d="M184 621l-79 89l97 88l79 -88zM412 621l-79 89l97 88l80 -88zM49 -220l114 220h-41l-80 546h160l40 -400c27 47 102 208 102 208c23 48 36 102 36 149c0 15 -1 29 -3 43h162c3 -14 4 -29 4 -43c0 -62 -25 -126 -50 -174l-285 -549h-159z" />
    <glyph glyph-name="ycircumflex" unicode="&#x177;" horiz-adv-x="542" 
d="M437 605l-120 90l-137 -89l-63 92l215 130l182 -131zM49 -220l114 220h-41l-80 546h160l40 -400c27 47 102 208 102 208c23 48 36 102 36 149c0 15 -1 29 -3 43h162c3 -14 4 -29 4 -43c0 -62 -25 -126 -50 -174l-285 -549h-159z" />
    <glyph glyph-name="uni0233" unicode="&#x233;" horiz-adv-x="542" 
d="M49 -220l114 220h-41l-80 546h160l40 -400c27 47 102 208 102 208c23 48 36 102 36 149c0 15 -1 29 -3 43h162c3 -14 4 -29 4 -43c0 -62 -25 -126 -50 -174l-285 -549h-159zM162 653l13 122h299l-14 -122h-298z" />
    <glyph glyph-name="ygrave" unicode="&#x1ef3;" horiz-adv-x="542" 
d="M391 602l-244 104l54 117l233 -130zM49 -220l114 220h-41l-80 546h160l40 -400c27 47 102 208 102 208c23 48 36 102 36 149c0 15 -1 29 -3 43h162c3 -14 4 -29 4 -43c0 -62 -25 -126 -50 -174l-285 -549h-159z" />
    <glyph glyph-name="yacute" unicode="&#xfd;" horiz-adv-x="542" 
d="M271 602l-43 91l235 128l53 -115zM49 -220l114 220h-41l-80 546h160l40 -400c27 47 102 208 102 208c23 48 36 102 36 149c0 15 -1 29 -3 43h162c3 -14 4 -29 4 -43c0 -62 -25 -126 -50 -174l-285 -549h-159z" />
    <glyph glyph-name="uni1E8F" unicode="&#x1e8f;" horiz-adv-x="542" 
d="M49 -220l114 220h-41l-80 546h160l40 -400c27 47 102 208 102 208c23 48 36 102 36 149c0 15 -1 29 -3 43h162c3 -14 4 -29 4 -43c0 -62 -25 -126 -50 -174l-285 -549h-159zM299 614l-92 102l113 101l92 -101z" />
    <glyph glyph-name="uni1EF9" unicode="&#x1ef9;" horiz-adv-x="542" 
d="M49 -220l114 220h-41l-80 546h160l40 -400c27 47 102 208 102 208c23 48 36 102 36 149c0 15 -1 29 -3 43h162c3 -14 4 -29 4 -43c0 -62 -25 -126 -50 -174l-285 -549h-159zM379 637c-48 0 -84 36 -121 36c-18 0 -38 -2 -67 -26l-60 70c23 27 73 78 137 78
c60 0 85 -36 117 -36c30 0 48 6 83 24l52 -70c-22 -24 -70 -76 -141 -76z" />
    <glyph glyph-name="uni1EF7" unicode="&#x1ef7;" horiz-adv-x="542" 
d="M49 -220l114 220h-41l-80 546h160l40 -400c27 47 102 208 102 208c23 48 36 102 36 149c0 15 -1 29 -3 43h162c3 -14 4 -29 4 -43c0 -62 -25 -126 -50 -174l-285 -549h-159zM438 764c0 -92 -67 -141 -127 -164l-58 84c23 10 60 28 60 60c0 19 -15 28 -34 28
c-9 0 -22 -1 -35 -5l-4 100c15 6 48 13 74 13c38 0 71 -12 94 -35c19 -19 30 -46 30 -81z" />
    <glyph glyph-name="uni1EF5" unicode="&#x1ef5;" horiz-adv-x="542" 
d="M49 -220l114 220h-41l-80 546h160l40 -400c27 47 102 208 102 208c23 48 36 102 36 149c0 15 -1 29 -3 43h162c3 -14 4 -29 4 -43c0 -62 -25 -126 -50 -174l-285 -549h-159zM408 -242l-92 102l113 101l92 -101z" />
    <glyph glyph-name="zacute" unicode="&#x17a;" horiz-adv-x="489" 
d="M212 602l-43 91l235 128l53 -115zM-7 0l13 103l278 321h-223l16 122h403l-12 -101l-271 -323h238l-13 -122h-429z" />
    <glyph glyph-name="zcaron" unicode="&#x17e;" horiz-adv-x="489" 
d="M279 584l-182 131l77 92l120 -90l141 83l58 -84zM-7 0l13 103l278 321h-223l16 122h403l-12 -101l-271 -323h238l-13 -122h-429z" />
    <glyph glyph-name="zdotaccent" unicode="&#x17c;" horiz-adv-x="489" 
d="M-7 0l13 103l278 321h-223l16 122h403l-12 -101l-271 -323h238l-13 -122h-429zM283 614l-92 102l113 101l92 -101z" />
    <glyph glyph-name="uni1E95" unicode="&#x1e95;" horiz-adv-x="488" 
d="M-8 0l13 103l278 321h-223l16 122h403l-12 -101l-271 -323h238l-13 -122h-429zM34 -204l13 122h299l-14 -122h-298z" />
    <glyph glyph-name="uni1E93" unicode="&#x1e93;" horiz-adv-x="488" 
d="M-8 0l13 103l278 321h-223l16 122h403l-12 -101l-271 -323h238l-13 -122h-429zM190 -253l-92 102l113 101l92 -101z" />
    <glyph glyph-name="uni007A0324" horiz-adv-x="488" 
d="M-8 0l13 103l278 321h-223l16 122h403l-12 -101l-271 -323h238l-13 -122h-429zM76 -238l-79 89l97 88l79 -88zM304 -238l-79 89l97 88l80 -88z" />
    <glyph glyph-name="thorn" unicode="&#xfe;" horiz-adv-x="579" 
d="M8 -220l102 974h153l-28 -259c42 29 107 52 155 52c101 0 158 -51 158 -178c0 -198 -91 -384 -332 -384c-12 0 -24 1 -35 2l-22 -207h-151zM222 104c139 0 170 149 170 263c0 39 -19 56 -40 56c-44 0 -88 -21 -128 -40l-30 -277c10 -1 16 -2 28 -2z" />
    <glyph glyph-name="uni04D9" unicode="&#x4d9;" horiz-adv-x="514" 
d="M316 558c139 0 165 -113 165 -210c0 -177 -93 -363 -299 -363c-126 0 -180 72 -180 147c0 102 92 147 184 176l140 44v13c0 49 -12 68 -47 68c-37 0 -93 -20 -164 -59l-52 101c78 51 152 83 253 83zM313 237l-124 -46c-32 -12 -43 -30 -43 -52s19 -36 39 -36
c60 0 108 48 128 134z" />
    <glyph glyph-name="eth" unicode="&#xf0;" horiz-adv-x="567" 
d="M228 -12c-132 0 -205 87 -205 211c0 195 98 345 273 358c7 1 13 0 19 -1l-25 41l-55 -37l-35 51l49 33c-16 16 -28 25 -31 28l104 98c15 -10 29 -22 43 -36l55 37l35 -51l-47 -31c67 -81 120 -197 120 -341c0 -136 -62 -360 -300 -360zM253 112c93 0 122 151 122 233
c0 58 -20 93 -79 93c-87 0 -118 -158 -118 -234c0 -48 18 -92 75 -92z" />
    <glyph glyph-name="uni01C6" unicode="&#x1c6;" horiz-adv-x="1019" 
d="M809 584l-182 131l77 92l120 -90l141 83l58 -84zM523 0l13 103l278 321h-223l16 122h403l-12 -101l-271 -323h238l-13 -122h-429zM159 -12c-108 0 -140 71 -140 182c0 219 137 372 335 382h8l21 203h152l-79 -755h-151l8 71c-52 -50 -101 -83 -154 -83zM202 121
c35 0 91 41 123 66l24 241h-10c-87 1 -168 -97 -168 -241c0 -41 7 -66 31 -66z" />
    <glyph glyph-name="uni01C9" unicode="&#x1c9;" horiz-adv-x="574" 
d="M31 0l79 755h151l-79 -755h-151zM246 -220c-38 0 -89 10 -122 24l39 117c17 -4 54 -13 84 -13c50 0 73 21 81 92l57 546h151l-57 -547c-19 -184 -113 -219 -233 -219zM460 614l-92 102l113 101l92 -101z" />
    <glyph glyph-name="uni01CC" unicode="&#x1cc;" horiz-adv-x="859" 
d="M31 0l58 546h151l-6 -59c40 27 117 73 180 73c82 0 116 -25 116 -112c0 -16 -1 -34 -3 -54l-41 -394h-152l40 366c1 8 1 15 1 21c0 19 -5 27 -19 27c-35 0 -113 -36 -135 -46l-39 -368h-151zM531 -220c-38 0 -89 10 -122 24l39 117c17 -4 54 -13 84 -13c50 0 73 21 81 92
l57 546h151l-57 -547c-19 -184 -113 -219 -233 -219zM745 614l-92 102l113 101l92 -101z" />
    <glyph glyph-name="uni01F3" unicode="&#x1f3;" horiz-adv-x="1019" 
d="M159 -12c-108 0 -140 71 -140 182c0 219 137 372 335 382h8l21 203h152l-79 -755h-151l8 71c-52 -50 -101 -83 -154 -83zM202 121c35 0 91 41 123 66l24 241h-10c-87 1 -168 -97 -168 -241c0 -41 7 -66 31 -66zM523 0l13 103l278 321h-223l16 122h403l-12 -101l-271 -323
h238l-13 -122h-429z" />
    <glyph glyph-name="uni021D" unicode="&#x21d;" horiz-adv-x="502" 
d="M93 136l12 113l181 164h-253l15 134h436l-12 -106l-210 -198c100 -21 189 -85 189 -190c0 -175 -244 -273 -426 -278l-12 126c160 20 267 58 267 134c0 67 -100 100 -187 101z" />
    <glyph glyph-name="uni01EF" unicode="&#x1ef;" horiz-adv-x="502" 
d="M93 136l12 113l181 164h-253l15 134h436l-12 -106l-210 -198c100 -21 189 -85 189 -190c0 -175 -244 -273 -426 -278l-12 126c160 20 267 58 267 134c0 67 -100 100 -187 101zM260 584l-182 131l77 92l120 -90l141 83l58 -84z" />
    <glyph glyph-name="uni0138" unicode="&#x138;" horiz-adv-x="544" 
d="M31 0l57 546h151l-25 -233l177 233h164l-202 -255l159 -289l-167 -4l-137 254l-26 -252h-151z" />
    <glyph glyph-name="uni01DD" unicode="&#x1dd;" horiz-adv-x="549" 
d="M336 561c139 0 165 -113 165 -210c0 -177 -93 -363 -299 -363c-126 0 -180 72 -180 147c0 102 92 147 184 176l140 44v13c0 49 -12 68 -47 68c-37 0 -93 -20 -164 -59l-52 101c78 51 152 83 253 83zM333 240l-124 -46c-32 -12 -43 -30 -43 -52s19 -36 39 -36
c60 0 108 48 128 134z" />
    <glyph glyph-name="uni0259" unicode="&#x259;" horiz-adv-x="549" 
d="M336 561c139 0 165 -113 165 -210c0 -177 -93 -363 -299 -363c-126 0 -180 72 -180 147c0 102 92 147 184 176l140 44v13c0 49 -12 68 -47 68c-37 0 -93 -20 -164 -59l-52 101c78 51 152 83 253 83zM333 240l-124 -46c-32 -12 -43 -30 -43 -52s19 -36 39 -36
c60 0 108 48 128 134z" />
    <glyph glyph-name="ae" unicode="&#xe6;" horiz-adv-x="809" 
d="M158 -12c-106 0 -139 70 -139 182c0 227 152 387 363 387c35 0 66 -2 106 -9l-4 -33c39 28 86 46 142 46c127 0 174 -67 174 -142c0 -103 -92 -147 -183 -176l-138 -44v-8c0 -53 14 -77 49 -77c38 0 94 20 165 57l52 -100c-78 -51 -152 -83 -253 -83
c-96 0 -134 48 -148 111c-52 -59 -115 -111 -186 -111zM202 121c33 0 91 41 122 65l26 246c-2 0 -11 1 -11 0c-87 0 -168 -102 -168 -245c0 -41 7 -66 31 -66zM493 313l121 47c31 13 43 30 43 52c0 17 -15 30 -35 30c-60 0 -112 -52 -129 -129z" />
    <glyph glyph-name="aeacute" unicode="&#x1fd;" horiz-adv-x="809" 
d="M412 602l-43 91l235 128l53 -115zM158 -12c-106 0 -139 70 -139 182c0 227 152 387 363 387c35 0 66 -2 106 -9l-4 -33c39 28 86 46 142 46c127 0 174 -67 174 -142c0 -103 -92 -147 -183 -176l-138 -44v-8c0 -53 14 -77 49 -77c38 0 94 20 165 57l52 -100
c-78 -51 -152 -83 -253 -83c-96 0 -134 48 -148 111c-52 -59 -115 -111 -186 -111zM202 121c33 0 91 41 122 65l26 246c-2 0 -11 1 -11 0c-87 0 -168 -102 -168 -245c0 -41 7 -66 31 -66zM493 313l121 47c31 13 43 30 43 52c0 17 -15 30 -35 30c-60 0 -112 -52 -129 -129z
" />
    <glyph glyph-name="uni01E3" unicode="&#x1e3;" horiz-adv-x="809" 
d="M158 -12c-106 0 -139 70 -139 182c0 227 152 387 363 387c35 0 66 -2 106 -9l-4 -33c39 28 86 46 142 46c127 0 174 -67 174 -142c0 -103 -92 -147 -183 -176l-138 -44v-8c0 -53 14 -77 49 -77c38 0 94 20 165 57l52 -100c-78 -51 -152 -83 -253 -83
c-96 0 -134 48 -148 111c-52 -59 -115 -111 -186 -111zM202 121c33 0 91 41 122 65l26 246c-2 0 -11 1 -11 0c-87 0 -168 -102 -168 -245c0 -41 7 -66 31 -66zM493 313l121 47c31 13 43 30 43 52c0 17 -15 30 -35 30c-60 0 -112 -52 -129 -129zM317 653l13 122h299l-14 -122
h-298z" />
    <glyph glyph-name="oe" unicode="&#x153;" horiz-adv-x="839" 
d="M228 -12c-133 0 -206 87 -206 211c0 205 108 359 300 359c71 0 121 -26 152 -66c45 43 105 69 182 69c125 0 173 -67 173 -142c0 -103 -91 -147 -183 -176l-138 -44v-10c1 -52 14 -75 49 -75c38 0 93 19 165 57l52 -100c-78 -51 -152 -83 -253 -83c-61 0 -99 24 -122 59
c-42 -36 -98 -59 -171 -59zM251 112c55 0 123 78 123 237c0 73 -33 89 -78 89c-57 0 -119 -85 -119 -234c0 -57 25 -92 74 -92zM522 313l121 47c31 13 43 30 43 52c0 17 -15 30 -35 30c-60 0 -112 -52 -129 -129z" />
    <glyph glyph-name="ij" unicode="&#x133;" horiz-adv-x="552" 
d="M31 0l57 546h152l-58 -546h-151zM224 -220c-38 0 -89 10 -122 24l39 117c17 -4 54 -13 84 -13c50 0 73 21 81 92l57 546h151l-57 -547c-19 -184 -113 -219 -233 -219zM171 614l-92 102l113 101l92 -101zM447 614l-92 102l113 101l92 -101z" />
    <glyph glyph-name="iacute_jacute" horiz-adv-x="552" 
d="M160 603l-67 71l214 213l89 -99zM377 603l-43 89l273 143l49 -122zM31 0l57 546h152l-58 -546h-151zM224 -220c-38 0 -89 10 -122 24l39 117c17 -4 54 -13 84 -13c50 0 73 21 81 92l57 546h151l-57 -547c-19 -184 -113 -219 -233 -219z" />
    <glyph glyph-name="comma" unicode="," horiz-adv-x="274" 
d="M-25 -136c54 88 54 183 65 288h164c-13 -117 -14 -196 -97 -288h-132z" />
    <glyph glyph-name="period" unicode="." horiz-adv-x="278" 
d="M23 0l16 149h169l-16 -149h-169z" />
    <glyph glyph-name="ellipsis" unicode="&#x2026;" horiz-adv-x="825" 
d="M24 0l14 137h155l-15 -137h-154zM303 0l14 137h155l-15 -137h-154zM583 0l14 137h155l-14 -137h-155z" />
    <glyph glyph-name="colon" unicode=":" horiz-adv-x="309" 
d="M38 0l16 149h169l-16 -149h-169zM80 397l16 149h169l-16 -149h-169z" />
    <glyph glyph-name="semicolon" unicode=";" horiz-adv-x="305" 
d="M-7 -136c54 88 53 183 64 288h162c-12 -117 -14 -195 -96 -288h-130zM77 397l16 149h168l-15 -149h-169z" />
    <glyph glyph-name="question" unicode="?" horiz-adv-x="387" 
d="M69 181c-7 20 -11 41 -11 62c0 151 160 193 160 265c0 65 -105 73 -151 77l41 125c117 -8 269 -38 269 -184c0 -166 -185 -185 -188 -288c0 -13 2 -25 5 -37zM46 0l15 136h153l-14 -136h-154z" />
    <glyph glyph-name="questiondown" unicode="&#xbf;" horiz-adv-x="357" 
d="M255 -164c-116 8 -269 37 -269 184c0 166 185 184 188 288c0 12 -2 25 -5 37l125 19c7 -20 11 -40 11 -62c0 -150 -160 -192 -160 -265c0 -64 105 -73 151 -76zM149 409l15 137h153l-14 -137h-154z" />
    <glyph glyph-name="questiondown.cap" horiz-adv-x="389" 
d="M291 -9c-116 8 -269 37 -269 184c0 166 185 184 188 288c0 12 -2 25 -5 37l125 19c7 -20 11 -40 11 -62c0 -150 -160 -192 -160 -265c0 -64 105 -73 151 -76zM185 564l15 137h153l-14 -137h-154z" />
    <glyph glyph-name="question.smcp" horiz-adv-x="369" 
d="M73 177c-7 19 -12 40 -12 61c0 121 135 165 135 214c0 47 -101 52 -132 55l41 120c100 -7 245 -30 245 -160c0 -139 -159 -155 -159 -236c0 -12 3 -23 7 -34zM34 0l15 136h153l-14 -136h-154z" />
    <glyph glyph-name="questiondown.smcp" horiz-adv-x="337" 
d="M308 546l-15 -136h-153l14 136h154zM281 308c0 -121 -135 -165 -135 -214c0 -47 101 -52 132 -55l-41 -120c-100 7 -245 30 -245 160c0 139 159 155 159 236c0 12 -3 23 -7 34l125 20c7 -19 12 -40 12 -61z" />
    <glyph glyph-name="exclam" unicode="!" horiz-adv-x="317" 
d="M81 211l11 184l33 312h151l-33 -312l-29 -184h-133zM48 0l15 136h154l-15 -136h-154z" />
    <glyph glyph-name="exclamdown" unicode="&#xa1;" horiz-adv-x="293" 
d="M22 -161l32 312l29 184h133l-10 -184l-33 -312h-151zM81 410l14 136h154l-14 -136h-154z" />
    <glyph glyph-name="exclamdown.cap" horiz-adv-x="312" 
d="M49 0l32 312l29 184h133l-10 -184l-33 -312h-151zM108 571l14 136h154l-14 -136h-154z" />
    <glyph glyph-name="exclam.smcp" horiz-adv-x="328" 
d="M87 211l10 184l22 212h152l-22 -212l-28 -184h-134zM54 0l14 136h155l-15 -136h-154z" />
    <glyph glyph-name="exclamdown.smcp" horiz-adv-x="297" 
d="M34 -61l22 212l29 183h133l-9 -183l-23 -212h-152zM83 410l14 136h154l-14 -136h-154z" />
    <glyph glyph-name="uni203D" unicode="&#x203d;" horiz-adv-x="409" 
d="M76 211l11 184l13 135h131l-12 -125c28 27 49 57 49 103c0 65 -133 73 -179 77l41 125c117 -8 269 -38 269 -184c0 -123 -113 -176 -196 -222l-14 -93h-113zM38 0l15 136h153l-14 -136h-154z" />
    <glyph glyph-name="uni203D.smcp" horiz-adv-x="400" 
d="M84 211l6 138l11 99h131l-7 -65c18 12 31 26 31 47c0 63 -133 70 -179 74l41 125c117 -8 256 -33 256 -179c0 -97 -91 -138 -163 -155l-14 -84h-113zM46 0l15 136h153l-14 -136h-154z" />
    <glyph glyph-name="hyphen" unicode="-" horiz-adv-x="427" 
d="M56 226l13 122h298l-13 -122h-298z" />
    <glyph glyph-name="hyphen.cap" horiz-adv-x="427" 
d="M63 295l13 122h298l-13 -122h-298z" />
    <glyph glyph-name="endash" unicode="&#x2013;" horiz-adv-x="575" 
d="M60 231l11 113h440l-11 -113h-440z" />
    <glyph glyph-name="endash.cap" horiz-adv-x="566" 
d="M62 300l11 113h440l-11 -113h-440z" />
    <glyph glyph-name="emdash" unicode="&#x2014;" horiz-adv-x="865" 
d="M60 231l11 113h730l-11 -113h-730z" />
    <glyph glyph-name="emdash.cap" horiz-adv-x="856" 
d="M62 300l11 113h730l-11 -113h-730z" />
    <glyph glyph-name="underscore" unicode="_" horiz-adv-x="530" 
d="M-36 -193l12 122h500l-13 -122h-499z" />
    <glyph glyph-name="at" unicode="@" horiz-adv-x="811" 
d="M345 -74c-173 0 -315 77 -315 273c0 310 208 518 499 518c163 0 264 -77 264 -246s-93 -331 -279 -331c-34 0 -91 13 -93 56c-20 -25 -62 -53 -94 -53c-73 0 -105 33 -105 107c0 135 93 243 232 243c51 0 88 -6 136 -25l-39 -166c-2 -12 -4 -22 -4 -29
c0 -12 2 -21 16 -21c70 0 105 146 105 207c0 106 -50 161 -152 161c-220 0 -370 -188 -370 -401c0 -136 91 -184 218 -184c57 0 116 8 171 20l4 -102c-65 -18 -126 -27 -194 -27zM374 249c22 0 33 8 50 17l33 138c-2 1 -8 1 -10 1c-63 0 -94 -72 -94 -126
c0 -14 3 -30 21 -30z" />
    <glyph glyph-name="ampersand" unicode="&#x26;" horiz-adv-x="753" 
d="M691 -100c-132 1 -239 51 -323 131c-42 -25 -89 -41 -145 -41c-109 0 -211 33 -211 163c0 103 68 166 147 222c-11 40 -17 82 -17 123c0 130 73 218 210 218c98 0 183 -43 183 -149c0 -111 -127 -169 -217 -224c76 -180 174 -318 389 -319h10l-12 -123
c-3 -1 -12 -1 -14 -1zM238 112c19 0 36 4 52 10c-32 42 -63 94 -86 143c-26 -24 -46 -52 -46 -88c0 -48 37 -65 80 -65zM280 448c45 20 124 57 124 102c0 30 -19 58 -62 58c-55 0 -69 -52 -69 -95c0 -20 3 -45 7 -65zM458 121l10 121c33 20 73 30 114 30h136l-12 -123h-129
c-36 0 -67 -2 -119 -28z" />
    <glyph glyph-name="ampersand.alt" horiz-adv-x="786" 
d="M802 387c-49 -75 -113 -106 -192 -114c1 -5 1 -9 1 -13c0 -156 -140 -272 -341 -272c-143 0 -248 56 -248 179c0 102 61 158 142 206c-50 36 -82 79 -82 145c0 143 132 196 255 196c94 0 206 -39 206 -152l-153 -26c-2 34 -41 60 -73 60c-50 0 -86 -24 -86 -70
c0 -108 212 -135 320 -135c78 0 117 17 163 63zM288 110c149 0 173 92 173 153c0 4 -1 9 -3 13c-101 11 -153 34 -185 46c-43 -26 -96 -65 -96 -131c0 -51 44 -81 111 -81z" />
    <glyph glyph-name="slash" unicode="/" horiz-adv-x="398" 
d="M-24 -62l319 831h137l-320 -831h-136z" />
    <glyph glyph-name="slash.smcp" horiz-adv-x="356" 
d="M-24 -62l261 678h137l-261 -678h-137z" />
    <glyph glyph-name="backslash" unicode="\" horiz-adv-x="400" 
d="M210 -62l-146 831h137l146 -831h-137z" />
    <glyph glyph-name="backslash.smcp" horiz-adv-x="356" 
d="M166 -62l-118 678h137l118 -678h-137z" />
    <glyph glyph-name="bar" unicode="|" horiz-adv-x="274" 
d="M11 -220l103 974h141l-102 -974h-142z" />
    <glyph glyph-name="parenleft" unicode="(" horiz-adv-x="386" 
d="M220 -224c-128 93 -199 283 -199 437c0 210 114 454 306 557l83 -98c-144 -89 -237 -277 -237 -443c0 -122 55 -275 151 -356z" />
    <glyph glyph-name="parenleft.cap" horiz-adv-x="374" 
d="M230 -155c-128 93 -199 283 -199 437c0 210 114 454 306 557l83 -98c-144 -89 -237 -277 -237 -443c0 -122 55 -275 151 -356z" />
    <glyph glyph-name="parenright" unicode=")" horiz-adv-x="387" 
d="M56 -224l-84 97c138 100 237 295 237 465c0 118 -55 263 -155 334l104 98c135 -81 204 -264 204 -417c0 -215 -121 -460 -306 -577z" />
    <glyph glyph-name="parenright.cap" horiz-adv-x="371" 
d="M44 -155l-84 97c138 100 237 295 237 465c0 118 -55 263 -155 334l104 98c135 -81 204 -264 204 -417c0 -215 -121 -460 -306 -577z" />
    <glyph glyph-name="bracketleft" unicode="[" horiz-adv-x="333" 
d="M11 -220l102 974h251l-12 -125h-100l-77 -724h100l-13 -125h-251z" />
    <glyph glyph-name="bracketleft.cap" horiz-adv-x="335" 
d="M19 -134l102 974h251l-12 -125h-100l-77 -724h100l-13 -125h-251z" />
    <glyph glyph-name="bracketright" unicode="]" horiz-adv-x="333" 
d="M-40 -220l13 125h100l77 724h-100l12 125h252l-102 -974h-252z" />
    <glyph glyph-name="bracketright.cap" horiz-adv-x="334" 
d="M-29 -134l13 125h100l77 724h-100l12 125h252l-102 -974h-252z" />
    <glyph glyph-name="braceleft" unicode="{" horiz-adv-x="365" 
d="M242 -222c-121 0 -203 34 -203 135c0 15 2 32 6 51l40 191c5 23 -8 59 -71 59l13 117c62 0 83 36 83 60v191c0 140 96 187 236 187h53l-14 -126h-45c-54 0 -78 -34 -78 -73l3 -175c1 -67 -30 -101 -76 -121v-2c33 -16 55 -41 55 -84c0 -11 -2 -24 -5 -38l-39 -174
c-2 -7 -2 -13 -2 -19c0 -29 18 -52 64 -52h46l-14 -127h-52z" />
    <glyph glyph-name="braceleft.cap" horiz-adv-x="377" 
d="M255 -143c-121 0 -203 34 -203 135c0 15 2 32 6 51l40 191c5 23 -8 59 -71 59l13 117c62 0 83 36 83 60v191c0 140 96 187 236 187h53l-14 -126h-45c-54 0 -78 -34 -78 -73l3 -175c1 -67 -30 -101 -76 -121v-2c33 -16 55 -41 55 -84c0 -11 -2 -24 -5 -38l-39 -174
c-2 -7 -2 -13 -2 -19c0 -29 18 -52 64 -52h46l-14 -127h-52z" />
    <glyph glyph-name="braceright" unicode="}" horiz-adv-x="366" 
d="M-40 -222l14 127h45c56 0 78 34 78 71l-3 174c-1 68 30 101 76 122v2c-33 16 -54 41 -54 84c0 11 1 23 4 37l39 175c1 6 2 12 2 18c0 30 -20 54 -64 54h-46l14 127h52c121 0 203 -35 203 -136c0 -15 -2 -32 -6 -51l-40 -191c-5 -24 8 -60 71 -60l-13 -117
c-62 0 -83 -36 -83 -59v-191c0 -141 -96 -186 -236 -186h-53z" />
    <glyph glyph-name="braceright.cap" horiz-adv-x="377" 
d="M-25 -143l14 127h45c56 0 78 34 78 71l-3 174c-1 68 30 101 76 122v2c-33 16 -54 41 -54 84c0 11 1 23 4 37l39 175c1 6 2 12 2 18c0 30 -20 54 -64 54h-46l14 127h52c121 0 203 -35 203 -136c0 -15 -2 -32 -6 -51l-40 -191c-5 -24 8 -60 71 -60l-13 -117
c-62 0 -83 -36 -83 -59v-191c0 -141 -96 -186 -236 -186h-53z" />
    <glyph glyph-name="uni301A" unicode="&#x301a;" horiz-adv-x="589" 
d="M11 -220l103 974h499l-14 -128h-110l-75 -718h110l-14 -128h-499zM247 626l-75 -718h95l75 718h-95z" />
    <glyph glyph-name="uni301B" unicode="&#x301b;" horiz-adv-x="589" 
d="M570 754l-103 -974h-499l14 128h110l75 718h-110l14 128h499zM334 -92l75 718h-95l-75 -718h95z" />
    <glyph glyph-name="uni301A.cap" horiz-adv-x="574" 
d="M21 -130l103 974h499l-14 -128h-110l-75 -718h110l-14 -128h-499zM257 716l-75 -718h95l75 718h-95z" />
    <glyph glyph-name="uni301B.cap" horiz-adv-x="579" 
d="M571 844l-103 -974h-499l14 128h110l75 718h-110l14 128h499zM335 -2l75 718h-95l-75 -718h95z" />
    <glyph glyph-name="dblparenleft" horiz-adv-x="598" 
d="M308 -136l-86 -84c-136 100 -221 273 -198 494c21 201 134 381 300 480l74 -79c-133 -102 -218 -243 -235 -401c-15 -145 37 -303 145 -410zM551 -100l-86 -84c-136 100 -206 277 -187 458c19 174 122 348 276 448l75 -79c-134 -102 -195 -211 -212 -369
c-15 -145 26 -267 134 -374z" />
    <glyph glyph-name="dblparenleft.cap" horiz-adv-x="613" 
d="M319 -66l-86 -84c-136 100 -221 273 -198 494c21 201 134 381 300 480l74 -79c-133 -102 -218 -243 -235 -401c-15 -145 37 -303 145 -410zM562 -30l-86 -84c-136 100 -206 277 -187 458c19 174 122 348 276 448l75 -79c-134 -102 -195 -211 -212 -369
c-15 -145 26 -267 134 -374z" />
    <glyph glyph-name="dblparenright" horiz-adv-x="596" 
d="M264 -220l-68 84c130 107 216 265 231 410c17 158 -38 299 -151 401l92 79c144 -99 219 -279 198 -480c-23 -221 -144 -394 -302 -494zM29 -184l-68 84c130 107 197 229 212 374c17 158 -22 267 -134 369l91 79c134 -100 201 -274 182 -448c-19 -181 -125 -358 -283 -458
z" />
    <glyph glyph-name="dblparenright.cap" horiz-adv-x="612" 
d="M284 -150l-68 84c130 107 216 265 231 410c17 158 -38 299 -151 401l92 79c144 -99 219 -279 198 -480c-23 -221 -144 -394 -302 -494zM49 -114l-68 84c130 107 197 229 212 374c17 158 -22 267 -134 369l91 79c134 -100 201 -274 182 -448c-19 -181 -125 -358 -283 -458
z" />
    <glyph glyph-name="asciicircum" unicode="^" horiz-adv-x="501" 
d="M-40 294l213 413h169l115 -413h-144l-69 298l-142 -298h-142z" />
    <glyph glyph-name="asciitilde" unicode="~" horiz-adv-x="549" 
d="M358 248c-91 0 -129 60 -184 60c-28 0 -53 -10 -81 -33l-60 94c45 48 103 89 161 89c92 0 117 -61 179 -61c20 0 43 -5 91 33l62 -86c-36 -50 -113 -96 -168 -96z" />
    <glyph glyph-name="degree" unicode="&#xb0;" horiz-adv-x="384" 
d="M200 402c-102 0 -154 58 -144 158c10 98 91 157 179 157c94 0 156 -60 146 -157c-11 -98 -90 -158 -181 -158zM212 504c26 0 43 12 48 56c4 40 -12 54 -37 54c-27 0 -44 -14 -48 -54c-4 -37 10 -56 37 -56z" />
    <glyph glyph-name="section" unicode="&#xa7;" horiz-adv-x="634" 
d="M98 -102c-39 0 -92 13 -122 40l47 109c20 -16 54 -33 80 -33c40 0 43 75 43 104c0 27 -3 54 -6 81l-8 73c-3 20 -4 41 -4 61c0 199 173 315 358 315c58 0 122 -18 164 -59l-69 -93c-26 24 -62 39 -97 39c-44 0 -50 -39 -50 -74c0 -20 2 -40 6 -60l9 -58
c7 -40 11 -87 11 -127c0 -207 -172 -318 -362 -318zM256 21c51 38 74 108 74 170c0 23 -2 45 -5 68l-11 95c-2 15 -3 30 -3 45c0 40 4 80 17 117l-2 2c-53 -38 -68 -108 -68 -170c0 -18 1 -36 3 -54l11 -99c2 -19 4 -32 4 -48c0 -43 -7 -84 -22 -124z" />
    <glyph glyph-name="section.pln" horiz-adv-x="537" 
d="M77 -216c-39 0 -92 13 -122 40l47 109c20 -16 54 -33 80 -33c40 0 43 75 43 104c0 27 -2 54 -6 81l-47 300c-3 20 -4 41 -4 61c0 199 173 315 358 315c58 0 122 -18 164 -59l-69 -93c-26 24 -62 39 -97 39c-44 0 -50 -39 -50 -74c0 -20 2 -40 6 -60l48 -285
c7 -40 11 -87 11 -127c0 -207 -172 -318 -362 -318zM235 -93c51 38 74 108 74 170c0 23 -2 45 -5 68l-50 322c-2 15 -3 30 -3 45c0 40 4 80 17 117l-2 2c-53 -38 -68 -108 -68 -170c0 -18 1 -36 3 -54l50 -326c3 -16 4 -32 4 -48c0 -43 -7 -84 -22 -124z" />
    <glyph glyph-name="bullet" unicode="&#x2022;" horiz-adv-x="358" 
d="M171 208c-75 0 -133 56 -133 131c0 85 73 158 158 158c75 0 133 -57 133 -132c0 -85 -74 -157 -158 -157z" />
    <glyph glyph-name="paragraph" unicode="&#xb6;" horiz-adv-x="610" 
d="M270 -220c-41 0 -73 9 -111 23l39 116c27 -4 59 -8 87 -8c61 0 72 38 78 92l74 704h150l-74 -705c-15 -145 -99 -222 -243 -222zM206 234c-122 0 -174 76 -174 192c0 244 131 281 340 281h19l-50 -473h-135z" />
    <glyph glyph-name="numbersign" unicode="#" horiz-adv-x="678" 
d="M88 0l18 112h-85l12 117h94l15 95h-99l12 118h109l21 125h140l-21 -125h125l20 125h141l-21 -125h82l-12 -118h-91l-16 -95h97l-13 -117h-104l-18 -112h-141l18 112h-124l-18 -112h-141zM266 229h126l15 95h-124z" />
    <glyph glyph-name="numbersign.pln" horiz-adv-x="690" 
d="M89 0l24 145h-85l13 121h93l27 158h-104l13 122h114l26 161h145l-28 -161h117l27 161h144l-27 -161h83l-13 -122h-91l-28 -158h103l-13 -121h-110l-24 -145h-144l24 145h-118l-24 -145h-144zM278 266h118l27 158h-118z" />
    <glyph glyph-name="percent" unicode="%" horiz-adv-x="863" 
d="M217 358c-94 0 -164 46 -164 147c0 117 86 209 204 209c96 0 168 -45 168 -148c0 -122 -87 -208 -208 -208zM228 462c51 0 70 48 70 92c0 35 -15 56 -51 56c-52 0 -66 -54 -66 -96c0 -34 12 -52 47 -52zM609 -11c-94 0 -164 45 -164 146c0 118 85 209 204 209
c96 0 167 -45 167 -148c0 -121 -86 -207 -207 -207zM620 94c50 0 70 47 70 90c0 36 -15 57 -52 57c-51 0 -66 -55 -66 -97c0 -34 14 -50 48 -50zM150 41l-71 82l629 531l71 -82z" />
    <glyph glyph-name="perthousand" unicode="&#x2030;" horiz-adv-x="1247" 
d="M218 358c-95 0 -165 46 -165 147c0 117 86 209 205 209c96 0 167 -45 167 -149c0 -121 -87 -207 -207 -207zM228 462c51 0 70 48 70 92c0 35 -14 56 -51 56c-51 0 -66 -54 -66 -96c0 -34 13 -52 47 -52zM592 -11c-94 0 -164 45 -164 146c0 118 85 209 204 209
c97 0 168 -45 168 -148c0 -122 -87 -207 -208 -207zM603 94c51 0 70 47 70 91c0 35 -15 56 -51 56c-51 0 -67 -54 -67 -97c0 -34 13 -50 48 -50zM993 -11c-94 0 -164 45 -164 146c0 118 86 209 205 209c96 0 167 -45 167 -148c0 -122 -87 -207 -208 -207zM1004 94
c51 0 70 47 70 91c0 35 -15 56 -51 56c-51 0 -66 -54 -66 -97c0 -34 13 -50 47 -50zM141 41l-70 82l629 531l70 -82z" />
    <glyph glyph-name="ordfeminine" unicode="&#xaa;" horiz-adv-x="401" 
d="M153 389c-61 0 -79 46 -79 109c0 126 92 211 212 211c20 0 61 -3 84 -7l-31 -307h-96l4 39c-28 -27 -63 -45 -94 -45zM186 466c18 0 50 21 68 35l14 134c-1 0 -6 1 -6 0c-48 -1 -92 -54 -92 -134c0 -23 4 -35 16 -35zM49 285l8 74h304l-8 -74h-304z" />
    <glyph glyph-name="ordfeminine.smcp" horiz-adv-x="441" 
d="M62 393l161 317h102l78 -317h-89l-17 78h-111l-37 -78h-87zM44 285l8 74h347l-8 -74h-347zM217 533h66l-20 99z" />
    <glyph glyph-name="ordmasculine" unicode="&#xba;" horiz-adv-x="417" 
d="M213 383c-85 0 -143 48 -143 137c0 115 72 197 184 197c90 0 145 -46 145 -138c0 -113 -69 -196 -186 -196zM226 462c60 0 72 61 72 112c0 38 -14 64 -55 64c-59 0 -74 -62 -74 -111c0 -40 16 -65 57 -65zM53 286l8 73h305l-9 -73h-304z" />
    <glyph glyph-name="dagger" unicode="&#x2020;" horiz-adv-x="536" 
d="M158 0l59 471l-171 -8l15 136l167 -8l7 163h160l-26 -163l168 8l-14 -136l-169 8l-40 -471h-156z" />
    <glyph glyph-name="daggerdbl" unicode="&#x2021;" horiz-adv-x="572" 
d="M176 0l26 163l-170 -8l15 136l168 -8l20 188l-171 -8l15 136l167 -8l8 163h159l-26 -163l168 8l-14 -136l-168 8l-20 -188l170 8l-14 -136l-168 8l-8 -163h-157z" />
    <glyph glyph-name="quotesingle" unicode="'" horiz-adv-x="216" 
d="M73 515l15 240h134l-35 -240h-114z" />
    <glyph glyph-name="quotedbl" unicode="&#x22;" horiz-adv-x="416" 
d="M73 515l15 240h134l-36 -240h-113zM274 515l15 239h133l-35 -239h-113z" />
    <glyph glyph-name="quotedblleft" unicode="&#x201c;" horiz-adv-x="425" 
d="M64 497c10 109 15 180 87 259h104c-49 -78 -50 -173 -59 -259h-132zM261 497c11 109 16 180 88 259h103c-49 -78 -49 -173 -58 -259h-133z" />
    <glyph glyph-name="quotedblleft.smcp" horiz-adv-x="440" 
d="M56 405c10 109 15 180 87 259h104c-49 -78 -50 -173 -59 -259h-132zM253 405c11 109 16 180 88 259h103c-49 -78 -49 -173 -58 -259h-133z" />
    <glyph glyph-name="quotedblright" unicode="&#x201d;" horiz-adv-x="426" 
d="M52 497c49 79 49 174 58 259h133c-11 -109 -16 -179 -88 -259h-103zM249 497c49 79 50 174 58 259h133c-10 -109 -15 -179 -87 -259h-104z" />
    <glyph glyph-name="quotedblright.smcp" horiz-adv-x="436" 
d="M45 396c49 79 49 174 58 259h133c-11 -109 -16 -179 -88 -259h-103zM242 396c49 79 50 174 58 259h133c-10 -109 -15 -179 -87 -259h-104z" />
    <glyph glyph-name="quoteleft" unicode="&#x2018;" horiz-adv-x="228" 
d="M64 497c11 109 16 180 88 259h103c-49 -78 -49 -173 -58 -259h-133z" />
    <glyph glyph-name="quoteleft.smcp" horiz-adv-x="241" 
d="M53 386c11 109 16 180 88 259h103c-49 -78 -49 -173 -58 -259h-133z" />
    <glyph glyph-name="quoteright" unicode="&#x2019;" horiz-adv-x="229" 
d="M52 497c49 79 50 174 58 259h133c-10 -109 -15 -179 -87 -259h-104z" />
    <glyph glyph-name="quoteright.smcp" horiz-adv-x="238" 
d="M44 395c49 79 50 174 58 259h133c-10 -109 -15 -179 -87 -259h-104z" />
    <glyph glyph-name="quotesinglbase" unicode="&#x201a;" horiz-adv-x="239" 
d="M-20 -122c49 79 50 174 58 259h129c-10 -109 -15 -179 -87 -259h-100z" />
    <glyph glyph-name="quotedblbase" unicode="&#x201e;" horiz-adv-x="426" 
d="M-20 -122c49 79 49 174 58 259h128c-10 -109 -15 -179 -87 -259h-99zM167 -122c49 79 50 174 59 259h128c-10 -109 -15 -179 -87 -259h-100z" />
    <glyph glyph-name="guilsinglleft" unicode="&#x2039;" horiz-adv-x="280" 
d="M124 45l-100 227l147 226l88 -39l-110 -187l70 -182z" />
    <glyph glyph-name="guilsinglright.cap" horiz-adv-x="279" 
d="M110 128l-86 45l108 182l-71 187l97 39l99 -226z" />
    <glyph glyph-name="guilsinglright" unicode="&#x203a;" horiz-adv-x="280" 
d="M102 45l-86 45l108 182l-71 187l97 39l99 -226z" />
    <glyph glyph-name="guilsinglleft.cap" horiz-adv-x="279" 
d="M132 127l-100 227l147 226l88 -39l-110 -187l70 -182z" />
    <glyph glyph-name="guillemotleft" unicode="&#xab;" horiz-adv-x="490" 
d="M125 45l-101 227l147 226l89 -39l-110 -187l70 -182zM334 45l-100 227l147 226l88 -39l-110 -187l70 -182z" />
    <glyph glyph-name="guillemotleft.cap" horiz-adv-x="490" 
d="M134 129l-101 227l147 226l89 -39l-110 -187l70 -182zM343 129l-100 227l147 226l88 -39l-110 -187l70 -182z" />
    <glyph glyph-name="guillemotright" unicode="&#xbb;" horiz-adv-x="489" 
d="M101 45l-85 45l107 182l-71 187l97 39l100 -226zM311 45l-86 45l108 182l-71 187l97 39l99 -226z" />
    <glyph glyph-name="guillemotright.cap" horiz-adv-x="489" 
d="M110 129l-85 45l107 182l-71 187l97 39l100 -226zM320 129l-86 45l108 182l-71 187l97 39l99 -226z" />
    <glyph glyph-name="asterisk" unicode="*" horiz-adv-x="421" 
d="M93 449l-42 91l102 37l29 -62zM156 589l-95 40l61 91l77 -67zM165 404l26 101h78l2 -101h-106zM207 660l-1 101h105l-25 -101h-79zM357 444l-77 68l43 64l95 -40zM324 589l-29 62l90 66l40 -91z" />
    <glyph glyph-name="asterisk.alt" horiz-adv-x="327" 
d="M329 698l-72 -59l23 -94l-80 53l-81 -53l23 94l-72 59l95 8l35 86l35 -86z" />
    <glyph glyph-name="periodcentered" unicode="&#xb7;" horiz-adv-x="259" 
d="M126 281l-95 107l117 106l97 -106z" />
    <glyph glyph-name="f_i" horiz-adv-x="658" 
d="M52 -151l62 585h-80l12 112h80l2 20c17 158 125 209 242 209c43 0 80 -6 124 -6c37 -1 99 3 138 7l12 -114c-57 -18 -125 -24 -164 -24c-41 0 -72 5 -126 5c-46 0 -68 -18 -75 -77l-2 -20h343l-57 -546h-152l46 434h-192l-62 -585h-151z" />
    <glyph glyph-name="f_l" horiz-adv-x="657" 
d="M52 -151l62 585h-80l12 112h80l2 20c17 158 125 209 242 209c44 0 80 -6 123 -6c50 -1 102 3 152 9l-83 -778h-151l67 638c-40 0 -70 5 -124 5c-46 0 -68 -18 -75 -77l-2 -20h116l-11 -112h-117l-62 -585h-151z" />
    <glyph glyph-name="brokenbar" unicode="&#xa6;" horiz-adv-x="314" 
d="M31 -220l38 361h142l-38 -361h-142zM96 392l38 363h141l-38 -363h-141z" />
    <glyph glyph-name="minus" unicode="&#x2212;" horiz-adv-x="476" 
d="M0 293l13 122h438l-13 -122h-438z" />
    <glyph glyph-name="plus" unicode="+" horiz-adv-x="573" 
d="M195 45l22 199l-199 -2l13 126l199 -4l20 201h126l-28 -204l207 7l-13 -126l-203 2l-18 -199h-126z" />
    <glyph glyph-name="multiply" unicode="&#xd7;" horiz-adv-x="558" 
d="M410 60l-141 159l-168 -157l-81 90l173 154l-140 153l96 91l138 -159l171 157l81 -90l-180 -154l147 -153z" />
    <glyph glyph-name="less" unicode="&#x3c;" horiz-adv-x="494" 
d="M420 47l-404 191l14 131l445 201l-15 -139l-298 -128l273 -117z" />
    <glyph glyph-name="equal" unicode="=" horiz-adv-x="594" 
d="M51 113l11 126h454l-11 -126h-454zM77 364l11 126h454l-11 -126h-454z" />
    <glyph glyph-name="greater" unicode="&#x3e;" horiz-adv-x="494" 
d="M20 47l15 139l297 117l-272 128l15 139l403 -201l-14 -131z" />
    <glyph glyph-name="infinity" unicode="&#x221e;" horiz-adv-x="878" 
d="M186 178c-97 0 -165 37 -165 142c0 126 80 205 205 205c88 0 157 -62 224 -112c71 44 160 112 247 112c95 0 167 -40 167 -143c0 -128 -83 -204 -208 -204c-85 0 -158 67 -224 113c-72 -45 -158 -113 -246 -113zM203 290c51 0 104 35 145 61c-38 28 -85 64 -135 64
c-43 0 -77 -26 -77 -71c0 -40 31 -54 67 -54zM672 290c43 0 77 25 77 70c0 40 -32 55 -67 55c-48 0 -109 -38 -149 -62c39 -25 91 -63 139 -63z" />
    <glyph glyph-name="plusminus" unicode="&#xb1;" horiz-adv-x="528" 
d="M12 0l11 126h160l18 158l-160 -2l12 126l160 -4l16 161h126l-23 -164l165 7l-12 -126l-162 2l-14 -158h158l-11 -126h-444z" />
    <glyph glyph-name="lessequal" unicode="&#x2264;" horiz-adv-x="600" 
d="M41 0l14 133h408l-392 145l16 151l470 161l-15 -139l-285 -98l264 -97l-13 -123h1l-2 -16l-13 -117h-453z" />
    <glyph glyph-name="notequal" unicode="&#x2260;" horiz-adv-x="600" 
d="M12 11l85 102h-47l11 126h140l105 125h-229l11 126h322l78 93h103l-78 -93h39l-13 -126h-130l-105 -125h221l-13 -126h-312l-85 -102h-103z" />
    <glyph glyph-name="greaterequal" unicode="&#x2265;" horiz-adv-x="600" 
d="M53 117l15 139l286 97l-265 98l15 139l436 -161l-16 -151l-424 -145h408l-14 -133h-453z" />
    <glyph glyph-name="divide" unicode="&#xf7;" horiz-adv-x="606" 
d="M204 46l14 128h138l-14 -128h-138zM34 242l13 126h524l-13 -126h-524zM245 433l14 128h138l-14 -128h-138z" />
    <glyph glyph-name="logicalnot" unicode="&#xac;" horiz-adv-x="611" 
d="M391 86l16 156h-368l13 127h505l-29 -283h-137z" />
    <glyph glyph-name="approxequal" unicode="&#x2248;" horiz-adv-x="600" 
d="M361 89c-88 0 -126 60 -177 60c-25 0 -49 -8 -78 -33l-69 82c49 53 109 97 168 97c90 0 114 -61 172 -61c17 0 39 -9 92 33l68 -74c-36 -53 -120 -104 -176 -104zM386 331c-88 0 -125 60 -176 60c-25 0 -49 -8 -79 -33l-68 82c48 53 108 97 167 97c90 0 115 -61 173 -61
c17 0 39 -9 91 33l68 -74c-35 -53 -120 -104 -176 -104z" />
    <glyph glyph-name="radical" unicode="&#x221a;" horiz-adv-x="720" 
d="M225 0l-77 423h-141l13 123h267l60 -423l301 714h153l-372 -837h-204z" />
    <glyph glyph-name="partialdiff" unicode="&#x2202;" horiz-adv-x="590" 
d="M249 -13c-126 0 -228 59 -228 211c0 157 118 263 277 263c33 0 64 -3 96 -8c-29 75 -115 121 -195 144l46 130c183 -44 321 -147 321 -353c0 -198 -88 -387 -317 -387zM256 112c126 0 153 134 153 226c-32 5 -63 10 -96 10c-86 0 -139 -56 -139 -141c0 -57 30 -95 82 -95
z" />
    <glyph glyph-name="summation" unicode="&#x2211;" horiz-adv-x="576" 
d="M-17 -220l11 104l212 359l-139 360l11 104h515l-14 -133h-353l134 -332l-199 -329h350l-14 -133h-514z" />
    <glyph glyph-name="product" unicode="&#x220f;" horiz-adv-x="824" 
d="M71 -220l83 794h-100l14 133h784l-14 -133h-101l-83 -794h-170l83 794h-243l-83 -794h-170z" />
    <glyph glyph-name="lozenge" unicode="&#x25ca;" horiz-adv-x="562" 
d="M146 0l-161 355l243 352h190l160 -354l-243 -353h-189zM254 120l150 232l-95 236l-150 -232z" />
    <glyph glyph-name="integral" unicode="&#x222b;" horiz-adv-x="413" 
d="M-124 -231l-1 135c124 14 178 16 188 110l50 484c20 198 182 221 343 221l-5 -137c-131 -10 -179 -20 -189 -110l-50 -483c-21 -197 -176 -220 -336 -220z" />
    <glyph glyph-name="uni0400" unicode="&#x400;" horiz-adv-x="588" 
d="M444 735l-266 64l35 121l258 -89zM45 0l74 707h452l-13 -121h-297l-18 -174h275l-12 -114h-275l-19 -177h321l-13 -121h-475z" />
    <glyph glyph-name="uni0401" unicode="&#x401;" horiz-adv-x="588" 
d="M229 747l-78 89l97 88l78 -88zM467 747l-79 89l97 88l79 -88zM45 0l74 707h452l-13 -121h-297l-18 -174h275l-12 -114h-275l-19 -177h321l-13 -121h-475z" />
    <glyph glyph-name="uni0402" unicode="&#x402;" horiz-adv-x="779" 
d="M446 -220l-68 95c20 16 216 154 216 361c0 70 -41 97 -113 97c-42 0 -96 -16 -137 -36l-30 -297h-154l60 585h-188l13 122h599l-13 -122h-258l-15 -165c53 19 119 31 174 31c160 0 218 -94 218 -219c0 -199 -133 -340 -304 -452z" />
    <glyph glyph-name="uni0403" unicode="&#x403;" horiz-adv-x="550" 
d="M253 737l-26 96l261 89l34 -121zM45 0l74 707h470l-13 -122h-315l-62 -585h-154z" />
    <glyph glyph-name="uni0404" unicode="&#x404;" horiz-adv-x="649" 
d="M387 -10c-201 0 -350 93 -350 311c0 272 155 414 423 414c74 0 128 -11 189 -35l-47 -114c-58 17 -96 21 -157 21c-126 0 -209 -68 -238 -173h330l-13 -118h-327c1 -13 4 -26 7 -38c26 -94 108 -138 215 -138c57 0 106 3 161 18l25 -118c-73 -23 -139 -30 -218 -30z" />
    <glyph glyph-name="uni0405" unicode="&#x405;" horiz-adv-x="566" 
d="M222 -13c-77 0 -160 18 -227 51l54 117c64 -23 116 -38 185 -38c56 0 139 14 139 85c0 110 -304 96 -304 305c0 148 130 211 262 211c84 0 147 -14 218 -47l-56 -110c-52 20 -106 30 -163 30c-45 0 -108 -10 -108 -66c0 -95 309 -105 309 -303
c0 -174 -163 -235 -309 -235z" />
    <glyph glyph-name="uni0406" unicode="&#x406;" horiz-adv-x="308" 
d="M45 0l74 707h154l-74 -707h-154z" />
    <glyph glyph-name="uni0407" unicode="&#x407;" horiz-adv-x="308" 
d="M85 747l-78 89l97 88l78 -88zM323 747l-79 89l97 88l79 -88zM45 0l74 707h154l-74 -707h-154z" />
    <glyph glyph-name="uni0408" unicode="&#x408;" horiz-adv-x="311" 
d="M-61 -196l-45 111c126 66 157 114 170 236l58 556h155l-58 -554c-15 -145 -52 -275 -280 -349z" />
    <glyph glyph-name="uni0409" unicode="&#x409;" horiz-adv-x="1031" 
d="M20 -22l-53 142c52 21 131 55 162 107c39 64 73 236 106 480h446l-24 -230h113c134 0 242 -70 242 -204v-1c0 -234 -206 -272 -394 -272h-165l61 589h-156c-52 -273 -72 -390 -125 -467c-52 -75 -135 -114 -213 -144zM736 356h-91l-24 -233c10 -1 26 -1 39 -1
c107 0 191 27 191 139c0 66 -45 95 -115 95z" />
    <glyph glyph-name="uni040A" unicode="&#x40a;" horiz-adv-x="1030" 
d="M45 0l74 707h154l-28 -270h273l28 270h154l-28 -270h107c128 0 232 -64 232 -186v-1c0 -213 -195 -250 -374 -250h-165l33 319h-272l-34 -319h-154zM743 316h-83l-20 -193c9 -1 23 -1 35 -1c96 0 172 22 172 114v1c0 55 -41 79 -104 79z" />
    <glyph glyph-name="uni040B" unicode="&#x40b;" horiz-adv-x="785" 
d="M158 0l62 585h-188l13 122h599l-13 -122h-257l-17 -165c54 19 126 37 180 37c141 0 214 -63 214 -191c0 -13 0 -27 -2 -42l-24 -224h-155l22 204c1 11 2 20 2 29c0 76 -41 100 -114 100c-42 0 -92 -13 -136 -36l-31 -297h-155z" />
    <glyph glyph-name="uni040C" unicode="&#x40c;" horiz-adv-x="680" 
d="M45 0l74 707h154l-32 -309l284 309h189l-312 -330l243 -349l-150 -68l-259 391l-37 -351h-154zM315 737l-26 96l261 89l34 -121z" />
    <glyph glyph-name="uni040D" unicode="&#x40d;" horiz-adv-x="789" 
d="M547 735l-266 64l35 121l258 -89zM45 0l75 707h155l-40 -379l-14 -94l76 101l302 372h155l-75 -707h-155l40 379l14 94l-76 -101l-302 -372h-155z" />
    <glyph glyph-name="uni040E" unicode="&#x40e;" horiz-adv-x="625" 
d="M345 740c-87 0 -158 36 -202 104l79 79c36 -40 85 -60 136 -60c53 0 102 20 151 60l72 -79c-63 -78 -148 -104 -236 -104zM153 -9l-45 131c76 21 119 37 147 83l14 23h-48l-198 479h172l139 -371l165 371h183l-270 -490c-104 -189 -156 -197 -259 -226z" />
    <glyph glyph-name="uni040F" unicode="&#x40f;" horiz-adv-x="755" 
d="M264 -153l16 153h-234l73 707h156l-61 -589h289l60 589h156l-73 -707h-220l-16 -153h-146z" />
    <glyph glyph-name="uni0410" unicode="&#x410;" horiz-adv-x="691" 
d="M-49 0l351 707h198l163 -707h-159l-46 217h-247l-103 -217h-157zM267 331h166l-29 161l-17 121l-49 -121z" />
    <glyph glyph-name="uni0411" unicode="&#x411;" horiz-adv-x="645" 
d="M45 0l74 707h481l-13 -133h-328l-12 -117h113c134 0 255 -60 255 -194c0 -25 -2 -48 -7 -68c-39 -172 -230 -195 -398 -195h-165zM326 336h-92l-21 -213c10 -1 26 -1 39 -1c107 0 202 18 202 129c0 66 -58 85 -128 85z" />
    <glyph glyph-name="uni0412" unicode="&#x412;" horiz-adv-x="654" 
d="M45 0l74 707h238c114 0 237 -28 237 -165c0 -68 -31 -126 -90 -157l-1 -3c65 -20 110 -77 110 -147c0 -175 -145 -235 -300 -235h-268zM213 122h92c79 0 150 11 150 105c0 80 -86 83 -146 83h-76zM244 417h67c78 0 124 25 124 103c0 55 -64 69 -114 69h-59z" />
    <glyph glyph-name="uni0413" unicode="&#x413;" horiz-adv-x="550" 
d="M45 0l74 707h470l-13 -122h-315l-62 -585h-154z" />
    <glyph glyph-name="uni0414" unicode="&#x414;" horiz-adv-x="763" 
d="M-44 -153l28 271h67c34 51 69 115 90 172c40 106 58 234 89 417h454l-60 -589h100l-28 -271h-146l15 153h-449l-15 -153h-145zM221 117h247l48 468h-165c-30 -164 -46 -251 -69 -321c-15 -47 -38 -98 -61 -147z" />
    <glyph glyph-name="uni0415" unicode="&#x415;" horiz-adv-x="588" 
d="M45 0l74 707h452l-13 -121h-297l-18 -174h275l-12 -114h-275l-19 -177h321l-13 -121h-475z" />
    <glyph glyph-name="uni0416" unicode="&#x416;" horiz-adv-x="967" 
d="M120 -40l-149 68l285 361l-188 318h174l170 -312l33 312h154l-34 -317l243 317h189l-269 -336l203 -343l-150 -68l-220 385l-36 -345h-154l36 343z" />
    <glyph glyph-name="uni0417" unicode="&#x417;" horiz-adv-x="563" 
d="M224 -13c-93 0 -177 26 -233 62l55 119c36 -19 96 -51 186 -51c69 0 129 31 129 97c0 64 -56 85 -138 85h-84l13 118h84c74 0 134 34 134 95c0 50 -40 79 -106 79c-61 0 -104 -17 -151 -35l-42 110c50 25 129 52 223 52c167 0 230 -85 230 -179c0 -92 -65 -148 -110 -172
v-2c47 -19 104 -61 104 -158c0 -108 -84 -220 -294 -220z" />
    <glyph glyph-name="uni0418" unicode="&#x418;" horiz-adv-x="789" 
d="M45 0l75 707h155l-40 -379l-14 -94l76 101l302 372h155l-75 -707h-155l40 379l14 94l-76 -101l-302 -372h-155z" />
    <glyph glyph-name="uni0419" unicode="&#x419;" horiz-adv-x="789" 
d="M443 740c-87 0 -158 36 -202 104l79 79c36 -40 85 -60 136 -60c53 0 102 20 151 60l72 -79c-63 -78 -148 -104 -236 -104zM45 0l75 707h155l-40 -379l-14 -94l76 101l302 372h155l-75 -707h-155l40 379l14 94l-76 -101l-302 -372h-155z" />
    <glyph glyph-name="uni041A" unicode="&#x41a;" horiz-adv-x="680" 
d="M45 0l74 707h154l-32 -309l284 309h189l-312 -330l243 -349l-150 -68l-259 391l-37 -351h-154z" />
    <glyph glyph-name="uni041B" unicode="&#x41b;" horiz-adv-x="716" 
d="M20 -22l-53 142c52 21 131 55 162 107c39 64 73 236 106 480h446l-74 -707h-154l61 589h-156c-52 -273 -72 -390 -125 -467c-52 -75 -135 -114 -213 -144z" />
    <glyph glyph-name="uni041C" unicode="&#x41c;" horiz-adv-x="972" 
d="M-18 0l252 707h177l39 -580l241 580h175l39 -707h-149l-21 486l-203 -486h-205l-32 490l-162 -490h-151z" />
    <glyph glyph-name="uni041D" unicode="&#x41d;" horiz-adv-x="777" 
d="M45 0l74 707h154l-30 -293h313l31 293h155l-74 -707h-155l32 296h-314l-32 -296h-154z" />
    <glyph glyph-name="uni041E" unicode="&#x41e;" horiz-adv-x="813" 
d="M365 -12c-202 0 -329 110 -329 309c0 264 162 421 423 421c202 0 328 -104 328 -306c0 -266 -156 -424 -422 -424zM381 111c171 0 247 125 247 284c0 123 -62 200 -190 200c-167 0 -245 -124 -245 -281c0 -122 60 -203 188 -203z" />
    <glyph glyph-name="uni041F" unicode="&#x41f;" horiz-adv-x="767" 
d="M46 0l73 707h612l-73 -707h-154l60 578h-304l-60 -578h-154z" />
    <glyph glyph-name="uni0420" unicode="&#x420;" horiz-adv-x="625" 
d="M45 0l74 707h267c134 0 242 -70 242 -214c0 -211 -194 -284 -374 -284h-32l-22 -209h-155zM262 586l-27 -256c13 0 28 0 38 1c102 5 194 25 194 143c0 76 -45 112 -115 112h-90z" />
    <glyph glyph-name="uni0421" unicode="&#x421;" horiz-adv-x="650" 
d="M387 -10c-201 0 -350 93 -350 311c0 272 155 414 423 414c74 0 128 -11 189 -35l-47 -114c-58 17 -96 21 -157 21c-159 0 -249 -108 -249 -263c0 -139 93 -204 223 -204c57 0 106 3 161 18l25 -118c-73 -23 -139 -30 -218 -30z" />
    <glyph glyph-name="uni0422" unicode="&#x422;" horiz-adv-x="611" 
d="M195 0l61 585h-225l13 122h605l-13 -122h-225l-61 -585h-155z" />
    <glyph glyph-name="uni0423" unicode="&#x423;" horiz-adv-x="625" 
d="M153 -9l-45 131c76 21 119 37 147 83l14 23h-48l-198 479h172l139 -371l165 371h183l-270 -490c-104 -189 -156 -197 -259 -226z" />
    <glyph glyph-name="uni0424" unicode="&#x424;" horiz-adv-x="816" 
d="M300 0l9 85c-160 0 -286 81 -286 249c0 198 135 319 344 327l8 76h154l-8 -76c161 0 286 -81 286 -251c0 -197 -141 -317 -344 -325l-9 -85h-154zM321 207l34 332c-86 0 -175 -55 -175 -189c0 -92 62 -143 141 -143zM475 207c100 2 175 83 175 191c0 94 -63 141 -142 141
z" />
    <glyph glyph-name="uni0425" unicode="&#x425;" horiz-adv-x="658" 
d="M-38 0l290 364l-183 343h176l109 -227l168 227h173l-271 -340l196 -367h-177l-122 250l-184 -250h-175z" />
    <glyph glyph-name="uni0426" unicode="&#x426;" horiz-adv-x="797" 
d="M584 -153l16 153h-554l73 707h156l-61 -589h289l60 589h156l-62 -589h100l-27 -271h-146z" />
    <glyph glyph-name="uni0427" unicode="&#x427;" horiz-adv-x="672" 
d="M406 0l31 287c-54 -19 -128 -31 -182 -31c-141 0 -214 58 -214 185c0 13 0 27 2 42l24 224h155l-22 -204c-1 -11 -2 -20 -2 -29c0 -76 41 -100 114 -100c42 0 92 13 136 36l31 297h156l-73 -707h-156z" />
    <glyph glyph-name="uni0428" unicode="&#x428;" horiz-adv-x="1017" 
d="M46 0l73 707h156l-61 -589h198l60 589h156l-61 -589h198l60 589h156l-73 -707h-862z" />
    </font>
</defs>
</svg>
